%TF.GenerationSoftware,KiCad,Pcbnew,(5.1.12-1-10_14)*%
%TF.CreationDate,2021-12-28T18:28:33+00:00*%
%TF.ProjectId,pocket-operator-eurorack-connector-board,706f636b-6574-42d6-9f70-657261746f72,rev?*%
%TF.SameCoordinates,Original*%
%TF.FileFunction,Copper,L2,Bot*%
%TF.FilePolarity,Positive*%
%FSLAX46Y46*%
G04 Gerber Fmt 4.6, Leading zero omitted, Abs format (unit mm)*
G04 Created by KiCad (PCBNEW (5.1.12-1-10_14)) date 2021-12-28 18:28:33*
%MOMM*%
%LPD*%
G01*
G04 APERTURE LIST*
%TA.AperFunction,ComponentPad*%
%ADD10O,2.500000X3.600000*%
%TD*%
%TA.AperFunction,ComponentPad*%
%ADD11O,3.100000X2.300000*%
%TD*%
%TA.AperFunction,ComponentPad*%
%ADD12R,1.700000X1.700000*%
%TD*%
%TA.AperFunction,ComponentPad*%
%ADD13O,1.700000X1.700000*%
%TD*%
%TA.AperFunction,ViaPad*%
%ADD14C,0.800000*%
%TD*%
%TA.AperFunction,Conductor*%
%ADD15C,0.250000*%
%TD*%
%TA.AperFunction,Conductor*%
%ADD16C,0.254000*%
%TD*%
%TA.AperFunction,Conductor*%
%ADD17C,0.100000*%
%TD*%
G04 APERTURE END LIST*
D10*
%TO.P,SW1,3*%
%TO.N,Net-(SW1-Pad3)*%
X0Y-29338000D03*
%TO.P,SW1,2*%
%TO.N,/IN_L*%
X0Y-24638000D03*
%TO.P,SW1,1*%
%TO.N,Net-(J2-PadS)*%
X0Y-19938000D03*
%TD*%
%TO.P,J5,TN*%
%TO.N,Net-(J5-PadTN)*%
%TA.AperFunction,ComponentPad*%
G36*
G01*
X-1300000Y-88530000D02*
X-1300000Y-87230000D01*
G75*
G02*
X-650000Y-86580000I650000J0D01*
G01*
X650000Y-86580000D01*
G75*
G02*
X1300000Y-87230000I0J-650000D01*
G01*
X1300000Y-88530000D01*
G75*
G02*
X650000Y-89180000I-650000J0D01*
G01*
X-650000Y-89180000D01*
G75*
G02*
X-1300000Y-88530000I0J650000D01*
G01*
G37*
%TD.AperFunction*%
D11*
%TO.P,J5,S*%
%TO.N,/OUT_R*%
X0Y-90980000D03*
%TO.P,J5,T*%
%TO.N,GND*%
%TA.AperFunction,ComponentPad*%
G36*
G01*
X-1300000Y-80230000D02*
X-1300000Y-78930000D01*
G75*
G02*
X-650000Y-78280000I650000J0D01*
G01*
X650000Y-78280000D01*
G75*
G02*
X1300000Y-78930000I0J-650000D01*
G01*
X1300000Y-80230000D01*
G75*
G02*
X650000Y-80880000I-650000J0D01*
G01*
X-650000Y-80880000D01*
G75*
G02*
X-1300000Y-80230000I0J650000D01*
G01*
G37*
%TD.AperFunction*%
%TD*%
%TO.P,J4,TN*%
%TO.N,Net-(J4-PadTN)*%
%TA.AperFunction,ComponentPad*%
G36*
G01*
X-1300000Y-73530000D02*
X-1300000Y-72230000D01*
G75*
G02*
X-650000Y-71580000I650000J0D01*
G01*
X650000Y-71580000D01*
G75*
G02*
X1300000Y-72230000I0J-650000D01*
G01*
X1300000Y-73530000D01*
G75*
G02*
X650000Y-74180000I-650000J0D01*
G01*
X-650000Y-74180000D01*
G75*
G02*
X-1300000Y-73530000I0J650000D01*
G01*
G37*
%TD.AperFunction*%
%TO.P,J4,S*%
%TO.N,/OUT_L*%
X0Y-75980000D03*
%TO.P,J4,T*%
%TO.N,GND*%
%TA.AperFunction,ComponentPad*%
G36*
G01*
X-1300000Y-65230000D02*
X-1300000Y-63930000D01*
G75*
G02*
X-650000Y-63280000I650000J0D01*
G01*
X650000Y-63280000D01*
G75*
G02*
X1300000Y-63930000I0J-650000D01*
G01*
X1300000Y-65230000D01*
G75*
G02*
X650000Y-65880000I-650000J0D01*
G01*
X-650000Y-65880000D01*
G75*
G02*
X-1300000Y-65230000I0J650000D01*
G01*
G37*
%TD.AperFunction*%
%TD*%
%TO.P,J3,TN*%
%TO.N,Net-(J3-PadTN)*%
%TA.AperFunction,ComponentPad*%
G36*
G01*
X-1300000Y-58530000D02*
X-1300000Y-57230000D01*
G75*
G02*
X-650000Y-56580000I650000J0D01*
G01*
X650000Y-56580000D01*
G75*
G02*
X1300000Y-57230000I0J-650000D01*
G01*
X1300000Y-58530000D01*
G75*
G02*
X650000Y-59180000I-650000J0D01*
G01*
X-650000Y-59180000D01*
G75*
G02*
X-1300000Y-58530000I0J650000D01*
G01*
G37*
%TD.AperFunction*%
%TO.P,J3,S*%
%TO.N,/IN_R*%
X0Y-60980000D03*
%TO.P,J3,T*%
%TO.N,GND*%
%TA.AperFunction,ComponentPad*%
G36*
G01*
X-1300000Y-50230000D02*
X-1300000Y-48930000D01*
G75*
G02*
X-650000Y-48280000I650000J0D01*
G01*
X650000Y-48280000D01*
G75*
G02*
X1300000Y-48930000I0J-650000D01*
G01*
X1300000Y-50230000D01*
G75*
G02*
X650000Y-50880000I-650000J0D01*
G01*
X-650000Y-50880000D01*
G75*
G02*
X-1300000Y-50230000I0J650000D01*
G01*
G37*
%TD.AperFunction*%
%TD*%
D12*
%TO.P,J1,1*%
%TO.N,GND*%
X1510000Y-15600000D03*
D13*
%TO.P,J1,2*%
%TO.N,/IN_L*%
X-1030000Y-15600000D03*
%TO.P,J1,3*%
%TO.N,GND*%
X1510000Y-13060000D03*
%TO.P,J1,4*%
%TO.N,/IN_R*%
X-1030000Y-13060000D03*
%TO.P,J1,5*%
%TO.N,GND*%
X1510000Y-10520000D03*
%TO.P,J1,6*%
%TO.N,/OUT_L*%
X-1030000Y-10520000D03*
%TO.P,J1,7*%
%TO.N,GND*%
X1510000Y-7980000D03*
%TO.P,J1,8*%
%TO.N,/OUT_R*%
X-1030000Y-7980000D03*
%TD*%
%TO.P,J2,T*%
%TO.N,GND*%
%TA.AperFunction,ComponentPad*%
G36*
G01*
X-1300000Y-35230000D02*
X-1300000Y-33930000D01*
G75*
G02*
X-650000Y-33280000I650000J0D01*
G01*
X650000Y-33280000D01*
G75*
G02*
X1300000Y-33930000I0J-650000D01*
G01*
X1300000Y-35230000D01*
G75*
G02*
X650000Y-35880000I-650000J0D01*
G01*
X-650000Y-35880000D01*
G75*
G02*
X-1300000Y-35230000I0J650000D01*
G01*
G37*
%TD.AperFunction*%
D11*
%TO.P,J2,S*%
%TO.N,Net-(J2-PadS)*%
X0Y-45980000D03*
%TO.P,J2,TN*%
%TO.N,Net-(J2-PadTN)*%
%TA.AperFunction,ComponentPad*%
G36*
G01*
X-1300000Y-43530000D02*
X-1300000Y-42230000D01*
G75*
G02*
X-650000Y-41580000I650000J0D01*
G01*
X650000Y-41580000D01*
G75*
G02*
X1300000Y-42230000I0J-650000D01*
G01*
X1300000Y-43530000D01*
G75*
G02*
X650000Y-44180000I-650000J0D01*
G01*
X-650000Y-44180000D01*
G75*
G02*
X-1300000Y-43530000I0J650000D01*
G01*
G37*
%TD.AperFunction*%
%TD*%
D14*
%TO.N,GND*%
X-7620000Y-8890000D03*
X-5080000Y-8890000D03*
X-7620000Y-11430000D03*
X-2540000Y-27940000D03*
X-6350000Y-90170000D03*
X-5080000Y-82550000D03*
X-8255000Y-81280000D03*
X-8255000Y-76835000D03*
X-8255000Y-70485000D03*
X-8255000Y-65405000D03*
X-8255000Y-59690000D03*
X-8255000Y-54610000D03*
X-8255000Y-50165000D03*
X-8255000Y-44450000D03*
X-8255000Y-39370000D03*
X-8255000Y-32385000D03*
X-8255000Y-26670000D03*
X-8255000Y-21590000D03*
X-8255000Y-16510000D03*
%TD*%
D15*
%TO.N,/OUT_L*%
X-6350000Y-69630000D02*
X0Y-75980000D01*
X-6350000Y-15840000D02*
X-6350000Y-69630000D01*
X-1030000Y-10520000D02*
X-6350000Y-15840000D01*
%TO.N,Net-(J2-PadS)*%
X0Y-19938000D02*
X-1523000Y-19938000D01*
X-1523000Y-19938000D02*
X-3810000Y-22225000D01*
X-3810000Y-22225000D02*
X-3810000Y-43180000D01*
X-1010000Y-45980000D02*
X0Y-45980000D01*
X-3810000Y-43180000D02*
X-1010000Y-45980000D01*
%TD*%
D16*
%TO.N,GND*%
X-2183475Y-7033368D02*
X-2345990Y-7276589D01*
X-2457932Y-7546842D01*
X-2515000Y-7833740D01*
X-2515000Y-8126260D01*
X-2457932Y-8413158D01*
X-2345990Y-8683411D01*
X-2183475Y-8926632D01*
X-1976632Y-9133475D01*
X-1802240Y-9250000D01*
X-1976632Y-9366525D01*
X-2183475Y-9573368D01*
X-2345990Y-9816589D01*
X-2457932Y-10086842D01*
X-2515000Y-10373740D01*
X-2515000Y-10666260D01*
X-2471210Y-10886408D01*
X-6860997Y-15276196D01*
X-6890001Y-15299999D01*
X-6945129Y-15367174D01*
X-6984974Y-15415724D01*
X-7005294Y-15453740D01*
X-7055546Y-15547754D01*
X-7099003Y-15691015D01*
X-7110000Y-15802668D01*
X-7110000Y-15802678D01*
X-7113676Y-15840000D01*
X-7110000Y-15877322D01*
X-7109999Y-69592667D01*
X-7113676Y-69630000D01*
X-7099002Y-69778985D01*
X-7055546Y-69922246D01*
X-6984974Y-70054276D01*
X-6914816Y-70139763D01*
X-6890000Y-70170001D01*
X-6861002Y-70193799D01*
X-1954032Y-75100770D01*
X-2057104Y-75293605D01*
X-2159172Y-75630079D01*
X-2193636Y-75980000D01*
X-2159172Y-76329921D01*
X-2057104Y-76666395D01*
X-1891354Y-76976491D01*
X-1668292Y-77248292D01*
X-1396491Y-77471354D01*
X-1086395Y-77637104D01*
X-1068178Y-77642630D01*
X-1300000Y-77641928D01*
X-1424482Y-77654188D01*
X-1544180Y-77690498D01*
X-1654494Y-77749463D01*
X-1751185Y-77828815D01*
X-1830537Y-77925506D01*
X-1889502Y-78035820D01*
X-1925812Y-78155518D01*
X-1938072Y-78280000D01*
X-1935000Y-79294250D01*
X-1776250Y-79453000D01*
X-127000Y-79453000D01*
X-127000Y-79433000D01*
X127000Y-79433000D01*
X127000Y-79453000D01*
X1776250Y-79453000D01*
X1935000Y-79294250D01*
X1938072Y-78280000D01*
X1925812Y-78155518D01*
X1889502Y-78035820D01*
X1830537Y-77925506D01*
X1751185Y-77828815D01*
X1654494Y-77749463D01*
X1544180Y-77690498D01*
X1424482Y-77654188D01*
X1300000Y-77641928D01*
X1068178Y-77642630D01*
X1086395Y-77637104D01*
X1396491Y-77471354D01*
X1668292Y-77248292D01*
X1891354Y-76976491D01*
X2057104Y-76666395D01*
X2159172Y-76329921D01*
X2193636Y-75980000D01*
X2159172Y-75630079D01*
X2057104Y-75293605D01*
X1891354Y-74983509D01*
X1668292Y-74711708D01*
X1449500Y-74532149D01*
X1560804Y-74440804D01*
X1720993Y-74245614D01*
X1840023Y-74022924D01*
X1913322Y-73781290D01*
X1938072Y-73530000D01*
X1938072Y-72230000D01*
X1913322Y-71978710D01*
X1840023Y-71737076D01*
X1720993Y-71514386D01*
X1560804Y-71319196D01*
X1408003Y-71193795D01*
X1703649Y-70898149D01*
X1943680Y-70538918D01*
X2109015Y-70139763D01*
X2193303Y-69716021D01*
X2193303Y-69283979D01*
X2109015Y-68860237D01*
X1943680Y-68461082D01*
X1703649Y-68101851D01*
X1398149Y-67796351D01*
X1038918Y-67556320D01*
X639763Y-67390985D01*
X216021Y-67306697D01*
X-216021Y-67306697D01*
X-639763Y-67390985D01*
X-1038918Y-67556320D01*
X-1398149Y-67796351D01*
X-1703649Y-68101851D01*
X-1943680Y-68461082D01*
X-2109015Y-68860237D01*
X-2193303Y-69283979D01*
X-2193303Y-69716021D01*
X-2109015Y-70139763D01*
X-1943680Y-70538918D01*
X-1703649Y-70898149D01*
X-1408003Y-71193795D01*
X-1560804Y-71319196D01*
X-1720993Y-71514386D01*
X-1840023Y-71737076D01*
X-1913322Y-71978710D01*
X-1938072Y-72230000D01*
X-1938072Y-72967126D01*
X-5590000Y-69315199D01*
X-5590000Y-65880000D01*
X-1938072Y-65880000D01*
X-1925812Y-66004482D01*
X-1889502Y-66124180D01*
X-1830537Y-66234494D01*
X-1751185Y-66331185D01*
X-1654494Y-66410537D01*
X-1544180Y-66469502D01*
X-1424482Y-66505812D01*
X-1300000Y-66518072D01*
X-285750Y-66515000D01*
X-127000Y-66356250D01*
X-127000Y-64707000D01*
X127000Y-64707000D01*
X127000Y-66356250D01*
X285750Y-66515000D01*
X1300000Y-66518072D01*
X1424482Y-66505812D01*
X1544180Y-66469502D01*
X1654494Y-66410537D01*
X1751185Y-66331185D01*
X1830537Y-66234494D01*
X1889502Y-66124180D01*
X1925812Y-66004482D01*
X1938072Y-65880000D01*
X1935000Y-64865750D01*
X1776250Y-64707000D01*
X127000Y-64707000D01*
X-127000Y-64707000D01*
X-1776250Y-64707000D01*
X-1935000Y-64865750D01*
X-1938072Y-65880000D01*
X-5590000Y-65880000D01*
X-5590000Y-60980000D01*
X-2193636Y-60980000D01*
X-2159172Y-61329921D01*
X-2057104Y-61666395D01*
X-1891354Y-61976491D01*
X-1668292Y-62248292D01*
X-1396491Y-62471354D01*
X-1086395Y-62637104D01*
X-1068178Y-62642630D01*
X-1300000Y-62641928D01*
X-1424482Y-62654188D01*
X-1544180Y-62690498D01*
X-1654494Y-62749463D01*
X-1751185Y-62828815D01*
X-1830537Y-62925506D01*
X-1889502Y-63035820D01*
X-1925812Y-63155518D01*
X-1938072Y-63280000D01*
X-1935000Y-64294250D01*
X-1776250Y-64453000D01*
X-127000Y-64453000D01*
X-127000Y-64433000D01*
X127000Y-64433000D01*
X127000Y-64453000D01*
X1776250Y-64453000D01*
X1935000Y-64294250D01*
X1938072Y-63280000D01*
X1925812Y-63155518D01*
X1889502Y-63035820D01*
X1830537Y-62925506D01*
X1751185Y-62828815D01*
X1654494Y-62749463D01*
X1544180Y-62690498D01*
X1424482Y-62654188D01*
X1300000Y-62641928D01*
X1068178Y-62642630D01*
X1086395Y-62637104D01*
X1396491Y-62471354D01*
X1668292Y-62248292D01*
X1891354Y-61976491D01*
X2057104Y-61666395D01*
X2159172Y-61329921D01*
X2193636Y-60980000D01*
X2159172Y-60630079D01*
X2057104Y-60293605D01*
X1891354Y-59983509D01*
X1668292Y-59711708D01*
X1449500Y-59532149D01*
X1560804Y-59440804D01*
X1720993Y-59245614D01*
X1840023Y-59022924D01*
X1913322Y-58781290D01*
X1938072Y-58530000D01*
X1938072Y-57230000D01*
X1913322Y-56978710D01*
X1840023Y-56737076D01*
X1720993Y-56514386D01*
X1560804Y-56319196D01*
X1408003Y-56193795D01*
X1703649Y-55898149D01*
X1943680Y-55538918D01*
X2109015Y-55139763D01*
X2193303Y-54716021D01*
X2193303Y-54283979D01*
X2109015Y-53860237D01*
X1943680Y-53461082D01*
X1703649Y-53101851D01*
X1398149Y-52796351D01*
X1038918Y-52556320D01*
X639763Y-52390985D01*
X216021Y-52306697D01*
X-216021Y-52306697D01*
X-639763Y-52390985D01*
X-1038918Y-52556320D01*
X-1398149Y-52796351D01*
X-1703649Y-53101851D01*
X-1943680Y-53461082D01*
X-2109015Y-53860237D01*
X-2193303Y-54283979D01*
X-2193303Y-54716021D01*
X-2109015Y-55139763D01*
X-1943680Y-55538918D01*
X-1703649Y-55898149D01*
X-1408003Y-56193795D01*
X-1560804Y-56319196D01*
X-1720993Y-56514386D01*
X-1840023Y-56737076D01*
X-1913322Y-56978710D01*
X-1938072Y-57230000D01*
X-1938072Y-58530000D01*
X-1913322Y-58781290D01*
X-1840023Y-59022924D01*
X-1720993Y-59245614D01*
X-1560804Y-59440804D01*
X-1449500Y-59532149D01*
X-1668292Y-59711708D01*
X-1891354Y-59983509D01*
X-2057104Y-60293605D01*
X-2159172Y-60630079D01*
X-2193636Y-60980000D01*
X-5590000Y-60980000D01*
X-5590000Y-50880000D01*
X-1938072Y-50880000D01*
X-1925812Y-51004482D01*
X-1889502Y-51124180D01*
X-1830537Y-51234494D01*
X-1751185Y-51331185D01*
X-1654494Y-51410537D01*
X-1544180Y-51469502D01*
X-1424482Y-51505812D01*
X-1300000Y-51518072D01*
X-285750Y-51515000D01*
X-127000Y-51356250D01*
X-127000Y-49707000D01*
X127000Y-49707000D01*
X127000Y-51356250D01*
X285750Y-51515000D01*
X1300000Y-51518072D01*
X1424482Y-51505812D01*
X1544180Y-51469502D01*
X1654494Y-51410537D01*
X1751185Y-51331185D01*
X1830537Y-51234494D01*
X1889502Y-51124180D01*
X1925812Y-51004482D01*
X1938072Y-50880000D01*
X1935000Y-49865750D01*
X1776250Y-49707000D01*
X127000Y-49707000D01*
X-127000Y-49707000D01*
X-1776250Y-49707000D01*
X-1935000Y-49865750D01*
X-1938072Y-50880000D01*
X-5590000Y-50880000D01*
X-5590000Y-22225000D01*
X-4573676Y-22225000D01*
X-4570000Y-22262322D01*
X-4569999Y-43142667D01*
X-4573676Y-43180000D01*
X-4559002Y-43328985D01*
X-4515546Y-43472246D01*
X-4444974Y-43604276D01*
X-4373799Y-43691002D01*
X-4350000Y-43720001D01*
X-4321002Y-43743799D01*
X-2183878Y-45880924D01*
X-2193636Y-45980000D01*
X-2159172Y-46329921D01*
X-2057104Y-46666395D01*
X-1891354Y-46976491D01*
X-1668292Y-47248292D01*
X-1396491Y-47471354D01*
X-1086395Y-47637104D01*
X-1068178Y-47642630D01*
X-1300000Y-47641928D01*
X-1424482Y-47654188D01*
X-1544180Y-47690498D01*
X-1654494Y-47749463D01*
X-1751185Y-47828815D01*
X-1830537Y-47925506D01*
X-1889502Y-48035820D01*
X-1925812Y-48155518D01*
X-1938072Y-48280000D01*
X-1935000Y-49294250D01*
X-1776250Y-49453000D01*
X-127000Y-49453000D01*
X-127000Y-49433000D01*
X127000Y-49433000D01*
X127000Y-49453000D01*
X1776250Y-49453000D01*
X1935000Y-49294250D01*
X1938072Y-48280000D01*
X1925812Y-48155518D01*
X1889502Y-48035820D01*
X1830537Y-47925506D01*
X1751185Y-47828815D01*
X1654494Y-47749463D01*
X1544180Y-47690498D01*
X1424482Y-47654188D01*
X1300000Y-47641928D01*
X1068178Y-47642630D01*
X1086395Y-47637104D01*
X1396491Y-47471354D01*
X1668292Y-47248292D01*
X1891354Y-46976491D01*
X2057104Y-46666395D01*
X2159172Y-46329921D01*
X2193636Y-45980000D01*
X2159172Y-45630079D01*
X2057104Y-45293605D01*
X1891354Y-44983509D01*
X1668292Y-44711708D01*
X1449500Y-44532149D01*
X1560804Y-44440804D01*
X1720993Y-44245614D01*
X1840023Y-44022924D01*
X1913322Y-43781290D01*
X1938072Y-43530000D01*
X1938072Y-42230000D01*
X1913322Y-41978710D01*
X1840023Y-41737076D01*
X1720993Y-41514386D01*
X1560804Y-41319196D01*
X1408003Y-41193795D01*
X1703649Y-40898149D01*
X1943680Y-40538918D01*
X2109015Y-40139763D01*
X2193303Y-39716021D01*
X2193303Y-39283979D01*
X2109015Y-38860237D01*
X1943680Y-38461082D01*
X1703649Y-38101851D01*
X1398149Y-37796351D01*
X1038918Y-37556320D01*
X639763Y-37390985D01*
X216021Y-37306697D01*
X-216021Y-37306697D01*
X-639763Y-37390985D01*
X-1038918Y-37556320D01*
X-1398149Y-37796351D01*
X-1703649Y-38101851D01*
X-1943680Y-38461082D01*
X-2109015Y-38860237D01*
X-2193303Y-39283979D01*
X-2193303Y-39716021D01*
X-2109015Y-40139763D01*
X-1943680Y-40538918D01*
X-1703649Y-40898149D01*
X-1408003Y-41193795D01*
X-1560804Y-41319196D01*
X-1720993Y-41514386D01*
X-1840023Y-41737076D01*
X-1913322Y-41978710D01*
X-1938072Y-42230000D01*
X-1938072Y-43530000D01*
X-1913322Y-43781290D01*
X-1840023Y-44022924D01*
X-1780024Y-44135174D01*
X-3050000Y-42865199D01*
X-3050000Y-35880000D01*
X-1938072Y-35880000D01*
X-1925812Y-36004482D01*
X-1889502Y-36124180D01*
X-1830537Y-36234494D01*
X-1751185Y-36331185D01*
X-1654494Y-36410537D01*
X-1544180Y-36469502D01*
X-1424482Y-36505812D01*
X-1300000Y-36518072D01*
X-285750Y-36515000D01*
X-127000Y-36356250D01*
X-127000Y-34707000D01*
X127000Y-34707000D01*
X127000Y-36356250D01*
X285750Y-36515000D01*
X1300000Y-36518072D01*
X1424482Y-36505812D01*
X1544180Y-36469502D01*
X1654494Y-36410537D01*
X1751185Y-36331185D01*
X1830537Y-36234494D01*
X1889502Y-36124180D01*
X1925812Y-36004482D01*
X1938072Y-35880000D01*
X1935000Y-34865750D01*
X1776250Y-34707000D01*
X127000Y-34707000D01*
X-127000Y-34707000D01*
X-1776250Y-34707000D01*
X-1935000Y-34865750D01*
X-1938072Y-35880000D01*
X-3050000Y-35880000D01*
X-3050000Y-33280000D01*
X-1938072Y-33280000D01*
X-1935000Y-34294250D01*
X-1776250Y-34453000D01*
X-127000Y-34453000D01*
X-127000Y-32803750D01*
X127000Y-32803750D01*
X127000Y-34453000D01*
X1776250Y-34453000D01*
X1935000Y-34294250D01*
X1938072Y-33280000D01*
X1925812Y-33155518D01*
X1889502Y-33035820D01*
X1830537Y-32925506D01*
X1751185Y-32828815D01*
X1654494Y-32749463D01*
X1544180Y-32690498D01*
X1424482Y-32654188D01*
X1300000Y-32641928D01*
X285750Y-32645000D01*
X127000Y-32803750D01*
X-127000Y-32803750D01*
X-285750Y-32645000D01*
X-1300000Y-32641928D01*
X-1424482Y-32654188D01*
X-1544180Y-32690498D01*
X-1654494Y-32749463D01*
X-1751185Y-32828815D01*
X-1830537Y-32925506D01*
X-1889502Y-33035820D01*
X-1925812Y-33155518D01*
X-1938072Y-33280000D01*
X-3050000Y-33280000D01*
X-3050000Y-22539801D01*
X-1740571Y-21230374D01*
X-1574902Y-21540317D01*
X-1339344Y-21827345D01*
X-1052316Y-22062903D01*
X-724847Y-22237939D01*
X-559818Y-22288000D01*
X-724848Y-22338061D01*
X-1052317Y-22513097D01*
X-1339345Y-22748655D01*
X-1574903Y-23035683D01*
X-1749939Y-23363153D01*
X-1857725Y-23718477D01*
X-1885000Y-23995404D01*
X-1885000Y-25280597D01*
X-1857725Y-25557524D01*
X-1749939Y-25912848D01*
X-1574902Y-26240317D01*
X-1339344Y-26527345D01*
X-1052316Y-26762903D01*
X-724847Y-26937939D01*
X-559818Y-26988000D01*
X-724848Y-27038061D01*
X-1052317Y-27213097D01*
X-1339345Y-27448655D01*
X-1574903Y-27735683D01*
X-1749939Y-28063153D01*
X-1857725Y-28418477D01*
X-1885000Y-28695404D01*
X-1885000Y-29980597D01*
X-1857725Y-30257524D01*
X-1749939Y-30612848D01*
X-1574902Y-30940317D01*
X-1339344Y-31227345D01*
X-1052316Y-31462903D01*
X-724847Y-31637939D01*
X-369523Y-31745725D01*
X0Y-31782120D01*
X369524Y-31745725D01*
X724848Y-31637939D01*
X1052317Y-31462903D01*
X1339345Y-31227345D01*
X1574903Y-30940317D01*
X1749939Y-30612848D01*
X1857725Y-30257524D01*
X1885000Y-29980597D01*
X1885000Y-28695403D01*
X1857725Y-28418476D01*
X1749939Y-28063152D01*
X1574903Y-27735683D01*
X1339345Y-27448655D01*
X1052317Y-27213097D01*
X724847Y-27038061D01*
X559818Y-26988000D01*
X724848Y-26937939D01*
X1052317Y-26762903D01*
X1339345Y-26527345D01*
X1574903Y-26240317D01*
X1749939Y-25912848D01*
X1857725Y-25557524D01*
X1885000Y-25280597D01*
X1885000Y-23995403D01*
X1857725Y-23718476D01*
X1749939Y-23363152D01*
X1574903Y-23035683D01*
X1339345Y-22748655D01*
X1052317Y-22513097D01*
X724847Y-22338061D01*
X559818Y-22288000D01*
X724848Y-22237939D01*
X1052317Y-22062903D01*
X1339345Y-21827345D01*
X1574903Y-21540317D01*
X1749939Y-21212848D01*
X1857725Y-20857524D01*
X1885000Y-20580597D01*
X1885000Y-19295403D01*
X1857725Y-19018476D01*
X1749939Y-18663152D01*
X1574903Y-18335683D01*
X1339345Y-18048655D01*
X1052317Y-17813097D01*
X724847Y-17638061D01*
X369523Y-17530275D01*
X0Y-17493880D01*
X-369524Y-17530275D01*
X-724848Y-17638061D01*
X-1052317Y-17813097D01*
X-1339345Y-18048655D01*
X-1574903Y-18335683D01*
X-1749939Y-18663153D01*
X-1857725Y-19018477D01*
X-1882332Y-19268312D01*
X-1947276Y-19303026D01*
X-1947278Y-19303027D01*
X-1947277Y-19303027D01*
X-2034004Y-19374201D01*
X-2034008Y-19374205D01*
X-2063001Y-19397999D01*
X-2086795Y-19426992D01*
X-4320998Y-21661196D01*
X-4350001Y-21684999D01*
X-4405129Y-21752174D01*
X-4444974Y-21800724D01*
X-4459203Y-21827345D01*
X-4515546Y-21932754D01*
X-4559003Y-22076015D01*
X-4570000Y-22187668D01*
X-4570000Y-22187678D01*
X-4573676Y-22225000D01*
X-5590000Y-22225000D01*
X-5590000Y-16154801D01*
X-2515000Y-13079802D01*
X-2515000Y-13206260D01*
X-2457932Y-13493158D01*
X-2345990Y-13763411D01*
X-2183475Y-14006632D01*
X-1976632Y-14213475D01*
X-1802240Y-14330000D01*
X-1976632Y-14446525D01*
X-2183475Y-14653368D01*
X-2345990Y-14896589D01*
X-2457932Y-15166842D01*
X-2515000Y-15453740D01*
X-2515000Y-15746260D01*
X-2457932Y-16033158D01*
X-2345990Y-16303411D01*
X-2183475Y-16546632D01*
X-1976632Y-16753475D01*
X-1733411Y-16915990D01*
X-1463158Y-17027932D01*
X-1176260Y-17085000D01*
X-883740Y-17085000D01*
X-596842Y-17027932D01*
X-326589Y-16915990D01*
X-83368Y-16753475D01*
X48487Y-16621620D01*
X70498Y-16694180D01*
X129463Y-16804494D01*
X208815Y-16901185D01*
X305506Y-16980537D01*
X415820Y-17039502D01*
X535518Y-17075812D01*
X660000Y-17088072D01*
X1224250Y-17085000D01*
X1383000Y-16926250D01*
X1383000Y-15727000D01*
X1637000Y-15727000D01*
X1637000Y-16926250D01*
X1795750Y-17085000D01*
X2360000Y-17088072D01*
X2484482Y-17075812D01*
X2604180Y-17039502D01*
X2714494Y-16980537D01*
X2811185Y-16901185D01*
X2890537Y-16804494D01*
X2949502Y-16694180D01*
X2985812Y-16574482D01*
X2998072Y-16450000D01*
X2995000Y-15885750D01*
X2836250Y-15727000D01*
X1637000Y-15727000D01*
X1383000Y-15727000D01*
X1363000Y-15727000D01*
X1363000Y-15473000D01*
X1383000Y-15473000D01*
X1383000Y-13187000D01*
X1637000Y-13187000D01*
X1637000Y-15473000D01*
X2836250Y-15473000D01*
X2995000Y-15314250D01*
X2998072Y-14750000D01*
X2985812Y-14625518D01*
X2949502Y-14505820D01*
X2890537Y-14395506D01*
X2811185Y-14298815D01*
X2714494Y-14219463D01*
X2604180Y-14160498D01*
X2523534Y-14136034D01*
X2607588Y-14060269D01*
X2781641Y-13826920D01*
X2906825Y-13564099D01*
X2951476Y-13416890D01*
X2830155Y-13187000D01*
X1637000Y-13187000D01*
X1383000Y-13187000D01*
X1363000Y-13187000D01*
X1363000Y-12933000D01*
X1383000Y-12933000D01*
X1383000Y-10647000D01*
X1637000Y-10647000D01*
X1637000Y-12933000D01*
X2830155Y-12933000D01*
X2951476Y-12703110D01*
X2906825Y-12555901D01*
X2781641Y-12293080D01*
X2607588Y-12059731D01*
X2391355Y-11864822D01*
X2265745Y-11790000D01*
X2391355Y-11715178D01*
X2607588Y-11520269D01*
X2781641Y-11286920D01*
X2906825Y-11024099D01*
X2951476Y-10876890D01*
X2830155Y-10647000D01*
X1637000Y-10647000D01*
X1383000Y-10647000D01*
X1363000Y-10647000D01*
X1363000Y-10393000D01*
X1383000Y-10393000D01*
X1383000Y-8107000D01*
X1637000Y-8107000D01*
X1637000Y-10393000D01*
X2830155Y-10393000D01*
X2951476Y-10163110D01*
X2906825Y-10015901D01*
X2781641Y-9753080D01*
X2607588Y-9519731D01*
X2391355Y-9324822D01*
X2265745Y-9250000D01*
X2391355Y-9175178D01*
X2607588Y-8980269D01*
X2781641Y-8746920D01*
X2906825Y-8484099D01*
X2951476Y-8336890D01*
X2830155Y-8107000D01*
X1637000Y-8107000D01*
X1383000Y-8107000D01*
X1363000Y-8107000D01*
X1363000Y-7853000D01*
X1383000Y-7853000D01*
X1383000Y-7833000D01*
X1637000Y-7833000D01*
X1637000Y-7853000D01*
X2830155Y-7853000D01*
X2951476Y-7623110D01*
X2906825Y-7475901D01*
X2781641Y-7213080D01*
X2630165Y-7010000D01*
X3785000Y-7010000D01*
X3785001Y-92050000D01*
X1831027Y-92050000D01*
X1891354Y-91976491D01*
X2057104Y-91666395D01*
X2159172Y-91329921D01*
X2193636Y-90980000D01*
X2159172Y-90630079D01*
X2057104Y-90293605D01*
X1891354Y-89983509D01*
X1668292Y-89711708D01*
X1449500Y-89532149D01*
X1560804Y-89440804D01*
X1720993Y-89245614D01*
X1840023Y-89022924D01*
X1913322Y-88781290D01*
X1938072Y-88530000D01*
X1938072Y-87230000D01*
X1913322Y-86978710D01*
X1840023Y-86737076D01*
X1720993Y-86514386D01*
X1560804Y-86319196D01*
X1408003Y-86193795D01*
X1703649Y-85898149D01*
X1943680Y-85538918D01*
X2109015Y-85139763D01*
X2193303Y-84716021D01*
X2193303Y-84283979D01*
X2109015Y-83860237D01*
X1943680Y-83461082D01*
X1703649Y-83101851D01*
X1398149Y-82796351D01*
X1038918Y-82556320D01*
X639763Y-82390985D01*
X216021Y-82306697D01*
X-216021Y-82306697D01*
X-639763Y-82390985D01*
X-1038918Y-82556320D01*
X-1398149Y-82796351D01*
X-1703649Y-83101851D01*
X-1943680Y-83461082D01*
X-2109015Y-83860237D01*
X-2193303Y-84283979D01*
X-2193303Y-84716021D01*
X-2109015Y-85139763D01*
X-1943680Y-85538918D01*
X-1703649Y-85898149D01*
X-1408003Y-86193795D01*
X-1560804Y-86319196D01*
X-1720993Y-86514386D01*
X-1840023Y-86737076D01*
X-1913322Y-86978710D01*
X-1938072Y-87230000D01*
X-1938072Y-88530000D01*
X-1913322Y-88781290D01*
X-1840023Y-89022924D01*
X-1720993Y-89245614D01*
X-1560804Y-89440804D01*
X-1449500Y-89532149D01*
X-1668292Y-89711708D01*
X-1891354Y-89983509D01*
X-2057104Y-90293605D01*
X-2159172Y-90630079D01*
X-2193636Y-90980000D01*
X-2159172Y-91329921D01*
X-2057104Y-91666395D01*
X-1891354Y-91976491D01*
X-1831027Y-92050000D01*
X-8865000Y-92050000D01*
X-8865000Y-80880000D01*
X-1938072Y-80880000D01*
X-1925812Y-81004482D01*
X-1889502Y-81124180D01*
X-1830537Y-81234494D01*
X-1751185Y-81331185D01*
X-1654494Y-81410537D01*
X-1544180Y-81469502D01*
X-1424482Y-81505812D01*
X-1300000Y-81518072D01*
X-285750Y-81515000D01*
X-127000Y-81356250D01*
X-127000Y-79707000D01*
X127000Y-79707000D01*
X127000Y-81356250D01*
X285750Y-81515000D01*
X1300000Y-81518072D01*
X1424482Y-81505812D01*
X1544180Y-81469502D01*
X1654494Y-81410537D01*
X1751185Y-81331185D01*
X1830537Y-81234494D01*
X1889502Y-81124180D01*
X1925812Y-81004482D01*
X1938072Y-80880000D01*
X1935000Y-79865750D01*
X1776250Y-79707000D01*
X127000Y-79707000D01*
X-127000Y-79707000D01*
X-1776250Y-79707000D01*
X-1935000Y-79865750D01*
X-1938072Y-80880000D01*
X-8865000Y-80880000D01*
X-8865000Y-7010000D01*
X-2160107Y-7010000D01*
X-2183475Y-7033368D01*
%TA.AperFunction,Conductor*%
D17*
G36*
X-2183475Y-7033368D02*
G01*
X-2345990Y-7276589D01*
X-2457932Y-7546842D01*
X-2515000Y-7833740D01*
X-2515000Y-8126260D01*
X-2457932Y-8413158D01*
X-2345990Y-8683411D01*
X-2183475Y-8926632D01*
X-1976632Y-9133475D01*
X-1802240Y-9250000D01*
X-1976632Y-9366525D01*
X-2183475Y-9573368D01*
X-2345990Y-9816589D01*
X-2457932Y-10086842D01*
X-2515000Y-10373740D01*
X-2515000Y-10666260D01*
X-2471210Y-10886408D01*
X-6860997Y-15276196D01*
X-6890001Y-15299999D01*
X-6945129Y-15367174D01*
X-6984974Y-15415724D01*
X-7005294Y-15453740D01*
X-7055546Y-15547754D01*
X-7099003Y-15691015D01*
X-7110000Y-15802668D01*
X-7110000Y-15802678D01*
X-7113676Y-15840000D01*
X-7110000Y-15877322D01*
X-7109999Y-69592667D01*
X-7113676Y-69630000D01*
X-7099002Y-69778985D01*
X-7055546Y-69922246D01*
X-6984974Y-70054276D01*
X-6914816Y-70139763D01*
X-6890000Y-70170001D01*
X-6861002Y-70193799D01*
X-1954032Y-75100770D01*
X-2057104Y-75293605D01*
X-2159172Y-75630079D01*
X-2193636Y-75980000D01*
X-2159172Y-76329921D01*
X-2057104Y-76666395D01*
X-1891354Y-76976491D01*
X-1668292Y-77248292D01*
X-1396491Y-77471354D01*
X-1086395Y-77637104D01*
X-1068178Y-77642630D01*
X-1300000Y-77641928D01*
X-1424482Y-77654188D01*
X-1544180Y-77690498D01*
X-1654494Y-77749463D01*
X-1751185Y-77828815D01*
X-1830537Y-77925506D01*
X-1889502Y-78035820D01*
X-1925812Y-78155518D01*
X-1938072Y-78280000D01*
X-1935000Y-79294250D01*
X-1776250Y-79453000D01*
X-127000Y-79453000D01*
X-127000Y-79433000D01*
X127000Y-79433000D01*
X127000Y-79453000D01*
X1776250Y-79453000D01*
X1935000Y-79294250D01*
X1938072Y-78280000D01*
X1925812Y-78155518D01*
X1889502Y-78035820D01*
X1830537Y-77925506D01*
X1751185Y-77828815D01*
X1654494Y-77749463D01*
X1544180Y-77690498D01*
X1424482Y-77654188D01*
X1300000Y-77641928D01*
X1068178Y-77642630D01*
X1086395Y-77637104D01*
X1396491Y-77471354D01*
X1668292Y-77248292D01*
X1891354Y-76976491D01*
X2057104Y-76666395D01*
X2159172Y-76329921D01*
X2193636Y-75980000D01*
X2159172Y-75630079D01*
X2057104Y-75293605D01*
X1891354Y-74983509D01*
X1668292Y-74711708D01*
X1449500Y-74532149D01*
X1560804Y-74440804D01*
X1720993Y-74245614D01*
X1840023Y-74022924D01*
X1913322Y-73781290D01*
X1938072Y-73530000D01*
X1938072Y-72230000D01*
X1913322Y-71978710D01*
X1840023Y-71737076D01*
X1720993Y-71514386D01*
X1560804Y-71319196D01*
X1408003Y-71193795D01*
X1703649Y-70898149D01*
X1943680Y-70538918D01*
X2109015Y-70139763D01*
X2193303Y-69716021D01*
X2193303Y-69283979D01*
X2109015Y-68860237D01*
X1943680Y-68461082D01*
X1703649Y-68101851D01*
X1398149Y-67796351D01*
X1038918Y-67556320D01*
X639763Y-67390985D01*
X216021Y-67306697D01*
X-216021Y-67306697D01*
X-639763Y-67390985D01*
X-1038918Y-67556320D01*
X-1398149Y-67796351D01*
X-1703649Y-68101851D01*
X-1943680Y-68461082D01*
X-2109015Y-68860237D01*
X-2193303Y-69283979D01*
X-2193303Y-69716021D01*
X-2109015Y-70139763D01*
X-1943680Y-70538918D01*
X-1703649Y-70898149D01*
X-1408003Y-71193795D01*
X-1560804Y-71319196D01*
X-1720993Y-71514386D01*
X-1840023Y-71737076D01*
X-1913322Y-71978710D01*
X-1938072Y-72230000D01*
X-1938072Y-72967126D01*
X-5590000Y-69315199D01*
X-5590000Y-65880000D01*
X-1938072Y-65880000D01*
X-1925812Y-66004482D01*
X-1889502Y-66124180D01*
X-1830537Y-66234494D01*
X-1751185Y-66331185D01*
X-1654494Y-66410537D01*
X-1544180Y-66469502D01*
X-1424482Y-66505812D01*
X-1300000Y-66518072D01*
X-285750Y-66515000D01*
X-127000Y-66356250D01*
X-127000Y-64707000D01*
X127000Y-64707000D01*
X127000Y-66356250D01*
X285750Y-66515000D01*
X1300000Y-66518072D01*
X1424482Y-66505812D01*
X1544180Y-66469502D01*
X1654494Y-66410537D01*
X1751185Y-66331185D01*
X1830537Y-66234494D01*
X1889502Y-66124180D01*
X1925812Y-66004482D01*
X1938072Y-65880000D01*
X1935000Y-64865750D01*
X1776250Y-64707000D01*
X127000Y-64707000D01*
X-127000Y-64707000D01*
X-1776250Y-64707000D01*
X-1935000Y-64865750D01*
X-1938072Y-65880000D01*
X-5590000Y-65880000D01*
X-5590000Y-60980000D01*
X-2193636Y-60980000D01*
X-2159172Y-61329921D01*
X-2057104Y-61666395D01*
X-1891354Y-61976491D01*
X-1668292Y-62248292D01*
X-1396491Y-62471354D01*
X-1086395Y-62637104D01*
X-1068178Y-62642630D01*
X-1300000Y-62641928D01*
X-1424482Y-62654188D01*
X-1544180Y-62690498D01*
X-1654494Y-62749463D01*
X-1751185Y-62828815D01*
X-1830537Y-62925506D01*
X-1889502Y-63035820D01*
X-1925812Y-63155518D01*
X-1938072Y-63280000D01*
X-1935000Y-64294250D01*
X-1776250Y-64453000D01*
X-127000Y-64453000D01*
X-127000Y-64433000D01*
X127000Y-64433000D01*
X127000Y-64453000D01*
X1776250Y-64453000D01*
X1935000Y-64294250D01*
X1938072Y-63280000D01*
X1925812Y-63155518D01*
X1889502Y-63035820D01*
X1830537Y-62925506D01*
X1751185Y-62828815D01*
X1654494Y-62749463D01*
X1544180Y-62690498D01*
X1424482Y-62654188D01*
X1300000Y-62641928D01*
X1068178Y-62642630D01*
X1086395Y-62637104D01*
X1396491Y-62471354D01*
X1668292Y-62248292D01*
X1891354Y-61976491D01*
X2057104Y-61666395D01*
X2159172Y-61329921D01*
X2193636Y-60980000D01*
X2159172Y-60630079D01*
X2057104Y-60293605D01*
X1891354Y-59983509D01*
X1668292Y-59711708D01*
X1449500Y-59532149D01*
X1560804Y-59440804D01*
X1720993Y-59245614D01*
X1840023Y-59022924D01*
X1913322Y-58781290D01*
X1938072Y-58530000D01*
X1938072Y-57230000D01*
X1913322Y-56978710D01*
X1840023Y-56737076D01*
X1720993Y-56514386D01*
X1560804Y-56319196D01*
X1408003Y-56193795D01*
X1703649Y-55898149D01*
X1943680Y-55538918D01*
X2109015Y-55139763D01*
X2193303Y-54716021D01*
X2193303Y-54283979D01*
X2109015Y-53860237D01*
X1943680Y-53461082D01*
X1703649Y-53101851D01*
X1398149Y-52796351D01*
X1038918Y-52556320D01*
X639763Y-52390985D01*
X216021Y-52306697D01*
X-216021Y-52306697D01*
X-639763Y-52390985D01*
X-1038918Y-52556320D01*
X-1398149Y-52796351D01*
X-1703649Y-53101851D01*
X-1943680Y-53461082D01*
X-2109015Y-53860237D01*
X-2193303Y-54283979D01*
X-2193303Y-54716021D01*
X-2109015Y-55139763D01*
X-1943680Y-55538918D01*
X-1703649Y-55898149D01*
X-1408003Y-56193795D01*
X-1560804Y-56319196D01*
X-1720993Y-56514386D01*
X-1840023Y-56737076D01*
X-1913322Y-56978710D01*
X-1938072Y-57230000D01*
X-1938072Y-58530000D01*
X-1913322Y-58781290D01*
X-1840023Y-59022924D01*
X-1720993Y-59245614D01*
X-1560804Y-59440804D01*
X-1449500Y-59532149D01*
X-1668292Y-59711708D01*
X-1891354Y-59983509D01*
X-2057104Y-60293605D01*
X-2159172Y-60630079D01*
X-2193636Y-60980000D01*
X-5590000Y-60980000D01*
X-5590000Y-50880000D01*
X-1938072Y-50880000D01*
X-1925812Y-51004482D01*
X-1889502Y-51124180D01*
X-1830537Y-51234494D01*
X-1751185Y-51331185D01*
X-1654494Y-51410537D01*
X-1544180Y-51469502D01*
X-1424482Y-51505812D01*
X-1300000Y-51518072D01*
X-285750Y-51515000D01*
X-127000Y-51356250D01*
X-127000Y-49707000D01*
X127000Y-49707000D01*
X127000Y-51356250D01*
X285750Y-51515000D01*
X1300000Y-51518072D01*
X1424482Y-51505812D01*
X1544180Y-51469502D01*
X1654494Y-51410537D01*
X1751185Y-51331185D01*
X1830537Y-51234494D01*
X1889502Y-51124180D01*
X1925812Y-51004482D01*
X1938072Y-50880000D01*
X1935000Y-49865750D01*
X1776250Y-49707000D01*
X127000Y-49707000D01*
X-127000Y-49707000D01*
X-1776250Y-49707000D01*
X-1935000Y-49865750D01*
X-1938072Y-50880000D01*
X-5590000Y-50880000D01*
X-5590000Y-22225000D01*
X-4573676Y-22225000D01*
X-4570000Y-22262322D01*
X-4569999Y-43142667D01*
X-4573676Y-43180000D01*
X-4559002Y-43328985D01*
X-4515546Y-43472246D01*
X-4444974Y-43604276D01*
X-4373799Y-43691002D01*
X-4350000Y-43720001D01*
X-4321002Y-43743799D01*
X-2183878Y-45880924D01*
X-2193636Y-45980000D01*
X-2159172Y-46329921D01*
X-2057104Y-46666395D01*
X-1891354Y-46976491D01*
X-1668292Y-47248292D01*
X-1396491Y-47471354D01*
X-1086395Y-47637104D01*
X-1068178Y-47642630D01*
X-1300000Y-47641928D01*
X-1424482Y-47654188D01*
X-1544180Y-47690498D01*
X-1654494Y-47749463D01*
X-1751185Y-47828815D01*
X-1830537Y-47925506D01*
X-1889502Y-48035820D01*
X-1925812Y-48155518D01*
X-1938072Y-48280000D01*
X-1935000Y-49294250D01*
X-1776250Y-49453000D01*
X-127000Y-49453000D01*
X-127000Y-49433000D01*
X127000Y-49433000D01*
X127000Y-49453000D01*
X1776250Y-49453000D01*
X1935000Y-49294250D01*
X1938072Y-48280000D01*
X1925812Y-48155518D01*
X1889502Y-48035820D01*
X1830537Y-47925506D01*
X1751185Y-47828815D01*
X1654494Y-47749463D01*
X1544180Y-47690498D01*
X1424482Y-47654188D01*
X1300000Y-47641928D01*
X1068178Y-47642630D01*
X1086395Y-47637104D01*
X1396491Y-47471354D01*
X1668292Y-47248292D01*
X1891354Y-46976491D01*
X2057104Y-46666395D01*
X2159172Y-46329921D01*
X2193636Y-45980000D01*
X2159172Y-45630079D01*
X2057104Y-45293605D01*
X1891354Y-44983509D01*
X1668292Y-44711708D01*
X1449500Y-44532149D01*
X1560804Y-44440804D01*
X1720993Y-44245614D01*
X1840023Y-44022924D01*
X1913322Y-43781290D01*
X1938072Y-43530000D01*
X1938072Y-42230000D01*
X1913322Y-41978710D01*
X1840023Y-41737076D01*
X1720993Y-41514386D01*
X1560804Y-41319196D01*
X1408003Y-41193795D01*
X1703649Y-40898149D01*
X1943680Y-40538918D01*
X2109015Y-40139763D01*
X2193303Y-39716021D01*
X2193303Y-39283979D01*
X2109015Y-38860237D01*
X1943680Y-38461082D01*
X1703649Y-38101851D01*
X1398149Y-37796351D01*
X1038918Y-37556320D01*
X639763Y-37390985D01*
X216021Y-37306697D01*
X-216021Y-37306697D01*
X-639763Y-37390985D01*
X-1038918Y-37556320D01*
X-1398149Y-37796351D01*
X-1703649Y-38101851D01*
X-1943680Y-38461082D01*
X-2109015Y-38860237D01*
X-2193303Y-39283979D01*
X-2193303Y-39716021D01*
X-2109015Y-40139763D01*
X-1943680Y-40538918D01*
X-1703649Y-40898149D01*
X-1408003Y-41193795D01*
X-1560804Y-41319196D01*
X-1720993Y-41514386D01*
X-1840023Y-41737076D01*
X-1913322Y-41978710D01*
X-1938072Y-42230000D01*
X-1938072Y-43530000D01*
X-1913322Y-43781290D01*
X-1840023Y-44022924D01*
X-1780024Y-44135174D01*
X-3050000Y-42865199D01*
X-3050000Y-35880000D01*
X-1938072Y-35880000D01*
X-1925812Y-36004482D01*
X-1889502Y-36124180D01*
X-1830537Y-36234494D01*
X-1751185Y-36331185D01*
X-1654494Y-36410537D01*
X-1544180Y-36469502D01*
X-1424482Y-36505812D01*
X-1300000Y-36518072D01*
X-285750Y-36515000D01*
X-127000Y-36356250D01*
X-127000Y-34707000D01*
X127000Y-34707000D01*
X127000Y-36356250D01*
X285750Y-36515000D01*
X1300000Y-36518072D01*
X1424482Y-36505812D01*
X1544180Y-36469502D01*
X1654494Y-36410537D01*
X1751185Y-36331185D01*
X1830537Y-36234494D01*
X1889502Y-36124180D01*
X1925812Y-36004482D01*
X1938072Y-35880000D01*
X1935000Y-34865750D01*
X1776250Y-34707000D01*
X127000Y-34707000D01*
X-127000Y-34707000D01*
X-1776250Y-34707000D01*
X-1935000Y-34865750D01*
X-1938072Y-35880000D01*
X-3050000Y-35880000D01*
X-3050000Y-33280000D01*
X-1938072Y-33280000D01*
X-1935000Y-34294250D01*
X-1776250Y-34453000D01*
X-127000Y-34453000D01*
X-127000Y-32803750D01*
X127000Y-32803750D01*
X127000Y-34453000D01*
X1776250Y-34453000D01*
X1935000Y-34294250D01*
X1938072Y-33280000D01*
X1925812Y-33155518D01*
X1889502Y-33035820D01*
X1830537Y-32925506D01*
X1751185Y-32828815D01*
X1654494Y-32749463D01*
X1544180Y-32690498D01*
X1424482Y-32654188D01*
X1300000Y-32641928D01*
X285750Y-32645000D01*
X127000Y-32803750D01*
X-127000Y-32803750D01*
X-285750Y-32645000D01*
X-1300000Y-32641928D01*
X-1424482Y-32654188D01*
X-1544180Y-32690498D01*
X-1654494Y-32749463D01*
X-1751185Y-32828815D01*
X-1830537Y-32925506D01*
X-1889502Y-33035820D01*
X-1925812Y-33155518D01*
X-1938072Y-33280000D01*
X-3050000Y-33280000D01*
X-3050000Y-22539801D01*
X-1740571Y-21230374D01*
X-1574902Y-21540317D01*
X-1339344Y-21827345D01*
X-1052316Y-22062903D01*
X-724847Y-22237939D01*
X-559818Y-22288000D01*
X-724848Y-22338061D01*
X-1052317Y-22513097D01*
X-1339345Y-22748655D01*
X-1574903Y-23035683D01*
X-1749939Y-23363153D01*
X-1857725Y-23718477D01*
X-1885000Y-23995404D01*
X-1885000Y-25280597D01*
X-1857725Y-25557524D01*
X-1749939Y-25912848D01*
X-1574902Y-26240317D01*
X-1339344Y-26527345D01*
X-1052316Y-26762903D01*
X-724847Y-26937939D01*
X-559818Y-26988000D01*
X-724848Y-27038061D01*
X-1052317Y-27213097D01*
X-1339345Y-27448655D01*
X-1574903Y-27735683D01*
X-1749939Y-28063153D01*
X-1857725Y-28418477D01*
X-1885000Y-28695404D01*
X-1885000Y-29980597D01*
X-1857725Y-30257524D01*
X-1749939Y-30612848D01*
X-1574902Y-30940317D01*
X-1339344Y-31227345D01*
X-1052316Y-31462903D01*
X-724847Y-31637939D01*
X-369523Y-31745725D01*
X0Y-31782120D01*
X369524Y-31745725D01*
X724848Y-31637939D01*
X1052317Y-31462903D01*
X1339345Y-31227345D01*
X1574903Y-30940317D01*
X1749939Y-30612848D01*
X1857725Y-30257524D01*
X1885000Y-29980597D01*
X1885000Y-28695403D01*
X1857725Y-28418476D01*
X1749939Y-28063152D01*
X1574903Y-27735683D01*
X1339345Y-27448655D01*
X1052317Y-27213097D01*
X724847Y-27038061D01*
X559818Y-26988000D01*
X724848Y-26937939D01*
X1052317Y-26762903D01*
X1339345Y-26527345D01*
X1574903Y-26240317D01*
X1749939Y-25912848D01*
X1857725Y-25557524D01*
X1885000Y-25280597D01*
X1885000Y-23995403D01*
X1857725Y-23718476D01*
X1749939Y-23363152D01*
X1574903Y-23035683D01*
X1339345Y-22748655D01*
X1052317Y-22513097D01*
X724847Y-22338061D01*
X559818Y-22288000D01*
X724848Y-22237939D01*
X1052317Y-22062903D01*
X1339345Y-21827345D01*
X1574903Y-21540317D01*
X1749939Y-21212848D01*
X1857725Y-20857524D01*
X1885000Y-20580597D01*
X1885000Y-19295403D01*
X1857725Y-19018476D01*
X1749939Y-18663152D01*
X1574903Y-18335683D01*
X1339345Y-18048655D01*
X1052317Y-17813097D01*
X724847Y-17638061D01*
X369523Y-17530275D01*
X0Y-17493880D01*
X-369524Y-17530275D01*
X-724848Y-17638061D01*
X-1052317Y-17813097D01*
X-1339345Y-18048655D01*
X-1574903Y-18335683D01*
X-1749939Y-18663153D01*
X-1857725Y-19018477D01*
X-1882332Y-19268312D01*
X-1947276Y-19303026D01*
X-1947278Y-19303027D01*
X-1947277Y-19303027D01*
X-2034004Y-19374201D01*
X-2034008Y-19374205D01*
X-2063001Y-19397999D01*
X-2086795Y-19426992D01*
X-4320998Y-21661196D01*
X-4350001Y-21684999D01*
X-4405129Y-21752174D01*
X-4444974Y-21800724D01*
X-4459203Y-21827345D01*
X-4515546Y-21932754D01*
X-4559003Y-22076015D01*
X-4570000Y-22187668D01*
X-4570000Y-22187678D01*
X-4573676Y-22225000D01*
X-5590000Y-22225000D01*
X-5590000Y-16154801D01*
X-2515000Y-13079802D01*
X-2515000Y-13206260D01*
X-2457932Y-13493158D01*
X-2345990Y-13763411D01*
X-2183475Y-14006632D01*
X-1976632Y-14213475D01*
X-1802240Y-14330000D01*
X-1976632Y-14446525D01*
X-2183475Y-14653368D01*
X-2345990Y-14896589D01*
X-2457932Y-15166842D01*
X-2515000Y-15453740D01*
X-2515000Y-15746260D01*
X-2457932Y-16033158D01*
X-2345990Y-16303411D01*
X-2183475Y-16546632D01*
X-1976632Y-16753475D01*
X-1733411Y-16915990D01*
X-1463158Y-17027932D01*
X-1176260Y-17085000D01*
X-883740Y-17085000D01*
X-596842Y-17027932D01*
X-326589Y-16915990D01*
X-83368Y-16753475D01*
X48487Y-16621620D01*
X70498Y-16694180D01*
X129463Y-16804494D01*
X208815Y-16901185D01*
X305506Y-16980537D01*
X415820Y-17039502D01*
X535518Y-17075812D01*
X660000Y-17088072D01*
X1224250Y-17085000D01*
X1383000Y-16926250D01*
X1383000Y-15727000D01*
X1637000Y-15727000D01*
X1637000Y-16926250D01*
X1795750Y-17085000D01*
X2360000Y-17088072D01*
X2484482Y-17075812D01*
X2604180Y-17039502D01*
X2714494Y-16980537D01*
X2811185Y-16901185D01*
X2890537Y-16804494D01*
X2949502Y-16694180D01*
X2985812Y-16574482D01*
X2998072Y-16450000D01*
X2995000Y-15885750D01*
X2836250Y-15727000D01*
X1637000Y-15727000D01*
X1383000Y-15727000D01*
X1363000Y-15727000D01*
X1363000Y-15473000D01*
X1383000Y-15473000D01*
X1383000Y-13187000D01*
X1637000Y-13187000D01*
X1637000Y-15473000D01*
X2836250Y-15473000D01*
X2995000Y-15314250D01*
X2998072Y-14750000D01*
X2985812Y-14625518D01*
X2949502Y-14505820D01*
X2890537Y-14395506D01*
X2811185Y-14298815D01*
X2714494Y-14219463D01*
X2604180Y-14160498D01*
X2523534Y-14136034D01*
X2607588Y-14060269D01*
X2781641Y-13826920D01*
X2906825Y-13564099D01*
X2951476Y-13416890D01*
X2830155Y-13187000D01*
X1637000Y-13187000D01*
X1383000Y-13187000D01*
X1363000Y-13187000D01*
X1363000Y-12933000D01*
X1383000Y-12933000D01*
X1383000Y-10647000D01*
X1637000Y-10647000D01*
X1637000Y-12933000D01*
X2830155Y-12933000D01*
X2951476Y-12703110D01*
X2906825Y-12555901D01*
X2781641Y-12293080D01*
X2607588Y-12059731D01*
X2391355Y-11864822D01*
X2265745Y-11790000D01*
X2391355Y-11715178D01*
X2607588Y-11520269D01*
X2781641Y-11286920D01*
X2906825Y-11024099D01*
X2951476Y-10876890D01*
X2830155Y-10647000D01*
X1637000Y-10647000D01*
X1383000Y-10647000D01*
X1363000Y-10647000D01*
X1363000Y-10393000D01*
X1383000Y-10393000D01*
X1383000Y-8107000D01*
X1637000Y-8107000D01*
X1637000Y-10393000D01*
X2830155Y-10393000D01*
X2951476Y-10163110D01*
X2906825Y-10015901D01*
X2781641Y-9753080D01*
X2607588Y-9519731D01*
X2391355Y-9324822D01*
X2265745Y-9250000D01*
X2391355Y-9175178D01*
X2607588Y-8980269D01*
X2781641Y-8746920D01*
X2906825Y-8484099D01*
X2951476Y-8336890D01*
X2830155Y-8107000D01*
X1637000Y-8107000D01*
X1383000Y-8107000D01*
X1363000Y-8107000D01*
X1363000Y-7853000D01*
X1383000Y-7853000D01*
X1383000Y-7833000D01*
X1637000Y-7833000D01*
X1637000Y-7853000D01*
X2830155Y-7853000D01*
X2951476Y-7623110D01*
X2906825Y-7475901D01*
X2781641Y-7213080D01*
X2630165Y-7010000D01*
X3785000Y-7010000D01*
X3785001Y-92050000D01*
X1831027Y-92050000D01*
X1891354Y-91976491D01*
X2057104Y-91666395D01*
X2159172Y-91329921D01*
X2193636Y-90980000D01*
X2159172Y-90630079D01*
X2057104Y-90293605D01*
X1891354Y-89983509D01*
X1668292Y-89711708D01*
X1449500Y-89532149D01*
X1560804Y-89440804D01*
X1720993Y-89245614D01*
X1840023Y-89022924D01*
X1913322Y-88781290D01*
X1938072Y-88530000D01*
X1938072Y-87230000D01*
X1913322Y-86978710D01*
X1840023Y-86737076D01*
X1720993Y-86514386D01*
X1560804Y-86319196D01*
X1408003Y-86193795D01*
X1703649Y-85898149D01*
X1943680Y-85538918D01*
X2109015Y-85139763D01*
X2193303Y-84716021D01*
X2193303Y-84283979D01*
X2109015Y-83860237D01*
X1943680Y-83461082D01*
X1703649Y-83101851D01*
X1398149Y-82796351D01*
X1038918Y-82556320D01*
X639763Y-82390985D01*
X216021Y-82306697D01*
X-216021Y-82306697D01*
X-639763Y-82390985D01*
X-1038918Y-82556320D01*
X-1398149Y-82796351D01*
X-1703649Y-83101851D01*
X-1943680Y-83461082D01*
X-2109015Y-83860237D01*
X-2193303Y-84283979D01*
X-2193303Y-84716021D01*
X-2109015Y-85139763D01*
X-1943680Y-85538918D01*
X-1703649Y-85898149D01*
X-1408003Y-86193795D01*
X-1560804Y-86319196D01*
X-1720993Y-86514386D01*
X-1840023Y-86737076D01*
X-1913322Y-86978710D01*
X-1938072Y-87230000D01*
X-1938072Y-88530000D01*
X-1913322Y-88781290D01*
X-1840023Y-89022924D01*
X-1720993Y-89245614D01*
X-1560804Y-89440804D01*
X-1449500Y-89532149D01*
X-1668292Y-89711708D01*
X-1891354Y-89983509D01*
X-2057104Y-90293605D01*
X-2159172Y-90630079D01*
X-2193636Y-90980000D01*
X-2159172Y-91329921D01*
X-2057104Y-91666395D01*
X-1891354Y-91976491D01*
X-1831027Y-92050000D01*
X-8865000Y-92050000D01*
X-8865000Y-80880000D01*
X-1938072Y-80880000D01*
X-1925812Y-81004482D01*
X-1889502Y-81124180D01*
X-1830537Y-81234494D01*
X-1751185Y-81331185D01*
X-1654494Y-81410537D01*
X-1544180Y-81469502D01*
X-1424482Y-81505812D01*
X-1300000Y-81518072D01*
X-285750Y-81515000D01*
X-127000Y-81356250D01*
X-127000Y-79707000D01*
X127000Y-79707000D01*
X127000Y-81356250D01*
X285750Y-81515000D01*
X1300000Y-81518072D01*
X1424482Y-81505812D01*
X1544180Y-81469502D01*
X1654494Y-81410537D01*
X1751185Y-81331185D01*
X1830537Y-81234494D01*
X1889502Y-81124180D01*
X1925812Y-81004482D01*
X1938072Y-80880000D01*
X1935000Y-79865750D01*
X1776250Y-79707000D01*
X127000Y-79707000D01*
X-127000Y-79707000D01*
X-1776250Y-79707000D01*
X-1935000Y-79865750D01*
X-1938072Y-80880000D01*
X-8865000Y-80880000D01*
X-8865000Y-7010000D01*
X-2160107Y-7010000D01*
X-2183475Y-7033368D01*
G37*
%TD.AperFunction*%
%TD*%
M02*
