%TF.GenerationSoftware,KiCad,Pcbnew,(5.1.12-1-10_14)*%
%TF.CreationDate,2021-12-28T18:28:33+00:00*%
%TF.ProjectId,pocket-operator-eurorack-connector-board,706f636b-6574-42d6-9f70-657261746f72,rev?*%
%TF.SameCoordinates,Original*%
%TF.FileFunction,Legend,Bot*%
%TF.FilePolarity,Positive*%
%FSLAX46Y46*%
G04 Gerber Fmt 4.6, Leading zero omitted, Abs format (unit mm)*
G04 Created by KiCad (PCBNEW (5.1.12-1-10_14)) date 2021-12-28 18:28:33*
%MOMM*%
%LPD*%
G01*
G04 APERTURE LIST*
%ADD10C,0.010000*%
G04 APERTURE END LIST*
D10*
%TO.C,G\u002A\u002A\u002A*%
G36*
X-8041785Y-80893977D02*
G01*
X-7879543Y-80983959D01*
X-7497028Y-81020688D01*
X-7070552Y-81026000D01*
X-6030605Y-81026000D01*
X-6397979Y-81541929D01*
X-6784652Y-82352071D01*
X-6851102Y-83209718D01*
X-6592581Y-84052694D01*
X-6590099Y-84057467D01*
X-6237400Y-84734134D01*
X-7119200Y-84785067D01*
X-7642777Y-84834047D01*
X-7908459Y-84926268D01*
X-7996935Y-85097378D01*
X-8001000Y-85174667D01*
X-7974563Y-85328701D01*
X-7855133Y-85433030D01*
X-7582527Y-85502312D01*
X-7096563Y-85551206D01*
X-6337061Y-85594370D01*
X-6262976Y-85598000D01*
X-4524952Y-85682667D01*
X-6322188Y-87590894D01*
X-7112385Y-88453907D01*
X-7660696Y-89107553D01*
X-7963061Y-89546664D01*
X-8021350Y-89754695D01*
X-7931919Y-89858026D01*
X-7723088Y-89926647D01*
X-7343428Y-89964970D01*
X-6741507Y-89977406D01*
X-5865894Y-89968368D01*
X-5591472Y-89963134D01*
X-3259666Y-89916000D01*
X-3214647Y-85212716D01*
X-3203830Y-83776453D01*
X-3202827Y-82645842D01*
X-3212862Y-81787981D01*
X-3235162Y-81169963D01*
X-3270950Y-80758885D01*
X-3321453Y-80521842D01*
X-3387894Y-80425929D01*
X-3392936Y-80423741D01*
X-3639382Y-80394985D01*
X-4152493Y-80377906D01*
X-4382672Y-80376518D01*
X-4382672Y-81026000D01*
X-3852333Y-81026000D01*
X-3852333Y-84751333D01*
X-3979333Y-84751333D01*
X-3979333Y-86303555D01*
X-3923843Y-86434447D01*
X-3880651Y-86832384D01*
X-3855889Y-87425801D01*
X-3852333Y-87785222D01*
X-3852333Y-89323333D01*
X-5291666Y-89323333D01*
X-5942113Y-89310858D01*
X-6439572Y-89277569D01*
X-6706301Y-89229668D01*
X-6731000Y-89208491D01*
X-6621187Y-89051321D01*
X-6329931Y-88714384D01*
X-5914502Y-88258143D01*
X-5432174Y-87743059D01*
X-4940218Y-87229595D01*
X-4495906Y-86778213D01*
X-4156511Y-86449374D01*
X-3979333Y-86303555D01*
X-3979333Y-84751333D01*
X-4411782Y-84751333D01*
X-4915969Y-84650431D01*
X-5392990Y-84306680D01*
X-5498100Y-84201000D01*
X-5969484Y-83531653D01*
X-6102399Y-82860024D01*
X-5896830Y-82183304D01*
X-5483339Y-81630723D01*
X-4997541Y-81206940D01*
X-4545190Y-81036379D01*
X-4382672Y-81026000D01*
X-4382672Y-80376518D01*
X-4860430Y-80373637D01*
X-5691353Y-80383310D01*
X-5806545Y-80385691D01*
X-6713051Y-80410182D01*
X-7335129Y-80442781D01*
X-7727020Y-80491790D01*
X-7942963Y-80565513D01*
X-8037197Y-80672251D01*
X-8053673Y-80729667D01*
X-8041785Y-80893977D01*
G37*
X-8041785Y-80893977D02*
X-7879543Y-80983959D01*
X-7497028Y-81020688D01*
X-7070552Y-81026000D01*
X-6030605Y-81026000D01*
X-6397979Y-81541929D01*
X-6784652Y-82352071D01*
X-6851102Y-83209718D01*
X-6592581Y-84052694D01*
X-6590099Y-84057467D01*
X-6237400Y-84734134D01*
X-7119200Y-84785067D01*
X-7642777Y-84834047D01*
X-7908459Y-84926268D01*
X-7996935Y-85097378D01*
X-8001000Y-85174667D01*
X-7974563Y-85328701D01*
X-7855133Y-85433030D01*
X-7582527Y-85502312D01*
X-7096563Y-85551206D01*
X-6337061Y-85594370D01*
X-6262976Y-85598000D01*
X-4524952Y-85682667D01*
X-6322188Y-87590894D01*
X-7112385Y-88453907D01*
X-7660696Y-89107553D01*
X-7963061Y-89546664D01*
X-8021350Y-89754695D01*
X-7931919Y-89858026D01*
X-7723088Y-89926647D01*
X-7343428Y-89964970D01*
X-6741507Y-89977406D01*
X-5865894Y-89968368D01*
X-5591472Y-89963134D01*
X-3259666Y-89916000D01*
X-3214647Y-85212716D01*
X-3203830Y-83776453D01*
X-3202827Y-82645842D01*
X-3212862Y-81787981D01*
X-3235162Y-81169963D01*
X-3270950Y-80758885D01*
X-3321453Y-80521842D01*
X-3387894Y-80425929D01*
X-3392936Y-80423741D01*
X-3639382Y-80394985D01*
X-4152493Y-80377906D01*
X-4382672Y-80376518D01*
X-4382672Y-81026000D01*
X-3852333Y-81026000D01*
X-3852333Y-84751333D01*
X-3979333Y-84751333D01*
X-3979333Y-86303555D01*
X-3923843Y-86434447D01*
X-3880651Y-86832384D01*
X-3855889Y-87425801D01*
X-3852333Y-87785222D01*
X-3852333Y-89323333D01*
X-5291666Y-89323333D01*
X-5942113Y-89310858D01*
X-6439572Y-89277569D01*
X-6706301Y-89229668D01*
X-6731000Y-89208491D01*
X-6621187Y-89051321D01*
X-6329931Y-88714384D01*
X-5914502Y-88258143D01*
X-5432174Y-87743059D01*
X-4940218Y-87229595D01*
X-4495906Y-86778213D01*
X-4156511Y-86449374D01*
X-3979333Y-86303555D01*
X-3979333Y-84751333D01*
X-4411782Y-84751333D01*
X-4915969Y-84650431D01*
X-5392990Y-84306680D01*
X-5498100Y-84201000D01*
X-5969484Y-83531653D01*
X-6102399Y-82860024D01*
X-5896830Y-82183304D01*
X-5483339Y-81630723D01*
X-4997541Y-81206940D01*
X-4545190Y-81036379D01*
X-4382672Y-81026000D01*
X-4382672Y-80376518D01*
X-4860430Y-80373637D01*
X-5691353Y-80383310D01*
X-5806545Y-80385691D01*
X-6713051Y-80410182D01*
X-7335129Y-80442781D01*
X-7727020Y-80491790D01*
X-7942963Y-80565513D01*
X-8037197Y-80672251D01*
X-8053673Y-80729667D01*
X-8041785Y-80893977D01*
%TD*%
M02*
