M48
; DRILL file {KiCad (5.1.12-1-10_14)} date Tuesday, 28 December 2021 at 18:28:37
; FORMAT={-:-/ absolute / metric / decimal}
; #@! TF.CreationDate,2021-12-28T18:28:37+00:00
; #@! TF.GenerationSoftware,Kicad,Pcbnew,(5.1.12-1-10_14)
FMAT,2
METRIC
T1C0.400
T2C0.600
T3C1.000
T4C1.850
%
G90
G05
T1
X-8.255Y-16.51
X-8.255Y-21.59
X-8.255Y-26.67
X-8.255Y-32.385
X-8.255Y-39.37
X-8.255Y-44.45
X-8.255Y-50.165
X-8.255Y-54.61
X-8.255Y-59.69
X-8.255Y-65.405
X-8.255Y-70.485
X-8.255Y-76.835
X-8.255Y-81.28
X-7.62Y-8.89
X-7.62Y-11.43
X-6.35Y-90.17
X-5.08Y-8.89
X-5.08Y-82.55
X-2.54Y-27.94
T3
X-1.03Y-7.98
X-1.03Y-10.52
X-1.03Y-13.06
X-1.03Y-15.6
X1.51Y-7.98
X1.51Y-10.52
X1.51Y-13.06
X1.51Y-15.6
T4
X0.0Y-19.938
X0.0Y-24.638
X0.0Y-29.338
T2
G00X-0.5Y-34.58
M15
G01X0.5Y-34.58
M16
G05
G00X-0.5Y-42.88
M15
G01X0.5Y-42.88
M16
G05
G00X-0.5Y-45.98
M15
G01X0.5Y-45.98
M16
G05
G00X-0.5Y-49.58
M15
G01X0.5Y-49.58
M16
G05
G00X-0.5Y-57.88
M15
G01X0.5Y-57.88
M16
G05
G00X-0.5Y-60.98
M15
G01X0.5Y-60.98
M16
G05
G00X-0.5Y-64.58
M15
G01X0.5Y-64.58
M16
G05
G00X-0.5Y-72.88
M15
G01X0.5Y-72.88
M16
G05
G00X-0.5Y-75.98
M15
G01X0.5Y-75.98
M16
G05
G00X-0.5Y-79.58
M15
G01X0.5Y-79.58
M16
G05
G00X-0.5Y-87.88
M15
G01X0.5Y-87.88
M16
G05
G00X-0.5Y-90.98
M15
G01X0.5Y-90.98
M16
G05
T0
M30
