%TF.GenerationSoftware,KiCad,Pcbnew,(5.1.12-1-10_14)*%
%TF.CreationDate,2021-12-28T18:28:33+00:00*%
%TF.ProjectId,pocket-operator-eurorack-connector-board,706f636b-6574-42d6-9f70-657261746f72,rev?*%
%TF.SameCoordinates,Original*%
%TF.FileFunction,Soldermask,Top*%
%TF.FilePolarity,Negative*%
%FSLAX46Y46*%
G04 Gerber Fmt 4.6, Leading zero omitted, Abs format (unit mm)*
G04 Created by KiCad (PCBNEW (5.1.12-1-10_14)) date 2021-12-28 18:28:33*
%MOMM*%
%LPD*%
G01*
G04 APERTURE LIST*
%ADD10O,2.500000X3.600000*%
%ADD11O,3.100000X2.300000*%
%ADD12R,1.700000X1.700000*%
%ADD13O,1.700000X1.700000*%
G04 APERTURE END LIST*
D10*
%TO.C,SW1*%
X0Y-29338000D03*
X0Y-24638000D03*
X0Y-19938000D03*
%TD*%
%TO.C,J5*%
G36*
G01*
X-1300000Y-88530000D02*
X-1300000Y-87230000D01*
G75*
G02*
X-650000Y-86580000I650000J0D01*
G01*
X650000Y-86580000D01*
G75*
G02*
X1300000Y-87230000I0J-650000D01*
G01*
X1300000Y-88530000D01*
G75*
G02*
X650000Y-89180000I-650000J0D01*
G01*
X-650000Y-89180000D01*
G75*
G02*
X-1300000Y-88530000I0J650000D01*
G01*
G37*
D11*
X0Y-90980000D03*
G36*
G01*
X-1300000Y-80230000D02*
X-1300000Y-78930000D01*
G75*
G02*
X-650000Y-78280000I650000J0D01*
G01*
X650000Y-78280000D01*
G75*
G02*
X1300000Y-78930000I0J-650000D01*
G01*
X1300000Y-80230000D01*
G75*
G02*
X650000Y-80880000I-650000J0D01*
G01*
X-650000Y-80880000D01*
G75*
G02*
X-1300000Y-80230000I0J650000D01*
G01*
G37*
%TD*%
%TO.C,J4*%
G36*
G01*
X-1300000Y-73530000D02*
X-1300000Y-72230000D01*
G75*
G02*
X-650000Y-71580000I650000J0D01*
G01*
X650000Y-71580000D01*
G75*
G02*
X1300000Y-72230000I0J-650000D01*
G01*
X1300000Y-73530000D01*
G75*
G02*
X650000Y-74180000I-650000J0D01*
G01*
X-650000Y-74180000D01*
G75*
G02*
X-1300000Y-73530000I0J650000D01*
G01*
G37*
X0Y-75980000D03*
G36*
G01*
X-1300000Y-65230000D02*
X-1300000Y-63930000D01*
G75*
G02*
X-650000Y-63280000I650000J0D01*
G01*
X650000Y-63280000D01*
G75*
G02*
X1300000Y-63930000I0J-650000D01*
G01*
X1300000Y-65230000D01*
G75*
G02*
X650000Y-65880000I-650000J0D01*
G01*
X-650000Y-65880000D01*
G75*
G02*
X-1300000Y-65230000I0J650000D01*
G01*
G37*
%TD*%
%TO.C,J3*%
G36*
G01*
X-1300000Y-58530000D02*
X-1300000Y-57230000D01*
G75*
G02*
X-650000Y-56580000I650000J0D01*
G01*
X650000Y-56580000D01*
G75*
G02*
X1300000Y-57230000I0J-650000D01*
G01*
X1300000Y-58530000D01*
G75*
G02*
X650000Y-59180000I-650000J0D01*
G01*
X-650000Y-59180000D01*
G75*
G02*
X-1300000Y-58530000I0J650000D01*
G01*
G37*
X0Y-60980000D03*
G36*
G01*
X-1300000Y-50230000D02*
X-1300000Y-48930000D01*
G75*
G02*
X-650000Y-48280000I650000J0D01*
G01*
X650000Y-48280000D01*
G75*
G02*
X1300000Y-48930000I0J-650000D01*
G01*
X1300000Y-50230000D01*
G75*
G02*
X650000Y-50880000I-650000J0D01*
G01*
X-650000Y-50880000D01*
G75*
G02*
X-1300000Y-50230000I0J650000D01*
G01*
G37*
%TD*%
D12*
%TO.C,J1*%
X1510000Y-15600000D03*
D13*
X-1030000Y-15600000D03*
X1510000Y-13060000D03*
X-1030000Y-13060000D03*
X1510000Y-10520000D03*
X-1030000Y-10520000D03*
X1510000Y-7980000D03*
X-1030000Y-7980000D03*
%TD*%
%TO.C,J2*%
G36*
G01*
X-1300000Y-35230000D02*
X-1300000Y-33930000D01*
G75*
G02*
X-650000Y-33280000I650000J0D01*
G01*
X650000Y-33280000D01*
G75*
G02*
X1300000Y-33930000I0J-650000D01*
G01*
X1300000Y-35230000D01*
G75*
G02*
X650000Y-35880000I-650000J0D01*
G01*
X-650000Y-35880000D01*
G75*
G02*
X-1300000Y-35230000I0J650000D01*
G01*
G37*
D11*
X0Y-45980000D03*
G36*
G01*
X-1300000Y-43530000D02*
X-1300000Y-42230000D01*
G75*
G02*
X-650000Y-41580000I650000J0D01*
G01*
X650000Y-41580000D01*
G75*
G02*
X1300000Y-42230000I0J-650000D01*
G01*
X1300000Y-43530000D01*
G75*
G02*
X650000Y-44180000I-650000J0D01*
G01*
X-650000Y-44180000D01*
G75*
G02*
X-1300000Y-43530000I0J650000D01*
G01*
G37*
%TD*%
M02*
