%TF.GenerationSoftware,KiCad,Pcbnew,(5.1.12-1-10_14)*%
%TF.CreationDate,2021-12-28T18:18:38+00:00*%
%TF.ProjectId,pocket-operator-eurorack,706f636b-6574-42d6-9f70-657261746f72,rev?*%
%TF.SameCoordinates,Original*%
%TF.FileFunction,Soldermask,Bot*%
%TF.FilePolarity,Negative*%
%FSLAX46Y46*%
G04 Gerber Fmt 4.6, Leading zero omitted, Abs format (unit mm)*
G04 Created by KiCad (PCBNEW (5.1.12-1-10_14)) date 2021-12-28 18:18:38*
%MOMM*%
%LPD*%
G01*
G04 APERTURE LIST*
%ADD10C,0.150000*%
%ADD11C,0.100000*%
%ADD12R,0.400000X0.800000*%
%ADD13R,1.000000X0.900000*%
%ADD14C,1.700000*%
%ADD15R,2.000000X1.500000*%
%ADD16R,2.000000X3.800000*%
%ADD17O,1.700000X1.700000*%
%ADD18R,1.700000X1.700000*%
%ADD19C,6.350000*%
%ADD20C,6.100000*%
%ADD21C,0.254000*%
G04 APERTURE END LIST*
D10*
X50401190Y-125865000D02*
X50401190Y-125817380D01*
X50353571Y-125722142D01*
X50305952Y-125674523D01*
X50782142Y-125865000D02*
X50782142Y-125817380D01*
X50734523Y-125722142D01*
X50686904Y-125674523D01*
X49972619Y-126769761D02*
X49829761Y-126817380D01*
X49591666Y-126817380D01*
X49496428Y-126769761D01*
X49448809Y-126722142D01*
X49401190Y-126626904D01*
X49401190Y-126531666D01*
X49448809Y-126436428D01*
X49496428Y-126388809D01*
X49591666Y-126341190D01*
X49782142Y-126293571D01*
X49877380Y-126245952D01*
X49925000Y-126198333D01*
X49972619Y-126103095D01*
X49972619Y-126007857D01*
X49925000Y-125912619D01*
X49877380Y-125865000D01*
X49782142Y-125817380D01*
X49544047Y-125817380D01*
X49401190Y-125865000D01*
X48544047Y-126817380D02*
X48544047Y-126293571D01*
X48591666Y-126198333D01*
X48686904Y-126150714D01*
X48877380Y-126150714D01*
X48972619Y-126198333D01*
X48544047Y-126769761D02*
X48639285Y-126817380D01*
X48877380Y-126817380D01*
X48972619Y-126769761D01*
X49020238Y-126674523D01*
X49020238Y-126579285D01*
X48972619Y-126484047D01*
X48877380Y-126436428D01*
X48639285Y-126436428D01*
X48544047Y-126388809D01*
X48067857Y-126817380D02*
X48067857Y-125817380D01*
X47972619Y-126436428D02*
X47686904Y-126817380D01*
X47686904Y-126150714D02*
X48067857Y-126531666D01*
X46829761Y-126817380D02*
X46829761Y-126293571D01*
X46877380Y-126198333D01*
X46972619Y-126150714D01*
X47163095Y-126150714D01*
X47258333Y-126198333D01*
X46829761Y-126769761D02*
X46925000Y-126817380D01*
X47163095Y-126817380D01*
X47258333Y-126769761D01*
X47305952Y-126674523D01*
X47305952Y-126579285D01*
X47258333Y-126484047D01*
X47163095Y-126436428D01*
X46925000Y-126436428D01*
X46829761Y-126388809D01*
X45591666Y-126817380D02*
X45591666Y-126150714D01*
X45591666Y-125817380D02*
X45639285Y-125865000D01*
X45591666Y-125912619D01*
X45544047Y-125865000D01*
X45591666Y-125817380D01*
X45591666Y-125912619D01*
X45163095Y-126769761D02*
X45067857Y-126817380D01*
X44877380Y-126817380D01*
X44782142Y-126769761D01*
X44734523Y-126674523D01*
X44734523Y-126626904D01*
X44782142Y-126531666D01*
X44877380Y-126484047D01*
X45020238Y-126484047D01*
X45115476Y-126436428D01*
X45163095Y-126341190D01*
X45163095Y-126293571D01*
X45115476Y-126198333D01*
X45020238Y-126150714D01*
X44877380Y-126150714D01*
X44782142Y-126198333D01*
X43544047Y-126817380D02*
X43544047Y-125817380D01*
X43544047Y-126198333D02*
X43448809Y-126150714D01*
X43258333Y-126150714D01*
X43163095Y-126198333D01*
X43115476Y-126245952D01*
X43067857Y-126341190D01*
X43067857Y-126626904D01*
X43115476Y-126722142D01*
X43163095Y-126769761D01*
X43258333Y-126817380D01*
X43448809Y-126817380D01*
X43544047Y-126769761D01*
X42210714Y-126150714D02*
X42210714Y-126817380D01*
X42639285Y-126150714D02*
X42639285Y-126674523D01*
X42591666Y-126769761D01*
X42496428Y-126817380D01*
X42353571Y-126817380D01*
X42258333Y-126769761D01*
X42210714Y-126722142D01*
X41734523Y-126817380D02*
X41734523Y-126150714D01*
X41734523Y-126341190D02*
X41686904Y-126245952D01*
X41639285Y-126198333D01*
X41544047Y-126150714D01*
X41448809Y-126150714D01*
X40686904Y-126817380D02*
X40686904Y-125817380D01*
X40686904Y-126769761D02*
X40782142Y-126817380D01*
X40972619Y-126817380D01*
X41067857Y-126769761D01*
X41115476Y-126722142D01*
X41163095Y-126626904D01*
X41163095Y-126341190D01*
X41115476Y-126245952D01*
X41067857Y-126198333D01*
X40972619Y-126150714D01*
X40782142Y-126150714D01*
X40686904Y-126198333D01*
X39829761Y-126769761D02*
X39925000Y-126817380D01*
X40115476Y-126817380D01*
X40210714Y-126769761D01*
X40258333Y-126674523D01*
X40258333Y-126293571D01*
X40210714Y-126198333D01*
X40115476Y-126150714D01*
X39925000Y-126150714D01*
X39829761Y-126198333D01*
X39782142Y-126293571D01*
X39782142Y-126388809D01*
X40258333Y-126484047D01*
X39353571Y-126150714D02*
X39353571Y-126817380D01*
X39353571Y-126245952D02*
X39305952Y-126198333D01*
X39210714Y-126150714D01*
X39067857Y-126150714D01*
X38972619Y-126198333D01*
X38925000Y-126293571D01*
X38925000Y-126817380D01*
X38067857Y-126769761D02*
X38163095Y-126817380D01*
X38353571Y-126817380D01*
X38448809Y-126769761D01*
X38496428Y-126674523D01*
X38496428Y-126293571D01*
X38448809Y-126198333D01*
X38353571Y-126150714D01*
X38163095Y-126150714D01*
X38067857Y-126198333D01*
X38020238Y-126293571D01*
X38020238Y-126388809D01*
X38496428Y-126484047D01*
X37163095Y-126817380D02*
X37163095Y-125817380D01*
X37163095Y-126769761D02*
X37258333Y-126817380D01*
X37448809Y-126817380D01*
X37544047Y-126769761D01*
X37591666Y-126722142D01*
X37639285Y-126626904D01*
X37639285Y-126341190D01*
X37591666Y-126245952D01*
X37544047Y-126198333D01*
X37448809Y-126150714D01*
X37258333Y-126150714D01*
X37163095Y-126198333D01*
X36020238Y-126150714D02*
X35829761Y-126817380D01*
X35639285Y-126341190D01*
X35448809Y-126817380D01*
X35258333Y-126150714D01*
X34877380Y-126817380D02*
X34877380Y-126150714D01*
X34877380Y-125817380D02*
X34925000Y-125865000D01*
X34877380Y-125912619D01*
X34829761Y-125865000D01*
X34877380Y-125817380D01*
X34877380Y-125912619D01*
X34544047Y-126150714D02*
X34163095Y-126150714D01*
X34401190Y-125817380D02*
X34401190Y-126674523D01*
X34353571Y-126769761D01*
X34258333Y-126817380D01*
X34163095Y-126817380D01*
X33829761Y-126817380D02*
X33829761Y-125817380D01*
X33401190Y-126817380D02*
X33401190Y-126293571D01*
X33448809Y-126198333D01*
X33544047Y-126150714D01*
X33686904Y-126150714D01*
X33782142Y-126198333D01*
X33829761Y-126245952D01*
X31734523Y-126150714D02*
X31734523Y-126960238D01*
X31782142Y-127055476D01*
X31829761Y-127103095D01*
X31925000Y-127150714D01*
X32067857Y-127150714D01*
X32163095Y-127103095D01*
X31734523Y-126769761D02*
X31829761Y-126817380D01*
X32020238Y-126817380D01*
X32115476Y-126769761D01*
X32163095Y-126722142D01*
X32210714Y-126626904D01*
X32210714Y-126341190D01*
X32163095Y-126245952D01*
X32115476Y-126198333D01*
X32020238Y-126150714D01*
X31829761Y-126150714D01*
X31734523Y-126198333D01*
X31115476Y-126817380D02*
X31210714Y-126769761D01*
X31258333Y-126674523D01*
X31258333Y-125817380D01*
X30591666Y-126817380D02*
X30686904Y-126769761D01*
X30734523Y-126722142D01*
X30782142Y-126626904D01*
X30782142Y-126341190D01*
X30734523Y-126245952D01*
X30686904Y-126198333D01*
X30591666Y-126150714D01*
X30448809Y-126150714D01*
X30353571Y-126198333D01*
X30305952Y-126245952D01*
X30258333Y-126341190D01*
X30258333Y-126626904D01*
X30305952Y-126722142D01*
X30353571Y-126769761D01*
X30448809Y-126817380D01*
X30591666Y-126817380D01*
X29829761Y-126817380D02*
X29829761Y-126150714D01*
X29829761Y-126341190D02*
X29782142Y-126245952D01*
X29734523Y-126198333D01*
X29639285Y-126150714D01*
X29544047Y-126150714D01*
X29210714Y-126817380D02*
X29210714Y-126150714D01*
X29210714Y-125817380D02*
X29258333Y-125865000D01*
X29210714Y-125912619D01*
X29163095Y-125865000D01*
X29210714Y-125817380D01*
X29210714Y-125912619D01*
X28591666Y-126817380D02*
X28686904Y-126769761D01*
X28734523Y-126722142D01*
X28782142Y-126626904D01*
X28782142Y-126341190D01*
X28734523Y-126245952D01*
X28686904Y-126198333D01*
X28591666Y-126150714D01*
X28448809Y-126150714D01*
X28353571Y-126198333D01*
X28305952Y-126245952D01*
X28258333Y-126341190D01*
X28258333Y-126626904D01*
X28305952Y-126722142D01*
X28353571Y-126769761D01*
X28448809Y-126817380D01*
X28591666Y-126817380D01*
X27401190Y-126150714D02*
X27401190Y-126817380D01*
X27829761Y-126150714D02*
X27829761Y-126674523D01*
X27782142Y-126769761D01*
X27686904Y-126817380D01*
X27544047Y-126817380D01*
X27448809Y-126769761D01*
X27401190Y-126722142D01*
X26972619Y-126769761D02*
X26877380Y-126817380D01*
X26686904Y-126817380D01*
X26591666Y-126769761D01*
X26544047Y-126674523D01*
X26544047Y-126626904D01*
X26591666Y-126531666D01*
X26686904Y-126484047D01*
X26829761Y-126484047D01*
X26925000Y-126436428D01*
X26972619Y-126341190D01*
X26972619Y-126293571D01*
X26925000Y-126198333D01*
X26829761Y-126150714D01*
X26686904Y-126150714D01*
X26591666Y-126198333D01*
X25353571Y-126150714D02*
X25353571Y-127150714D01*
X25353571Y-126198333D02*
X25258333Y-126150714D01*
X25067857Y-126150714D01*
X24972619Y-126198333D01*
X24925000Y-126245952D01*
X24877380Y-126341190D01*
X24877380Y-126626904D01*
X24925000Y-126722142D01*
X24972619Y-126769761D01*
X25067857Y-126817380D01*
X25258333Y-126817380D01*
X25353571Y-126769761D01*
X24020238Y-126150714D02*
X24020238Y-126817380D01*
X24448809Y-126150714D02*
X24448809Y-126674523D01*
X24401190Y-126769761D01*
X24305952Y-126817380D01*
X24163095Y-126817380D01*
X24067857Y-126769761D01*
X24020238Y-126722142D01*
X23544047Y-126817380D02*
X23544047Y-126150714D01*
X23544047Y-126341190D02*
X23496428Y-126245952D01*
X23448809Y-126198333D01*
X23353571Y-126150714D01*
X23258333Y-126150714D01*
X22925000Y-126150714D02*
X22925000Y-127150714D01*
X22925000Y-126198333D02*
X22829761Y-126150714D01*
X22639285Y-126150714D01*
X22544047Y-126198333D01*
X22496428Y-126245952D01*
X22448809Y-126341190D01*
X22448809Y-126626904D01*
X22496428Y-126722142D01*
X22544047Y-126769761D01*
X22639285Y-126817380D01*
X22829761Y-126817380D01*
X22925000Y-126769761D01*
X21877380Y-126817380D02*
X21972619Y-126769761D01*
X22020238Y-126722142D01*
X22067857Y-126626904D01*
X22067857Y-126341190D01*
X22020238Y-126245952D01*
X21972619Y-126198333D01*
X21877380Y-126150714D01*
X21734523Y-126150714D01*
X21639285Y-126198333D01*
X21591666Y-126245952D01*
X21544047Y-126341190D01*
X21544047Y-126626904D01*
X21591666Y-126722142D01*
X21639285Y-126769761D01*
X21734523Y-126817380D01*
X21877380Y-126817380D01*
X21163095Y-126769761D02*
X21067857Y-126817380D01*
X20877380Y-126817380D01*
X20782142Y-126769761D01*
X20734523Y-126674523D01*
X20734523Y-126626904D01*
X20782142Y-126531666D01*
X20877380Y-126484047D01*
X21020238Y-126484047D01*
X21115476Y-126436428D01*
X21163095Y-126341190D01*
X21163095Y-126293571D01*
X21115476Y-126198333D01*
X21020238Y-126150714D01*
X20877380Y-126150714D01*
X20782142Y-126198333D01*
X19925000Y-126769761D02*
X20020238Y-126817380D01*
X20210714Y-126817380D01*
X20305952Y-126769761D01*
X20353571Y-126674523D01*
X20353571Y-126293571D01*
X20305952Y-126198333D01*
X20210714Y-126150714D01*
X20020238Y-126150714D01*
X19925000Y-126198333D01*
X19877380Y-126293571D01*
X19877380Y-126388809D01*
X20353571Y-126484047D01*
X19448809Y-125817380D02*
X19448809Y-125865000D01*
X19496428Y-125960238D01*
X19544047Y-126007857D01*
X19067857Y-125817380D02*
X19067857Y-125865000D01*
X19115476Y-125960238D01*
X19163095Y-126007857D01*
%TO.C,C1*%
G36*
G01*
X46195000Y-101150000D02*
X45245000Y-101150000D01*
G75*
G02*
X44995000Y-100900000I0J250000D01*
G01*
X44995000Y-100225000D01*
G75*
G02*
X45245000Y-99975000I250000J0D01*
G01*
X46195000Y-99975000D01*
G75*
G02*
X46445000Y-100225000I0J-250000D01*
G01*
X46445000Y-100900000D01*
G75*
G02*
X46195000Y-101150000I-250000J0D01*
G01*
G37*
G36*
G01*
X46195000Y-103225000D02*
X45245000Y-103225000D01*
G75*
G02*
X44995000Y-102975000I0J250000D01*
G01*
X44995000Y-102300000D01*
G75*
G02*
X45245000Y-102050000I250000J0D01*
G01*
X46195000Y-102050000D01*
G75*
G02*
X46445000Y-102300000I0J-250000D01*
G01*
X46445000Y-102975000D01*
G75*
G02*
X46195000Y-103225000I-250000J0D01*
G01*
G37*
%TD*%
%TO.C,C2*%
G36*
G01*
X45245000Y-96970000D02*
X46195000Y-96970000D01*
G75*
G02*
X46445000Y-97220000I0J-250000D01*
G01*
X46445000Y-97895000D01*
G75*
G02*
X46195000Y-98145000I-250000J0D01*
G01*
X45245000Y-98145000D01*
G75*
G02*
X44995000Y-97895000I0J250000D01*
G01*
X44995000Y-97220000D01*
G75*
G02*
X45245000Y-96970000I250000J0D01*
G01*
G37*
G36*
G01*
X45245000Y-94895000D02*
X46195000Y-94895000D01*
G75*
G02*
X46445000Y-95145000I0J-250000D01*
G01*
X46445000Y-95820000D01*
G75*
G02*
X46195000Y-96070000I-250000J0D01*
G01*
X45245000Y-96070000D01*
G75*
G02*
X44995000Y-95820000I0J250000D01*
G01*
X44995000Y-95145000D01*
G75*
G02*
X45245000Y-94895000I250000J0D01*
G01*
G37*
%TD*%
%TO.C,C3*%
G36*
G01*
X42385000Y-101150000D02*
X41435000Y-101150000D01*
G75*
G02*
X41185000Y-100900000I0J250000D01*
G01*
X41185000Y-100225000D01*
G75*
G02*
X41435000Y-99975000I250000J0D01*
G01*
X42385000Y-99975000D01*
G75*
G02*
X42635000Y-100225000I0J-250000D01*
G01*
X42635000Y-100900000D01*
G75*
G02*
X42385000Y-101150000I-250000J0D01*
G01*
G37*
G36*
G01*
X42385000Y-103225000D02*
X41435000Y-103225000D01*
G75*
G02*
X41185000Y-102975000I0J250000D01*
G01*
X41185000Y-102300000D01*
G75*
G02*
X41435000Y-102050000I250000J0D01*
G01*
X42385000Y-102050000D01*
G75*
G02*
X42635000Y-102300000I0J-250000D01*
G01*
X42635000Y-102975000D01*
G75*
G02*
X42385000Y-103225000I-250000J0D01*
G01*
G37*
%TD*%
%TO.C,C4*%
G36*
G01*
X41435000Y-96970000D02*
X42385000Y-96970000D01*
G75*
G02*
X42635000Y-97220000I0J-250000D01*
G01*
X42635000Y-97895000D01*
G75*
G02*
X42385000Y-98145000I-250000J0D01*
G01*
X41435000Y-98145000D01*
G75*
G02*
X41185000Y-97895000I0J250000D01*
G01*
X41185000Y-97220000D01*
G75*
G02*
X41435000Y-96970000I250000J0D01*
G01*
G37*
G36*
G01*
X41435000Y-94895000D02*
X42385000Y-94895000D01*
G75*
G02*
X42635000Y-95145000I0J-250000D01*
G01*
X42635000Y-95820000D01*
G75*
G02*
X42385000Y-96070000I-250000J0D01*
G01*
X41435000Y-96070000D01*
G75*
G02*
X41185000Y-95820000I0J250000D01*
G01*
X41185000Y-95145000D01*
G75*
G02*
X41435000Y-94895000I250000J0D01*
G01*
G37*
%TD*%
%TO.C,C5*%
G36*
G01*
X29685000Y-101150000D02*
X28735000Y-101150000D01*
G75*
G02*
X28485000Y-100900000I0J250000D01*
G01*
X28485000Y-100225000D01*
G75*
G02*
X28735000Y-99975000I250000J0D01*
G01*
X29685000Y-99975000D01*
G75*
G02*
X29935000Y-100225000I0J-250000D01*
G01*
X29935000Y-100900000D01*
G75*
G02*
X29685000Y-101150000I-250000J0D01*
G01*
G37*
G36*
G01*
X29685000Y-103225000D02*
X28735000Y-103225000D01*
G75*
G02*
X28485000Y-102975000I0J250000D01*
G01*
X28485000Y-102300000D01*
G75*
G02*
X28735000Y-102050000I250000J0D01*
G01*
X29685000Y-102050000D01*
G75*
G02*
X29935000Y-102300000I0J-250000D01*
G01*
X29935000Y-102975000D01*
G75*
G02*
X29685000Y-103225000I-250000J0D01*
G01*
G37*
%TD*%
%TO.C,C6*%
G36*
G01*
X25875000Y-101150000D02*
X24925000Y-101150000D01*
G75*
G02*
X24675000Y-100900000I0J250000D01*
G01*
X24675000Y-100225000D01*
G75*
G02*
X24925000Y-99975000I250000J0D01*
G01*
X25875000Y-99975000D01*
G75*
G02*
X26125000Y-100225000I0J-250000D01*
G01*
X26125000Y-100900000D01*
G75*
G02*
X25875000Y-101150000I-250000J0D01*
G01*
G37*
G36*
G01*
X25875000Y-103225000D02*
X24925000Y-103225000D01*
G75*
G02*
X24675000Y-102975000I0J250000D01*
G01*
X24675000Y-102300000D01*
G75*
G02*
X24925000Y-102050000I250000J0D01*
G01*
X25875000Y-102050000D01*
G75*
G02*
X26125000Y-102300000I0J-250000D01*
G01*
X26125000Y-102975000D01*
G75*
G02*
X25875000Y-103225000I-250000J0D01*
G01*
G37*
%TD*%
D11*
%TO.C,D1*%
G36*
X52585000Y-112015000D02*
G01*
X50285000Y-112015000D01*
X50885000Y-108415000D01*
X51985000Y-108415000D01*
X52585000Y-112015000D01*
G37*
G36*
X50285000Y-102615000D02*
G01*
X52585000Y-102615000D01*
X51985000Y-106215000D01*
X50885000Y-106215000D01*
X50285000Y-102615000D01*
G37*
%TD*%
%TO.C,D2*%
G36*
X49910000Y-95130000D02*
G01*
X49910000Y-92830000D01*
X53510000Y-93430000D01*
X53510000Y-94530000D01*
X49910000Y-95130000D01*
G37*
G36*
X59310000Y-92830000D02*
G01*
X59310000Y-95130000D01*
X55710000Y-94530000D01*
X55710000Y-93430000D01*
X59310000Y-92830000D01*
G37*
%TD*%
D12*
%TO.C,D3*%
X22600000Y-13335000D03*
X23400000Y-13335000D03*
D13*
X21500000Y-12885000D03*
X24500000Y-12885000D03*
%TD*%
D12*
%TO.C,D4*%
X39600000Y-13335000D03*
X40400000Y-13335000D03*
D13*
X38500000Y-12885000D03*
X41500000Y-12885000D03*
%TD*%
D11*
%TO.C,D5*%
G36*
X18930000Y-102490000D02*
G01*
X16630000Y-102490000D01*
X17230000Y-98890000D01*
X18330000Y-98890000D01*
X18930000Y-102490000D01*
G37*
G36*
X16630000Y-93090000D02*
G01*
X18930000Y-93090000D01*
X18330000Y-96690000D01*
X17230000Y-96690000D01*
X16630000Y-93090000D01*
G37*
%TD*%
D14*
%TO.C,J1*%
X64770000Y-113284000D03*
X64770000Y-110744000D03*
X64770000Y-108204000D03*
X64770000Y-105664000D03*
X64770000Y-103124000D03*
X67310000Y-113284000D03*
X67310000Y-110744000D03*
X67310000Y-108204000D03*
X67310000Y-105664000D03*
G36*
G01*
X68160000Y-102524000D02*
X68160000Y-103724000D01*
G75*
G02*
X67910000Y-103974000I-250000J0D01*
G01*
X66710000Y-103974000D01*
G75*
G02*
X66460000Y-103724000I0J250000D01*
G01*
X66460000Y-102524000D01*
G75*
G02*
X66710000Y-102274000I250000J0D01*
G01*
X67910000Y-102274000D01*
G75*
G02*
X68160000Y-102524000I0J-250000D01*
G01*
G37*
%TD*%
%TO.C,J6*%
G36*
G01*
X8000000Y-32250000D02*
X8000000Y-31250000D01*
G75*
G02*
X8500000Y-30750000I500000J0D01*
G01*
X9500000Y-30750000D01*
G75*
G02*
X10000000Y-31250000I0J-500000D01*
G01*
X10000000Y-32250000D01*
G75*
G02*
X9500000Y-32750000I-500000J0D01*
G01*
X8500000Y-32750000D01*
G75*
G02*
X8000000Y-32250000I0J500000D01*
G01*
G37*
%TD*%
%TO.C,J7*%
G36*
G01*
X53000000Y-18280000D02*
X53000000Y-17280000D01*
G75*
G02*
X53500000Y-16780000I500000J0D01*
G01*
X54500000Y-16780000D01*
G75*
G02*
X55000000Y-17280000I0J-500000D01*
G01*
X55000000Y-18280000D01*
G75*
G02*
X54500000Y-18780000I-500000J0D01*
G01*
X53500000Y-18780000D01*
G75*
G02*
X53000000Y-18280000I0J500000D01*
G01*
G37*
%TD*%
%TO.C,J8*%
G36*
G01*
X14500000Y-18280000D02*
X14500000Y-17280000D01*
G75*
G02*
X15000000Y-16780000I500000J0D01*
G01*
X16000000Y-16780000D01*
G75*
G02*
X16500000Y-17280000I0J-500000D01*
G01*
X16500000Y-18280000D01*
G75*
G02*
X16000000Y-18780000I-500000J0D01*
G01*
X15000000Y-18780000D01*
G75*
G02*
X14500000Y-18280000I0J500000D01*
G01*
G37*
%TD*%
%TO.C,J9*%
G36*
G01*
X46500000Y-32250000D02*
X46500000Y-31250000D01*
G75*
G02*
X47000000Y-30750000I500000J0D01*
G01*
X48000000Y-30750000D01*
G75*
G02*
X48500000Y-31250000I0J-500000D01*
G01*
X48500000Y-32250000D01*
G75*
G02*
X48000000Y-32750000I-500000J0D01*
G01*
X47000000Y-32750000D01*
G75*
G02*
X46500000Y-32250000I0J500000D01*
G01*
G37*
%TD*%
%TO.C,J12*%
G36*
G01*
X10470000Y-50250000D02*
X10470000Y-46750000D01*
G75*
G02*
X12220000Y-45000000I1750000J0D01*
G01*
X15720000Y-45000000D01*
G75*
G02*
X17470000Y-46750000I0J-1750000D01*
G01*
X17470000Y-50250000D01*
G75*
G02*
X15720000Y-52000000I-1750000J0D01*
G01*
X12220000Y-52000000D01*
G75*
G02*
X10470000Y-50250000I0J1750000D01*
G01*
G37*
%TD*%
%TO.C,J13*%
G36*
G01*
X46030000Y-40250000D02*
X46030000Y-36750000D01*
G75*
G02*
X47780000Y-35000000I1750000J0D01*
G01*
X51280000Y-35000000D01*
G75*
G02*
X53030000Y-36750000I0J-1750000D01*
G01*
X53030000Y-40250000D01*
G75*
G02*
X51280000Y-42000000I-1750000J0D01*
G01*
X47780000Y-42000000D01*
G75*
G02*
X46030000Y-40250000I0J1750000D01*
G01*
G37*
%TD*%
%TO.C,J11*%
G36*
G01*
X10470000Y-40250000D02*
X10470000Y-36750000D01*
G75*
G02*
X12220000Y-35000000I1750000J0D01*
G01*
X15720000Y-35000000D01*
G75*
G02*
X17470000Y-36750000I0J-1750000D01*
G01*
X17470000Y-40250000D01*
G75*
G02*
X15720000Y-42000000I-1750000J0D01*
G01*
X12220000Y-42000000D01*
G75*
G02*
X10470000Y-40250000I0J1750000D01*
G01*
G37*
%TD*%
%TO.C,J10*%
G36*
G01*
X46030000Y-50250000D02*
X46030000Y-46750000D01*
G75*
G02*
X47780000Y-45000000I1750000J0D01*
G01*
X51280000Y-45000000D01*
G75*
G02*
X53030000Y-46750000I0J-1750000D01*
G01*
X53030000Y-50250000D01*
G75*
G02*
X51280000Y-52000000I-1750000J0D01*
G01*
X47780000Y-52000000D01*
G75*
G02*
X46030000Y-50250000I0J1750000D01*
G01*
G37*
%TD*%
%TO.C,R1*%
G36*
G01*
X59290000Y-15424999D02*
X59290000Y-16325001D01*
G75*
G02*
X59040001Y-16575000I-249999J0D01*
G01*
X58339999Y-16575000D01*
G75*
G02*
X58090000Y-16325001I0J249999D01*
G01*
X58090000Y-15424999D01*
G75*
G02*
X58339999Y-15175000I249999J0D01*
G01*
X59040001Y-15175000D01*
G75*
G02*
X59290000Y-15424999I0J-249999D01*
G01*
G37*
G36*
G01*
X61290000Y-15424999D02*
X61290000Y-16325001D01*
G75*
G02*
X61040001Y-16575000I-249999J0D01*
G01*
X60339999Y-16575000D01*
G75*
G02*
X60090000Y-16325001I0J249999D01*
G01*
X60090000Y-15424999D01*
G75*
G02*
X60339999Y-15175000I249999J0D01*
G01*
X61040001Y-15175000D01*
G75*
G02*
X61290000Y-15424999I0J-249999D01*
G01*
G37*
%TD*%
%TO.C,R2*%
G36*
G01*
X59290000Y-12884999D02*
X59290000Y-13785001D01*
G75*
G02*
X59040001Y-14035000I-249999J0D01*
G01*
X58339999Y-14035000D01*
G75*
G02*
X58090000Y-13785001I0J249999D01*
G01*
X58090000Y-12884999D01*
G75*
G02*
X58339999Y-12635000I249999J0D01*
G01*
X59040001Y-12635000D01*
G75*
G02*
X59290000Y-12884999I0J-249999D01*
G01*
G37*
G36*
G01*
X61290000Y-12884999D02*
X61290000Y-13785001D01*
G75*
G02*
X61040001Y-14035000I-249999J0D01*
G01*
X60339999Y-14035000D01*
G75*
G02*
X60090000Y-13785001I0J249999D01*
G01*
X60090000Y-12884999D01*
G75*
G02*
X60339999Y-12635000I249999J0D01*
G01*
X61040001Y-12635000D01*
G75*
G02*
X61290000Y-12884999I0J-249999D01*
G01*
G37*
%TD*%
%TO.C,R3*%
G36*
G01*
X59290000Y-10344999D02*
X59290000Y-11245001D01*
G75*
G02*
X59040001Y-11495000I-249999J0D01*
G01*
X58339999Y-11495000D01*
G75*
G02*
X58090000Y-11245001I0J249999D01*
G01*
X58090000Y-10344999D01*
G75*
G02*
X58339999Y-10095000I249999J0D01*
G01*
X59040001Y-10095000D01*
G75*
G02*
X59290000Y-10344999I0J-249999D01*
G01*
G37*
G36*
G01*
X61290000Y-10344999D02*
X61290000Y-11245001D01*
G75*
G02*
X61040001Y-11495000I-249999J0D01*
G01*
X60339999Y-11495000D01*
G75*
G02*
X60090000Y-11245001I0J249999D01*
G01*
X60090000Y-10344999D01*
G75*
G02*
X60339999Y-10095000I249999J0D01*
G01*
X61040001Y-10095000D01*
G75*
G02*
X61290000Y-10344999I0J-249999D01*
G01*
G37*
%TD*%
%TO.C,R4*%
G36*
G01*
X59290000Y-7804999D02*
X59290000Y-8705001D01*
G75*
G02*
X59040001Y-8955000I-249999J0D01*
G01*
X58339999Y-8955000D01*
G75*
G02*
X58090000Y-8705001I0J249999D01*
G01*
X58090000Y-7804999D01*
G75*
G02*
X58339999Y-7555000I249999J0D01*
G01*
X59040001Y-7555000D01*
G75*
G02*
X59290000Y-7804999I0J-249999D01*
G01*
G37*
G36*
G01*
X61290000Y-7804999D02*
X61290000Y-8705001D01*
G75*
G02*
X61040001Y-8955000I-249999J0D01*
G01*
X60339999Y-8955000D01*
G75*
G02*
X60090000Y-8705001I0J249999D01*
G01*
X60090000Y-7804999D01*
G75*
G02*
X60339999Y-7555000I249999J0D01*
G01*
X61040001Y-7555000D01*
G75*
G02*
X61290000Y-7804999I0J-249999D01*
G01*
G37*
%TD*%
%TO.C,R5*%
G36*
G01*
X17745000Y-13519999D02*
X17745000Y-14420001D01*
G75*
G02*
X17495001Y-14670000I-249999J0D01*
G01*
X16794999Y-14670000D01*
G75*
G02*
X16545000Y-14420001I0J249999D01*
G01*
X16545000Y-13519999D01*
G75*
G02*
X16794999Y-13270000I249999J0D01*
G01*
X17495001Y-13270000D01*
G75*
G02*
X17745000Y-13519999I0J-249999D01*
G01*
G37*
G36*
G01*
X19745000Y-13519999D02*
X19745000Y-14420001D01*
G75*
G02*
X19495001Y-14670000I-249999J0D01*
G01*
X18794999Y-14670000D01*
G75*
G02*
X18545000Y-14420001I0J249999D01*
G01*
X18545000Y-13519999D01*
G75*
G02*
X18794999Y-13270000I249999J0D01*
G01*
X19495001Y-13270000D01*
G75*
G02*
X19745000Y-13519999I0J-249999D01*
G01*
G37*
%TD*%
%TO.C,R6*%
G36*
G01*
X34652000Y-13519999D02*
X34652000Y-14420001D01*
G75*
G02*
X34402001Y-14670000I-249999J0D01*
G01*
X33701999Y-14670000D01*
G75*
G02*
X33452000Y-14420001I0J249999D01*
G01*
X33452000Y-13519999D01*
G75*
G02*
X33701999Y-13270000I249999J0D01*
G01*
X34402001Y-13270000D01*
G75*
G02*
X34652000Y-13519999I0J-249999D01*
G01*
G37*
G36*
G01*
X36652000Y-13519999D02*
X36652000Y-14420001D01*
G75*
G02*
X36402001Y-14670000I-249999J0D01*
G01*
X35701999Y-14670000D01*
G75*
G02*
X35452000Y-14420001I0J249999D01*
G01*
X35452000Y-13519999D01*
G75*
G02*
X35701999Y-13270000I249999J0D01*
G01*
X36402001Y-13270000D01*
G75*
G02*
X36652000Y-13519999I0J-249999D01*
G01*
G37*
%TD*%
D15*
%TO.C,U1*%
X38710000Y-99300000D03*
X38710000Y-103900000D03*
X38710000Y-101600000D03*
D16*
X32410000Y-101600000D03*
%TD*%
D17*
%TO.C,J2*%
X64970000Y-7980000D03*
X67510000Y-7980000D03*
X64970000Y-10520000D03*
X67510000Y-10520000D03*
X64970000Y-13060000D03*
X67510000Y-13060000D03*
X64970000Y-15600000D03*
D18*
X67510000Y-15600000D03*
%TD*%
D19*
%TO.C,J3*%
X66294000Y-24638000D03*
%TD*%
D20*
%TO.C,J4*%
X66294000Y-39500000D03*
%TD*%
%TO.C,J5*%
X66294000Y-54500000D03*
%TD*%
%TO.C,J14*%
X66294000Y-69500000D03*
%TD*%
%TO.C,J15*%
X66294000Y-84500000D03*
%TD*%
%TO.C,J16*%
G36*
G01*
X38370000Y-108958000D02*
X38370000Y-107958000D01*
G75*
G02*
X38870000Y-107458000I500000J0D01*
G01*
X39870000Y-107458000D01*
G75*
G02*
X40370000Y-107958000I0J-500000D01*
G01*
X40370000Y-108958000D01*
G75*
G02*
X39870000Y-109458000I-500000J0D01*
G01*
X38870000Y-109458000D01*
G75*
G02*
X38370000Y-108958000I0J500000D01*
G01*
G37*
%TD*%
%TO.C,J17*%
G36*
G01*
X32020000Y-108958000D02*
X32020000Y-107958000D01*
G75*
G02*
X32520000Y-107458000I500000J0D01*
G01*
X33520000Y-107458000D01*
G75*
G02*
X34020000Y-107958000I0J-500000D01*
G01*
X34020000Y-108958000D01*
G75*
G02*
X33520000Y-109458000I-500000J0D01*
G01*
X32520000Y-109458000D01*
G75*
G02*
X32020000Y-108958000I0J500000D01*
G01*
G37*
%TD*%
%TO.C,R7*%
G36*
G01*
X42360001Y-111360000D02*
X41459999Y-111360000D01*
G75*
G02*
X41210000Y-111110001I0J249999D01*
G01*
X41210000Y-110409999D01*
G75*
G02*
X41459999Y-110160000I249999J0D01*
G01*
X42360001Y-110160000D01*
G75*
G02*
X42610000Y-110409999I0J-249999D01*
G01*
X42610000Y-111110001D01*
G75*
G02*
X42360001Y-111360000I-249999J0D01*
G01*
G37*
G36*
G01*
X42360001Y-113360000D02*
X41459999Y-113360000D01*
G75*
G02*
X41210000Y-113110001I0J249999D01*
G01*
X41210000Y-112409999D01*
G75*
G02*
X41459999Y-112160000I249999J0D01*
G01*
X42360001Y-112160000D01*
G75*
G02*
X42610000Y-112409999I0J-249999D01*
G01*
X42610000Y-113110001D01*
G75*
G02*
X42360001Y-113360000I-249999J0D01*
G01*
G37*
%TD*%
%TO.C,R8*%
G36*
G01*
X30930001Y-111344000D02*
X30029999Y-111344000D01*
G75*
G02*
X29780000Y-111094001I0J249999D01*
G01*
X29780000Y-110393999D01*
G75*
G02*
X30029999Y-110144000I249999J0D01*
G01*
X30930001Y-110144000D01*
G75*
G02*
X31180000Y-110393999I0J-249999D01*
G01*
X31180000Y-111094001D01*
G75*
G02*
X30930001Y-111344000I-249999J0D01*
G01*
G37*
G36*
G01*
X30930001Y-113344000D02*
X30029999Y-113344000D01*
G75*
G02*
X29780000Y-113094001I0J249999D01*
G01*
X29780000Y-112393999D01*
G75*
G02*
X30029999Y-112144000I249999J0D01*
G01*
X30930001Y-112144000D01*
G75*
G02*
X31180000Y-112393999I0J-249999D01*
G01*
X31180000Y-113094001D01*
G75*
G02*
X30930001Y-113344000I-249999J0D01*
G01*
G37*
%TD*%
%TO.C,D6*%
G36*
G01*
X38919999Y-112210000D02*
X39820001Y-112210000D01*
G75*
G02*
X40070000Y-112459999I0J-249999D01*
G01*
X40070000Y-113110001D01*
G75*
G02*
X39820001Y-113360000I-249999J0D01*
G01*
X38919999Y-113360000D01*
G75*
G02*
X38670000Y-113110001I0J249999D01*
G01*
X38670000Y-112459999D01*
G75*
G02*
X38919999Y-112210000I249999J0D01*
G01*
G37*
G36*
G01*
X38919999Y-110160000D02*
X39820001Y-110160000D01*
G75*
G02*
X40070000Y-110409999I0J-249999D01*
G01*
X40070000Y-111060001D01*
G75*
G02*
X39820001Y-111310000I-249999J0D01*
G01*
X38919999Y-111310000D01*
G75*
G02*
X38670000Y-111060001I0J249999D01*
G01*
X38670000Y-110409999D01*
G75*
G02*
X38919999Y-110160000I249999J0D01*
G01*
G37*
%TD*%
%TO.C,D7*%
G36*
G01*
X32569999Y-112210000D02*
X33470001Y-112210000D01*
G75*
G02*
X33720000Y-112459999I0J-249999D01*
G01*
X33720000Y-113110001D01*
G75*
G02*
X33470001Y-113360000I-249999J0D01*
G01*
X32569999Y-113360000D01*
G75*
G02*
X32320000Y-113110001I0J249999D01*
G01*
X32320000Y-112459999D01*
G75*
G02*
X32569999Y-112210000I249999J0D01*
G01*
G37*
G36*
G01*
X32569999Y-110160000D02*
X33470001Y-110160000D01*
G75*
G02*
X33720000Y-110409999I0J-249999D01*
G01*
X33720000Y-111060001D01*
G75*
G02*
X33470001Y-111310000I-249999J0D01*
G01*
X32569999Y-111310000D01*
G75*
G02*
X32320000Y-111060001I0J249999D01*
G01*
X32320000Y-110409999D01*
G75*
G02*
X32569999Y-110160000I249999J0D01*
G01*
G37*
%TD*%
D21*
X49403000Y-12065000D02*
X14097000Y-12065000D01*
X14097000Y-2667000D01*
X49403000Y-2667000D01*
X49403000Y-12065000D01*
D11*
G36*
X49403000Y-12065000D02*
G01*
X14097000Y-12065000D01*
X14097000Y-2667000D01*
X49403000Y-2667000D01*
X49403000Y-12065000D01*
G37*
M02*
