M48
; DRILL file {KiCad (5.1.12-1-10_14)} date Tuesday, 28 December 2021 at 18:18:41
; FORMAT={-:-/ absolute / metric / decimal}
; #@! TF.CreationDate,2021-12-28T18:18:41+00:00
; #@! TF.GenerationSoftware,Kicad,Pcbnew,(5.1.12-1-10_14)
FMAT,2
METRIC
T1C0.400
T2C1.000
T3C6.100
T4C6.350
%
G90
G05
T1
X2.54Y-5.08
X2.54Y-12.7
X2.54Y-33.02
X2.54Y-40.64
X5.08Y-36.83
X5.08Y-88.9
X5.08Y-105.41
X6.35Y-16.51
X6.35Y-76.2
X7.62Y-8.89
X7.62Y-66.04
X7.62Y-116.84
X10.16Y-12.7
X10.16Y-82.55
X10.16Y-97.79
X11.43Y-69.85
X12.446Y-31.496
X12.7Y-110.49
X13.97Y-59.69
X15.24Y-15.24
X20.32Y-15.24
X20.32Y-120.65
X24.13Y-29.972
X24.13Y-41.91
X24.13Y-55.88
X25.4Y-19.05
X25.4Y-25.4
X25.4Y-39.37
X25.4Y-45.72
X25.4Y-67.31
X25.4Y-76.2
X25.4Y-83.82
X26.67Y-22.86
X26.67Y-123.19
X27.94Y-15.24
X27.94Y-118.11
X28.448Y-17.018
X29.21Y-19.05
X29.21Y-30.48
X31.75Y-26.67
X31.75Y-43.18
X31.75Y-48.26
X31.75Y-93.98
X33.02Y-17.78
X33.02Y-30.48
X33.02Y-55.88
X33.02Y-76.2
X34.036Y-20.574
X34.29Y-85.09
X35.56Y-39.37
X36.83Y-24.13
X36.83Y-120.65
X38.1Y-30.48
X38.1Y-45.72
X39.37Y-124.46
X41.91Y-17.018
X43.18Y-87.63
X44.45Y-81.28
X45.72Y-118.11
X50.292Y-15.748
X50.8Y-121.92
X51.816Y-17.272
X52.07Y-3.81
X52.07Y-8.89
X53.34Y-86.36
X54.61Y-58.42
X54.61Y-99.06
X56.642Y-13.462
X56.896Y-10.922
X56.896Y-15.748
X57.15Y-5.08
X57.15Y-80.01
X58.42Y-39.37
X58.42Y-102.87
X58.42Y-114.3
X59.69Y-34.29
X60.96Y-41.91
X62.23Y-120.65
X64.77Y-76.2
X66.04Y-19.05
X66.04Y-33.02
X66.04Y-46.99
X66.04Y-62.23
X67.31Y-91.44
T2
X64.77Y-103.124
X64.77Y-105.664
X64.77Y-108.204
X64.77Y-110.744
X64.77Y-113.284
X64.97Y-7.98
X64.97Y-10.52
X64.97Y-13.06
X64.97Y-15.6
X67.31Y-103.124
X67.31Y-105.664
X67.31Y-108.204
X67.31Y-110.744
X67.31Y-113.284
X67.51Y-7.98
X67.51Y-10.52
X67.51Y-13.06
X67.51Y-15.6
T3
X66.294Y-39.5
X66.294Y-54.5
X66.294Y-69.5
X66.294Y-84.5
T4
X66.294Y-24.638
T0
M30
