%TF.GenerationSoftware,KiCad,Pcbnew,(5.1.12-1-10_14)*%
%TF.CreationDate,2021-12-28T18:18:38+00:00*%
%TF.ProjectId,pocket-operator-eurorack,706f636b-6574-42d6-9f70-657261746f72,rev?*%
%TF.SameCoordinates,Original*%
%TF.FileFunction,Copper,L1,Top*%
%TF.FilePolarity,Positive*%
%FSLAX46Y46*%
G04 Gerber Fmt 4.6, Leading zero omitted, Abs format (unit mm)*
G04 Created by KiCad (PCBNEW (5.1.12-1-10_14)) date 2021-12-28 18:18:38*
%MOMM*%
%LPD*%
G01*
G04 APERTURE LIST*
%TA.AperFunction,ComponentPad*%
%ADD10C,1.700000*%
%TD*%
%TA.AperFunction,ComponentPad*%
%ADD11O,1.700000X1.700000*%
%TD*%
%TA.AperFunction,ComponentPad*%
%ADD12R,1.700000X1.700000*%
%TD*%
%TA.AperFunction,ViaPad*%
%ADD13C,0.800000*%
%TD*%
%TA.AperFunction,Conductor*%
%ADD14C,0.250000*%
%TD*%
%TA.AperFunction,Conductor*%
%ADD15C,0.254000*%
%TD*%
%TA.AperFunction,Conductor*%
%ADD16C,0.100000*%
%TD*%
G04 APERTURE END LIST*
D10*
%TO.P,J1,10*%
%TO.N,Net-(D2-Pad1)*%
X64770000Y-113284000D03*
%TO.P,J1,8*%
%TO.N,GND*%
X64770000Y-110744000D03*
%TO.P,J1,6*%
X64770000Y-108204000D03*
%TO.P,J1,4*%
X64770000Y-105664000D03*
%TO.P,J1,2*%
%TO.N,Net-(D1-Pad2)*%
X64770000Y-103124000D03*
%TO.P,J1,9*%
%TO.N,Net-(D2-Pad1)*%
X67310000Y-113284000D03*
%TO.P,J1,7*%
%TO.N,GND*%
X67310000Y-110744000D03*
%TO.P,J1,5*%
X67310000Y-108204000D03*
%TO.P,J1,3*%
X67310000Y-105664000D03*
%TO.P,J1,1*%
%TO.N,Net-(D1-Pad2)*%
%TA.AperFunction,ComponentPad*%
G36*
G01*
X68160000Y-102524000D02*
X68160000Y-103724000D01*
G75*
G02*
X67910000Y-103974000I-250000J0D01*
G01*
X66710000Y-103974000D01*
G75*
G02*
X66460000Y-103724000I0J250000D01*
G01*
X66460000Y-102524000D01*
G75*
G02*
X66710000Y-102274000I250000J0D01*
G01*
X67910000Y-102274000D01*
G75*
G02*
X68160000Y-102524000I0J-250000D01*
G01*
G37*
%TD.AperFunction*%
%TD*%
D11*
%TO.P,J2,8*%
%TO.N,/OUT_R*%
X64970000Y-7980000D03*
%TO.P,J2,7*%
%TO.N,GND*%
X67510000Y-7980000D03*
%TO.P,J2,6*%
%TO.N,/OUT_L*%
X64970000Y-10520000D03*
%TO.P,J2,5*%
%TO.N,GND*%
X67510000Y-10520000D03*
%TO.P,J2,4*%
%TO.N,/IN_R*%
X64970000Y-13060000D03*
%TO.P,J2,3*%
%TO.N,GND*%
X67510000Y-13060000D03*
%TO.P,J2,2*%
%TO.N,/IN_L*%
X64970000Y-15600000D03*
D12*
%TO.P,J2,1*%
%TO.N,GND*%
X67510000Y-15600000D03*
%TD*%
D13*
%TO.N,GND*%
X15240000Y-15240000D03*
X20320000Y-15240000D03*
X27940000Y-15240000D03*
X25400000Y-19050000D03*
X29210000Y-19050000D03*
X33020000Y-17780000D03*
X26670000Y-22860000D03*
X25400000Y-25400000D03*
X31750000Y-26670000D03*
X36830000Y-24130000D03*
X38100000Y-30480000D03*
X33020000Y-30480000D03*
X29210000Y-30480000D03*
X2540000Y-33020000D03*
X5080000Y-36830000D03*
X2540000Y-40640000D03*
X24130000Y-41910000D03*
X35560000Y-39370000D03*
X38100000Y-45720000D03*
X25400000Y-45720000D03*
X31750000Y-48260000D03*
X31750000Y-43180000D03*
X25400000Y-39370000D03*
X59690000Y-34290000D03*
X58420000Y-39370000D03*
X60960000Y-41910000D03*
X66040000Y-46990000D03*
X66040000Y-33020000D03*
X66040000Y-19050000D03*
X66040000Y-62230000D03*
X54610000Y-58420000D03*
X33020000Y-55880000D03*
X24130000Y-55880000D03*
X13970000Y-59690000D03*
X7620000Y-66040000D03*
X11430000Y-69850000D03*
X6350000Y-76200000D03*
X25400000Y-76200000D03*
X44450000Y-81280000D03*
X34290000Y-85090000D03*
X33020000Y-76200000D03*
X25400000Y-67310000D03*
X25400000Y-83820000D03*
X10160000Y-82550000D03*
X5080000Y-88900000D03*
X10160000Y-97790000D03*
X5080000Y-105410000D03*
X12700000Y-110490000D03*
X7620000Y-116840000D03*
X20320000Y-120650000D03*
X36830000Y-120650000D03*
X45720000Y-118110000D03*
X50800000Y-121920000D03*
X39370000Y-124460000D03*
X27940000Y-118110000D03*
X26670000Y-123190000D03*
X43180000Y-87630000D03*
X31750000Y-93980000D03*
X57150000Y-80010000D03*
X53340000Y-86360000D03*
X58420000Y-102870000D03*
X54610000Y-99060000D03*
X58420000Y-114300000D03*
X62230000Y-120650000D03*
X67310000Y-91440000D03*
X64770000Y-76200000D03*
X52070000Y-3810000D03*
X57150000Y-5080000D03*
X52070000Y-8890000D03*
X2540000Y-5080000D03*
X7620000Y-8890000D03*
X10160000Y-12700000D03*
X6350000Y-16510000D03*
X2540000Y-12700000D03*
%TO.N,/IN_L*%
X28448000Y-17018000D03*
X56896000Y-15748000D03*
X50292000Y-15748000D03*
%TO.N,/OUT_L*%
X56896000Y-10922000D03*
%TO.N,/IN_R*%
X12446000Y-31496000D03*
X24130000Y-29972000D03*
X34036000Y-20574000D03*
X41910000Y-17018000D03*
X56641998Y-13462000D03*
%TO.N,/OUT_R*%
X51816000Y-17272000D03*
%TD*%
D14*
%TO.N,/IN_L*%
X64892000Y-15748000D02*
X64970000Y-15670000D01*
X56896000Y-15748000D02*
X64892000Y-15748000D01*
X29718000Y-15748000D02*
X50292000Y-15748000D01*
X28448000Y-17018000D02*
X29718000Y-15748000D01*
%TO.N,/OUT_L*%
X64970000Y-10590000D02*
X57228000Y-10590000D01*
X57228000Y-10590000D02*
X56896000Y-10922000D01*
%TO.N,/IN_R*%
X12446000Y-31496000D02*
X12954000Y-30988000D01*
X23114000Y-30988000D02*
X24130000Y-29972000D01*
X12954000Y-30988000D02*
X23114000Y-30988000D01*
X34036000Y-20574000D02*
X37084000Y-17526000D01*
X41402000Y-17526000D02*
X41910000Y-17018000D01*
X37084000Y-17526000D02*
X41402000Y-17526000D01*
X64970000Y-13130000D02*
X56973998Y-13130000D01*
X56973998Y-13130000D02*
X56641998Y-13462000D01*
%TO.N,/OUT_R*%
X51816000Y-17272000D02*
X54102000Y-14986000D01*
X54102000Y-14986000D02*
X54102000Y-10668000D01*
X56720000Y-8050000D02*
X64970000Y-8050000D01*
X54102000Y-10668000D02*
X56720000Y-8050000D01*
%TD*%
D15*
%TO.N,GND*%
X13843000Y-12192000D02*
X13845440Y-12216776D01*
X13852667Y-12240601D01*
X13864403Y-12262557D01*
X13880197Y-12281803D01*
X13899443Y-12297597D01*
X13921399Y-12309333D01*
X13945224Y-12316560D01*
X13970000Y-12319000D01*
X49530000Y-12319000D01*
X49554776Y-12316560D01*
X49578601Y-12309333D01*
X49600557Y-12297597D01*
X49619803Y-12281803D01*
X49635597Y-12262557D01*
X49647333Y-12240601D01*
X49654560Y-12216776D01*
X49657000Y-12192000D01*
X49657000Y-2951353D01*
X60542755Y-2951353D01*
X60543173Y-3011171D01*
X60542755Y-3070988D01*
X60543655Y-3080160D01*
X60576296Y-3390715D01*
X60588320Y-3449291D01*
X60599532Y-3508070D01*
X60602196Y-3516892D01*
X60694535Y-3815192D01*
X60717715Y-3870335D01*
X60740124Y-3925800D01*
X60744451Y-3933937D01*
X60892972Y-4208621D01*
X60926417Y-4258205D01*
X60959177Y-4308268D01*
X60965001Y-4315409D01*
X61164047Y-4556013D01*
X61206482Y-4598154D01*
X61248346Y-4640903D01*
X61255446Y-4646777D01*
X61497435Y-4844138D01*
X61547259Y-4877241D01*
X61596615Y-4911036D01*
X61604721Y-4915419D01*
X61880435Y-5062019D01*
X61935704Y-5084799D01*
X61990724Y-5108381D01*
X61999527Y-5111105D01*
X62298465Y-5201359D01*
X62357138Y-5212976D01*
X62415655Y-5225415D01*
X62424820Y-5226378D01*
X62735594Y-5256850D01*
X62735598Y-5256850D01*
X62767581Y-5260000D01*
X63832419Y-5260000D01*
X63865986Y-5256694D01*
X63886744Y-5256694D01*
X63895909Y-5255731D01*
X64206228Y-5220923D01*
X64264731Y-5208487D01*
X64323419Y-5196867D01*
X64332222Y-5194142D01*
X64629870Y-5099723D01*
X64684792Y-5076183D01*
X64740159Y-5053363D01*
X64748265Y-5048979D01*
X65021904Y-4898544D01*
X65071217Y-4864779D01*
X65121088Y-4831645D01*
X65128188Y-4825770D01*
X65367397Y-4625049D01*
X65409241Y-4582320D01*
X65451694Y-4540162D01*
X65457519Y-4533020D01*
X65653185Y-4289660D01*
X65685938Y-4239608D01*
X65719391Y-4190013D01*
X65723714Y-4181881D01*
X65723717Y-4181877D01*
X65723719Y-4181873D01*
X65868388Y-3905146D01*
X65890785Y-3849711D01*
X65913978Y-3794539D01*
X65916641Y-3785717D01*
X66004807Y-3486156D01*
X66016007Y-3427440D01*
X66028045Y-3368798D01*
X66028944Y-3359627D01*
X66057245Y-3048647D01*
X66056827Y-2988829D01*
X66057245Y-2929012D01*
X66056345Y-2919841D01*
X66023704Y-2609285D01*
X66011680Y-2550709D01*
X66000468Y-2491930D01*
X65997804Y-2483108D01*
X65905465Y-2184808D01*
X65882280Y-2129653D01*
X65859876Y-2074200D01*
X65855549Y-2066064D01*
X65855549Y-2066063D01*
X65855546Y-2066059D01*
X65707028Y-1791379D01*
X65673583Y-1741795D01*
X65640823Y-1691732D01*
X65634999Y-1684591D01*
X65435954Y-1443987D01*
X65393535Y-1401863D01*
X65351655Y-1359097D01*
X65344554Y-1353223D01*
X65102565Y-1155862D01*
X65052741Y-1122759D01*
X65003385Y-1088964D01*
X64995279Y-1084581D01*
X64719566Y-937981D01*
X64664269Y-915189D01*
X64609275Y-891619D01*
X64600472Y-888895D01*
X64301535Y-798641D01*
X64242862Y-787024D01*
X64184345Y-774585D01*
X64175180Y-773622D01*
X63864405Y-743150D01*
X63864402Y-743150D01*
X63832419Y-740000D01*
X62767581Y-740000D01*
X62734014Y-743306D01*
X62713256Y-743306D01*
X62704091Y-744269D01*
X62393771Y-779077D01*
X62335298Y-791506D01*
X62276581Y-803132D01*
X62267778Y-805858D01*
X61970130Y-900277D01*
X61915147Y-923843D01*
X61859841Y-946638D01*
X61851735Y-951021D01*
X61578095Y-1101456D01*
X61528748Y-1135245D01*
X61478913Y-1168355D01*
X61471812Y-1174229D01*
X61232603Y-1374951D01*
X61190759Y-1417681D01*
X61148305Y-1459839D01*
X61142481Y-1466980D01*
X60946814Y-1710340D01*
X60914055Y-1760400D01*
X60880609Y-1809986D01*
X60876283Y-1818123D01*
X60731612Y-2094854D01*
X60709215Y-2150289D01*
X60686022Y-2205461D01*
X60683359Y-2214283D01*
X60595193Y-2513844D01*
X60583993Y-2572560D01*
X60571955Y-2631202D01*
X60571056Y-2640373D01*
X60542755Y-2951353D01*
X49657000Y-2951353D01*
X49657000Y-660000D01*
X70140000Y-660000D01*
X70140001Y-127840000D01*
X660000Y-127840000D01*
X660000Y-125451353D01*
X4742755Y-125451353D01*
X4743173Y-125511171D01*
X4742755Y-125570988D01*
X4743655Y-125580160D01*
X4776296Y-125890715D01*
X4788320Y-125949291D01*
X4799532Y-126008070D01*
X4802196Y-126016892D01*
X4894535Y-126315192D01*
X4917715Y-126370335D01*
X4940124Y-126425800D01*
X4944451Y-126433937D01*
X5092972Y-126708621D01*
X5126417Y-126758205D01*
X5159177Y-126808268D01*
X5165001Y-126815409D01*
X5364047Y-127056013D01*
X5406482Y-127098154D01*
X5448346Y-127140903D01*
X5455446Y-127146777D01*
X5697435Y-127344138D01*
X5747259Y-127377241D01*
X5796615Y-127411036D01*
X5804721Y-127415419D01*
X6080435Y-127562019D01*
X6135704Y-127584799D01*
X6190724Y-127608381D01*
X6199527Y-127611105D01*
X6498465Y-127701359D01*
X6557138Y-127712976D01*
X6615655Y-127725415D01*
X6624820Y-127726378D01*
X6935594Y-127756850D01*
X6935598Y-127756850D01*
X6967581Y-127760000D01*
X8032419Y-127760000D01*
X8065986Y-127756694D01*
X8086744Y-127756694D01*
X8095909Y-127755731D01*
X8406228Y-127720923D01*
X8464731Y-127708487D01*
X8523419Y-127696867D01*
X8532222Y-127694142D01*
X8829870Y-127599723D01*
X8884792Y-127576183D01*
X8940159Y-127553363D01*
X8948265Y-127548979D01*
X9221904Y-127398544D01*
X9271217Y-127364779D01*
X9321088Y-127331645D01*
X9328188Y-127325770D01*
X9567397Y-127125049D01*
X9609241Y-127082320D01*
X9651694Y-127040162D01*
X9657519Y-127033020D01*
X9853185Y-126789660D01*
X9885938Y-126739608D01*
X9919391Y-126690013D01*
X9923714Y-126681881D01*
X9923717Y-126681877D01*
X9923719Y-126681873D01*
X10068388Y-126405146D01*
X10090785Y-126349711D01*
X10113978Y-126294539D01*
X10116641Y-126285717D01*
X10204807Y-125986156D01*
X10216007Y-125927440D01*
X10228045Y-125868798D01*
X10228944Y-125859627D01*
X10257245Y-125548647D01*
X10256827Y-125488830D01*
X10257088Y-125451353D01*
X60542755Y-125451353D01*
X60543173Y-125511171D01*
X60542755Y-125570988D01*
X60543655Y-125580160D01*
X60576296Y-125890715D01*
X60588320Y-125949291D01*
X60599532Y-126008070D01*
X60602196Y-126016892D01*
X60694535Y-126315192D01*
X60717715Y-126370335D01*
X60740124Y-126425800D01*
X60744451Y-126433937D01*
X60892972Y-126708621D01*
X60926417Y-126758205D01*
X60959177Y-126808268D01*
X60965001Y-126815409D01*
X61164047Y-127056013D01*
X61206482Y-127098154D01*
X61248346Y-127140903D01*
X61255446Y-127146777D01*
X61497435Y-127344138D01*
X61547259Y-127377241D01*
X61596615Y-127411036D01*
X61604721Y-127415419D01*
X61880435Y-127562019D01*
X61935704Y-127584799D01*
X61990724Y-127608381D01*
X61999527Y-127611105D01*
X62298465Y-127701359D01*
X62357138Y-127712976D01*
X62415655Y-127725415D01*
X62424820Y-127726378D01*
X62735594Y-127756850D01*
X62735598Y-127756850D01*
X62767581Y-127760000D01*
X63832419Y-127760000D01*
X63865986Y-127756694D01*
X63886744Y-127756694D01*
X63895909Y-127755731D01*
X64206228Y-127720923D01*
X64264731Y-127708487D01*
X64323419Y-127696867D01*
X64332222Y-127694142D01*
X64629870Y-127599723D01*
X64684792Y-127576183D01*
X64740159Y-127553363D01*
X64748265Y-127548979D01*
X65021904Y-127398544D01*
X65071217Y-127364779D01*
X65121088Y-127331645D01*
X65128188Y-127325770D01*
X65367397Y-127125049D01*
X65409241Y-127082320D01*
X65451694Y-127040162D01*
X65457519Y-127033020D01*
X65653185Y-126789660D01*
X65685938Y-126739608D01*
X65719391Y-126690013D01*
X65723714Y-126681881D01*
X65723717Y-126681877D01*
X65723719Y-126681873D01*
X65868388Y-126405146D01*
X65890785Y-126349711D01*
X65913978Y-126294539D01*
X65916641Y-126285717D01*
X66004807Y-125986156D01*
X66016007Y-125927440D01*
X66028045Y-125868798D01*
X66028944Y-125859627D01*
X66057245Y-125548647D01*
X66056827Y-125488829D01*
X66057245Y-125429012D01*
X66056345Y-125419841D01*
X66023704Y-125109285D01*
X66011680Y-125050709D01*
X66000468Y-124991930D01*
X65997804Y-124983108D01*
X65905465Y-124684808D01*
X65882280Y-124629653D01*
X65859876Y-124574200D01*
X65855549Y-124566064D01*
X65855549Y-124566063D01*
X65855546Y-124566059D01*
X65707028Y-124291379D01*
X65673583Y-124241795D01*
X65640823Y-124191732D01*
X65634999Y-124184591D01*
X65435954Y-123943987D01*
X65393535Y-123901863D01*
X65351655Y-123859097D01*
X65344554Y-123853223D01*
X65102565Y-123655862D01*
X65052741Y-123622759D01*
X65003385Y-123588964D01*
X64995279Y-123584581D01*
X64719566Y-123437981D01*
X64664269Y-123415189D01*
X64609275Y-123391619D01*
X64600472Y-123388895D01*
X64301535Y-123298641D01*
X64242862Y-123287024D01*
X64184345Y-123274585D01*
X64175180Y-123273622D01*
X63864405Y-123243150D01*
X63864402Y-123243150D01*
X63832419Y-123240000D01*
X62767581Y-123240000D01*
X62734014Y-123243306D01*
X62713256Y-123243306D01*
X62704091Y-123244269D01*
X62393771Y-123279077D01*
X62335298Y-123291506D01*
X62276581Y-123303132D01*
X62267778Y-123305858D01*
X61970130Y-123400277D01*
X61915147Y-123423843D01*
X61859841Y-123446638D01*
X61851735Y-123451021D01*
X61578095Y-123601456D01*
X61528748Y-123635245D01*
X61478913Y-123668355D01*
X61471812Y-123674229D01*
X61232603Y-123874951D01*
X61190759Y-123917681D01*
X61148305Y-123959839D01*
X61142481Y-123966980D01*
X60946814Y-124210340D01*
X60914055Y-124260400D01*
X60880609Y-124309986D01*
X60876283Y-124318123D01*
X60731612Y-124594854D01*
X60709215Y-124650289D01*
X60686022Y-124705461D01*
X60683359Y-124714283D01*
X60595193Y-125013844D01*
X60583993Y-125072560D01*
X60571955Y-125131202D01*
X60571056Y-125140373D01*
X60542755Y-125451353D01*
X10257088Y-125451353D01*
X10257245Y-125429012D01*
X10256345Y-125419841D01*
X10223704Y-125109285D01*
X10211680Y-125050709D01*
X10200468Y-124991930D01*
X10197804Y-124983108D01*
X10105465Y-124684808D01*
X10082280Y-124629653D01*
X10059876Y-124574200D01*
X10055549Y-124566064D01*
X10055549Y-124566063D01*
X10055546Y-124566059D01*
X9907028Y-124291379D01*
X9873583Y-124241795D01*
X9840823Y-124191732D01*
X9834999Y-124184591D01*
X9635954Y-123943987D01*
X9593535Y-123901863D01*
X9551655Y-123859097D01*
X9544554Y-123853223D01*
X9302565Y-123655862D01*
X9252741Y-123622759D01*
X9203385Y-123588964D01*
X9195279Y-123584581D01*
X8919566Y-123437981D01*
X8864269Y-123415189D01*
X8809275Y-123391619D01*
X8800472Y-123388895D01*
X8501535Y-123298641D01*
X8442862Y-123287024D01*
X8384345Y-123274585D01*
X8375180Y-123273622D01*
X8064405Y-123243150D01*
X8064402Y-123243150D01*
X8032419Y-123240000D01*
X6967581Y-123240000D01*
X6934014Y-123243306D01*
X6913256Y-123243306D01*
X6904091Y-123244269D01*
X6593771Y-123279077D01*
X6535298Y-123291506D01*
X6476581Y-123303132D01*
X6467778Y-123305858D01*
X6170130Y-123400277D01*
X6115147Y-123423843D01*
X6059841Y-123446638D01*
X6051735Y-123451021D01*
X5778095Y-123601456D01*
X5728748Y-123635245D01*
X5678913Y-123668355D01*
X5671812Y-123674229D01*
X5432603Y-123874951D01*
X5390759Y-123917681D01*
X5348305Y-123959839D01*
X5342481Y-123966980D01*
X5146814Y-124210340D01*
X5114055Y-124260400D01*
X5080609Y-124309986D01*
X5076283Y-124318123D01*
X4931612Y-124594854D01*
X4909215Y-124650289D01*
X4886022Y-124705461D01*
X4883359Y-124714283D01*
X4795193Y-125013844D01*
X4783993Y-125072560D01*
X4771955Y-125131202D01*
X4771056Y-125140373D01*
X4742755Y-125451353D01*
X660000Y-125451353D01*
X660000Y-113137740D01*
X63285000Y-113137740D01*
X63285000Y-113430260D01*
X63342068Y-113717158D01*
X63454010Y-113987411D01*
X63616525Y-114230632D01*
X63823368Y-114437475D01*
X64066589Y-114599990D01*
X64336842Y-114711932D01*
X64623740Y-114769000D01*
X64916260Y-114769000D01*
X65203158Y-114711932D01*
X65473411Y-114599990D01*
X65716632Y-114437475D01*
X65923475Y-114230632D01*
X66040000Y-114056240D01*
X66156525Y-114230632D01*
X66363368Y-114437475D01*
X66606589Y-114599990D01*
X66876842Y-114711932D01*
X67163740Y-114769000D01*
X67456260Y-114769000D01*
X67743158Y-114711932D01*
X68013411Y-114599990D01*
X68256632Y-114437475D01*
X68463475Y-114230632D01*
X68625990Y-113987411D01*
X68737932Y-113717158D01*
X68795000Y-113430260D01*
X68795000Y-113137740D01*
X68737932Y-112850842D01*
X68625990Y-112580589D01*
X68463475Y-112337368D01*
X68256632Y-112130525D01*
X68083271Y-112014689D01*
X68158792Y-111772397D01*
X67310000Y-110923605D01*
X66461208Y-111772397D01*
X66536729Y-112014689D01*
X66363368Y-112130525D01*
X66156525Y-112337368D01*
X66040000Y-112511760D01*
X65923475Y-112337368D01*
X65716632Y-112130525D01*
X65543271Y-112014689D01*
X65618792Y-111772397D01*
X64770000Y-110923605D01*
X63921208Y-111772397D01*
X63996729Y-112014689D01*
X63823368Y-112130525D01*
X63616525Y-112337368D01*
X63454010Y-112580589D01*
X63342068Y-112850842D01*
X63285000Y-113137740D01*
X660000Y-113137740D01*
X660000Y-110812531D01*
X63279389Y-110812531D01*
X63321401Y-111102019D01*
X63419081Y-111377747D01*
X63492528Y-111515157D01*
X63741603Y-111592792D01*
X64590395Y-110744000D01*
X64949605Y-110744000D01*
X65798397Y-111592792D01*
X66040000Y-111517486D01*
X66281603Y-111592792D01*
X67130395Y-110744000D01*
X67489605Y-110744000D01*
X68338397Y-111592792D01*
X68587472Y-111515157D01*
X68713371Y-111251117D01*
X68785339Y-110967589D01*
X68800611Y-110675469D01*
X68758599Y-110385981D01*
X68660919Y-110110253D01*
X68587472Y-109972843D01*
X68338397Y-109895208D01*
X67489605Y-110744000D01*
X67130395Y-110744000D01*
X66281603Y-109895208D01*
X66040000Y-109970514D01*
X65798397Y-109895208D01*
X64949605Y-110744000D01*
X64590395Y-110744000D01*
X63741603Y-109895208D01*
X63492528Y-109972843D01*
X63366629Y-110236883D01*
X63294661Y-110520411D01*
X63279389Y-110812531D01*
X660000Y-110812531D01*
X660000Y-109232397D01*
X63921208Y-109232397D01*
X63996514Y-109474000D01*
X63921208Y-109715603D01*
X64770000Y-110564395D01*
X65618792Y-109715603D01*
X65543486Y-109474000D01*
X65618792Y-109232397D01*
X66461208Y-109232397D01*
X66536514Y-109474000D01*
X66461208Y-109715603D01*
X67310000Y-110564395D01*
X68158792Y-109715603D01*
X68083486Y-109474000D01*
X68158792Y-109232397D01*
X67310000Y-108383605D01*
X66461208Y-109232397D01*
X65618792Y-109232397D01*
X64770000Y-108383605D01*
X63921208Y-109232397D01*
X660000Y-109232397D01*
X660000Y-108272531D01*
X63279389Y-108272531D01*
X63321401Y-108562019D01*
X63419081Y-108837747D01*
X63492528Y-108975157D01*
X63741603Y-109052792D01*
X64590395Y-108204000D01*
X64949605Y-108204000D01*
X65798397Y-109052792D01*
X66040000Y-108977486D01*
X66281603Y-109052792D01*
X67130395Y-108204000D01*
X67489605Y-108204000D01*
X68338397Y-109052792D01*
X68587472Y-108975157D01*
X68713371Y-108711117D01*
X68785339Y-108427589D01*
X68800611Y-108135469D01*
X68758599Y-107845981D01*
X68660919Y-107570253D01*
X68587472Y-107432843D01*
X68338397Y-107355208D01*
X67489605Y-108204000D01*
X67130395Y-108204000D01*
X66281603Y-107355208D01*
X66040000Y-107430514D01*
X65798397Y-107355208D01*
X64949605Y-108204000D01*
X64590395Y-108204000D01*
X63741603Y-107355208D01*
X63492528Y-107432843D01*
X63366629Y-107696883D01*
X63294661Y-107980411D01*
X63279389Y-108272531D01*
X660000Y-108272531D01*
X660000Y-106692397D01*
X63921208Y-106692397D01*
X63996514Y-106934000D01*
X63921208Y-107175603D01*
X64770000Y-108024395D01*
X65618792Y-107175603D01*
X65543486Y-106934000D01*
X65618792Y-106692397D01*
X66461208Y-106692397D01*
X66536514Y-106934000D01*
X66461208Y-107175603D01*
X67310000Y-108024395D01*
X68158792Y-107175603D01*
X68083486Y-106934000D01*
X68158792Y-106692397D01*
X67310000Y-105843605D01*
X66461208Y-106692397D01*
X65618792Y-106692397D01*
X64770000Y-105843605D01*
X63921208Y-106692397D01*
X660000Y-106692397D01*
X660000Y-105732531D01*
X63279389Y-105732531D01*
X63321401Y-106022019D01*
X63419081Y-106297747D01*
X63492528Y-106435157D01*
X63741603Y-106512792D01*
X64590395Y-105664000D01*
X64949605Y-105664000D01*
X65798397Y-106512792D01*
X66040000Y-106437486D01*
X66281603Y-106512792D01*
X67130395Y-105664000D01*
X67489605Y-105664000D01*
X68338397Y-106512792D01*
X68587472Y-106435157D01*
X68713371Y-106171117D01*
X68785339Y-105887589D01*
X68800611Y-105595469D01*
X68758599Y-105305981D01*
X68660919Y-105030253D01*
X68587472Y-104892843D01*
X68338397Y-104815208D01*
X67489605Y-105664000D01*
X67130395Y-105664000D01*
X66281603Y-104815208D01*
X66040000Y-104890514D01*
X65798397Y-104815208D01*
X64949605Y-105664000D01*
X64590395Y-105664000D01*
X63741603Y-104815208D01*
X63492528Y-104892843D01*
X63366629Y-105156883D01*
X63294661Y-105440411D01*
X63279389Y-105732531D01*
X660000Y-105732531D01*
X660000Y-102977740D01*
X63285000Y-102977740D01*
X63285000Y-103270260D01*
X63342068Y-103557158D01*
X63454010Y-103827411D01*
X63616525Y-104070632D01*
X63823368Y-104277475D01*
X63996729Y-104393311D01*
X63921208Y-104635603D01*
X64770000Y-105484395D01*
X65618792Y-104635603D01*
X65543271Y-104393311D01*
X65716632Y-104277475D01*
X65903715Y-104090392D01*
X65971595Y-104217386D01*
X66082038Y-104351962D01*
X66216614Y-104462405D01*
X66370150Y-104544472D01*
X66479293Y-104577580D01*
X66461208Y-104635603D01*
X67310000Y-105484395D01*
X68158792Y-104635603D01*
X68140707Y-104577580D01*
X68249850Y-104544472D01*
X68403386Y-104462405D01*
X68537962Y-104351962D01*
X68648405Y-104217386D01*
X68730472Y-104063850D01*
X68781008Y-103897254D01*
X68798072Y-103724000D01*
X68798072Y-102524000D01*
X68781008Y-102350746D01*
X68730472Y-102184150D01*
X68648405Y-102030614D01*
X68537962Y-101896038D01*
X68403386Y-101785595D01*
X68249850Y-101703528D01*
X68083254Y-101652992D01*
X67910000Y-101635928D01*
X66710000Y-101635928D01*
X66536746Y-101652992D01*
X66370150Y-101703528D01*
X66216614Y-101785595D01*
X66082038Y-101896038D01*
X65971595Y-102030614D01*
X65903715Y-102157608D01*
X65716632Y-101970525D01*
X65473411Y-101808010D01*
X65203158Y-101696068D01*
X64916260Y-101639000D01*
X64623740Y-101639000D01*
X64336842Y-101696068D01*
X64066589Y-101808010D01*
X63823368Y-101970525D01*
X63616525Y-102177368D01*
X63454010Y-102420589D01*
X63342068Y-102690842D01*
X63285000Y-102977740D01*
X660000Y-102977740D01*
X660000Y-84137059D01*
X62609000Y-84137059D01*
X62609000Y-84862941D01*
X62750613Y-85574875D01*
X63028395Y-86245502D01*
X63431674Y-86849050D01*
X63944950Y-87362326D01*
X64548498Y-87765605D01*
X65219125Y-88043387D01*
X65931059Y-88185000D01*
X66656941Y-88185000D01*
X67368875Y-88043387D01*
X68039502Y-87765605D01*
X68643050Y-87362326D01*
X69156326Y-86849050D01*
X69559605Y-86245502D01*
X69837387Y-85574875D01*
X69979000Y-84862941D01*
X69979000Y-84137059D01*
X69837387Y-83425125D01*
X69559605Y-82754498D01*
X69156326Y-82150950D01*
X68643050Y-81637674D01*
X68039502Y-81234395D01*
X67368875Y-80956613D01*
X66656941Y-80815000D01*
X65931059Y-80815000D01*
X65219125Y-80956613D01*
X64548498Y-81234395D01*
X63944950Y-81637674D01*
X63431674Y-82150950D01*
X63028395Y-82754498D01*
X62750613Y-83425125D01*
X62609000Y-84137059D01*
X660000Y-84137059D01*
X660000Y-62467582D01*
X33840000Y-62467582D01*
X33840001Y-66532419D01*
X33842749Y-66560319D01*
X33842728Y-66563308D01*
X33843627Y-66572479D01*
X33848706Y-66620799D01*
X33849551Y-66629383D01*
X33849638Y-66629669D01*
X33853827Y-66669527D01*
X33865861Y-66728152D01*
X33877064Y-66786884D01*
X33879728Y-66795706D01*
X33908584Y-66888925D01*
X33931767Y-66944075D01*
X33954175Y-66999537D01*
X33958502Y-67007673D01*
X34004914Y-67093511D01*
X34038362Y-67143098D01*
X34071119Y-67193156D01*
X34076943Y-67200297D01*
X34139145Y-67275486D01*
X34181594Y-67317639D01*
X34223439Y-67360371D01*
X34230540Y-67366245D01*
X34306160Y-67427921D01*
X34356025Y-67461052D01*
X34405350Y-67494825D01*
X34413445Y-67499202D01*
X34413448Y-67499204D01*
X34413451Y-67499205D01*
X34413456Y-67499208D01*
X34499617Y-67545020D01*
X34554909Y-67567809D01*
X34609898Y-67591378D01*
X34618701Y-67594103D01*
X34712119Y-67622308D01*
X34770826Y-67633933D01*
X34829316Y-67646365D01*
X34838470Y-67647327D01*
X34838476Y-67647328D01*
X34838481Y-67647328D01*
X34935598Y-67656850D01*
X34967581Y-67660000D01*
X37840001Y-67660000D01*
X37840000Y-72032418D01*
X37842783Y-72060673D01*
X37842740Y-72066801D01*
X37843640Y-72075972D01*
X37864041Y-72270069D01*
X37876068Y-72328658D01*
X37887277Y-72387423D01*
X37889941Y-72396245D01*
X37947653Y-72582683D01*
X37970838Y-72637838D01*
X37993242Y-72693291D01*
X37997568Y-72701427D01*
X38090393Y-72873104D01*
X38123846Y-72922699D01*
X38156600Y-72972753D01*
X38162424Y-72979894D01*
X38286828Y-73130272D01*
X38329263Y-73172411D01*
X38371126Y-73215161D01*
X38378227Y-73221034D01*
X38529469Y-73344384D01*
X38579277Y-73377477D01*
X38628651Y-73411284D01*
X38636757Y-73415667D01*
X38809080Y-73507292D01*
X38864392Y-73530090D01*
X38919366Y-73553652D01*
X38928169Y-73556377D01*
X39115006Y-73612786D01*
X39173686Y-73624405D01*
X39232196Y-73636842D01*
X39241361Y-73637805D01*
X39435594Y-73656850D01*
X39435598Y-73656850D01*
X39467581Y-73660000D01*
X57032419Y-73660000D01*
X57060674Y-73657217D01*
X57066801Y-73657260D01*
X57075972Y-73656360D01*
X57270069Y-73635959D01*
X57328658Y-73623932D01*
X57387423Y-73612723D01*
X57396245Y-73610059D01*
X57582683Y-73552347D01*
X57637838Y-73529162D01*
X57693291Y-73506758D01*
X57701427Y-73502432D01*
X57873104Y-73409607D01*
X57922699Y-73376154D01*
X57972753Y-73343400D01*
X57979894Y-73337576D01*
X58130272Y-73213172D01*
X58172411Y-73170737D01*
X58215161Y-73128874D01*
X58221034Y-73121773D01*
X58344384Y-72970531D01*
X58377477Y-72920723D01*
X58411284Y-72871349D01*
X58415667Y-72863243D01*
X58507292Y-72690920D01*
X58530090Y-72635608D01*
X58553652Y-72580634D01*
X58556377Y-72571831D01*
X58612786Y-72384994D01*
X58624405Y-72326314D01*
X58636842Y-72267804D01*
X58637805Y-72258639D01*
X58656850Y-72064406D01*
X58656850Y-72064402D01*
X58660000Y-72032419D01*
X58660000Y-69137059D01*
X62609000Y-69137059D01*
X62609000Y-69862941D01*
X62750613Y-70574875D01*
X63028395Y-71245502D01*
X63431674Y-71849050D01*
X63944950Y-72362326D01*
X64548498Y-72765605D01*
X65219125Y-73043387D01*
X65931059Y-73185000D01*
X66656941Y-73185000D01*
X67368875Y-73043387D01*
X68039502Y-72765605D01*
X68643050Y-72362326D01*
X69156326Y-71849050D01*
X69559605Y-71245502D01*
X69837387Y-70574875D01*
X69979000Y-69862941D01*
X69979000Y-69137059D01*
X69837387Y-68425125D01*
X69559605Y-67754498D01*
X69156326Y-67150950D01*
X68643050Y-66637674D01*
X68039502Y-66234395D01*
X67368875Y-65956613D01*
X66656941Y-65815000D01*
X65931059Y-65815000D01*
X65219125Y-65956613D01*
X64548498Y-66234395D01*
X63944950Y-66637674D01*
X63431674Y-67150950D01*
X63028395Y-67754498D01*
X62750613Y-68425125D01*
X62609000Y-69137059D01*
X58660000Y-69137059D01*
X58660000Y-67660000D01*
X61032419Y-67660000D01*
X61060329Y-67657251D01*
X61063308Y-67657272D01*
X61072479Y-67656373D01*
X61120648Y-67651310D01*
X61129383Y-67650450D01*
X61129674Y-67650362D01*
X61169527Y-67646173D01*
X61228152Y-67634139D01*
X61286884Y-67622936D01*
X61295706Y-67620272D01*
X61388925Y-67591416D01*
X61444075Y-67568233D01*
X61499537Y-67545825D01*
X61507666Y-67541502D01*
X61507670Y-67541500D01*
X61507673Y-67541498D01*
X61593511Y-67495086D01*
X61643098Y-67461638D01*
X61693156Y-67428881D01*
X61700297Y-67423057D01*
X61775486Y-67360855D01*
X61817639Y-67318406D01*
X61860371Y-67276561D01*
X61866245Y-67269460D01*
X61927921Y-67193840D01*
X61961052Y-67143975D01*
X61994825Y-67094650D01*
X61999208Y-67086544D01*
X62045020Y-67000383D01*
X62067809Y-66945091D01*
X62091378Y-66890102D01*
X62094103Y-66881299D01*
X62122308Y-66787881D01*
X62133933Y-66729174D01*
X62146365Y-66670684D01*
X62147327Y-66661530D01*
X62147328Y-66661524D01*
X62147328Y-66661519D01*
X62156850Y-66564402D01*
X62160000Y-66532419D01*
X62160000Y-62467581D01*
X62157251Y-62439671D01*
X62157272Y-62436693D01*
X62156373Y-62427522D01*
X62151311Y-62379360D01*
X62150450Y-62370617D01*
X62150362Y-62370325D01*
X62146173Y-62330473D01*
X62134140Y-62271854D01*
X62122936Y-62213116D01*
X62120272Y-62204294D01*
X62091416Y-62111075D01*
X62068238Y-62055937D01*
X62045825Y-62000463D01*
X62041498Y-61992327D01*
X61995085Y-61906489D01*
X61961645Y-61856913D01*
X61928881Y-61806844D01*
X61923057Y-61799703D01*
X61860855Y-61724514D01*
X61818406Y-61682361D01*
X61776561Y-61639629D01*
X61769460Y-61633755D01*
X61693839Y-61572079D01*
X61644034Y-61538988D01*
X61594650Y-61505174D01*
X61586544Y-61500792D01*
X61500383Y-61454980D01*
X61445091Y-61432191D01*
X61390102Y-61408622D01*
X61381299Y-61405897D01*
X61287881Y-61377692D01*
X61229174Y-61366067D01*
X61170684Y-61353635D01*
X61161530Y-61352673D01*
X61161524Y-61352672D01*
X61161519Y-61352672D01*
X61064402Y-61343150D01*
X61032419Y-61340000D01*
X34967581Y-61340000D01*
X34939671Y-61342749D01*
X34936693Y-61342728D01*
X34927522Y-61343627D01*
X34879360Y-61348689D01*
X34870617Y-61349550D01*
X34870325Y-61349638D01*
X34830473Y-61353827D01*
X34771854Y-61365860D01*
X34713116Y-61377064D01*
X34704294Y-61379728D01*
X34611075Y-61408584D01*
X34555937Y-61431762D01*
X34500463Y-61454175D01*
X34492334Y-61458498D01*
X34492330Y-61458500D01*
X34492327Y-61458502D01*
X34406489Y-61504915D01*
X34356913Y-61538355D01*
X34306844Y-61571119D01*
X34299703Y-61576943D01*
X34224514Y-61639145D01*
X34182361Y-61681594D01*
X34139629Y-61723439D01*
X34133755Y-61730540D01*
X34072079Y-61806161D01*
X34038988Y-61855966D01*
X34005174Y-61905350D01*
X34000792Y-61913456D01*
X33954980Y-61999617D01*
X33932191Y-62054909D01*
X33908622Y-62109898D01*
X33905897Y-62118701D01*
X33877692Y-62212119D01*
X33866067Y-62270826D01*
X33853635Y-62329316D01*
X33852673Y-62338470D01*
X33852672Y-62338476D01*
X33852672Y-62338481D01*
X33843150Y-62435598D01*
X33840000Y-62467582D01*
X660000Y-62467582D01*
X660000Y-56660000D01*
X5032419Y-56660000D01*
X5060329Y-56657251D01*
X5063308Y-56657272D01*
X5072479Y-56656373D01*
X5120648Y-56651310D01*
X5129383Y-56650450D01*
X5129674Y-56650362D01*
X5169527Y-56646173D01*
X5228152Y-56634139D01*
X5286884Y-56622936D01*
X5295706Y-56620272D01*
X5388925Y-56591416D01*
X5444075Y-56568233D01*
X5499537Y-56545825D01*
X5507666Y-56541502D01*
X5507670Y-56541500D01*
X5507673Y-56541498D01*
X5593511Y-56495086D01*
X5643098Y-56461638D01*
X5693156Y-56428881D01*
X5700297Y-56423057D01*
X5775486Y-56360855D01*
X5817639Y-56318406D01*
X5860371Y-56276561D01*
X5866245Y-56269460D01*
X5927921Y-56193840D01*
X5961052Y-56143975D01*
X5994825Y-56094650D01*
X5999208Y-56086544D01*
X6045020Y-56000383D01*
X6067809Y-55945091D01*
X6091378Y-55890102D01*
X6094103Y-55881299D01*
X6122308Y-55787881D01*
X6133933Y-55729174D01*
X6146365Y-55670684D01*
X6147327Y-55661530D01*
X6147328Y-55661524D01*
X6147328Y-55661518D01*
X6156850Y-55564402D01*
X6156850Y-55564401D01*
X6160000Y-55532419D01*
X6160000Y-44467581D01*
X6157251Y-44439671D01*
X6157272Y-44436693D01*
X6156373Y-44427522D01*
X6151311Y-44379360D01*
X6150450Y-44370617D01*
X6150362Y-44370325D01*
X6146173Y-44330473D01*
X6134140Y-44271854D01*
X6122936Y-44213116D01*
X6120272Y-44204294D01*
X6091416Y-44111075D01*
X6068238Y-44055937D01*
X6045825Y-44000463D01*
X6041498Y-43992327D01*
X5995085Y-43906489D01*
X5961645Y-43856913D01*
X5928881Y-43806844D01*
X5923057Y-43799703D01*
X5860855Y-43724514D01*
X5818406Y-43682361D01*
X5776561Y-43639629D01*
X5769460Y-43633755D01*
X5693839Y-43572079D01*
X5644034Y-43538988D01*
X5594650Y-43505174D01*
X5586544Y-43500792D01*
X5500383Y-43454980D01*
X5445091Y-43432191D01*
X5390102Y-43408622D01*
X5381299Y-43405897D01*
X5287881Y-43377692D01*
X5229174Y-43366067D01*
X5170684Y-43353635D01*
X5161530Y-43352673D01*
X5161524Y-43352672D01*
X5161519Y-43352672D01*
X5064402Y-43343150D01*
X5032419Y-43340000D01*
X660000Y-43340000D01*
X660000Y-34467582D01*
X7590000Y-34467582D01*
X7590001Y-52532419D01*
X7593235Y-52565255D01*
X7593235Y-52576623D01*
X7594198Y-52585788D01*
X7613234Y-52755494D01*
X7625667Y-52813983D01*
X7637290Y-52872686D01*
X7640016Y-52881489D01*
X7691652Y-53044265D01*
X7715204Y-53099215D01*
X7738011Y-53154550D01*
X7742394Y-53162656D01*
X7824663Y-53312303D01*
X7858458Y-53361658D01*
X7891562Y-53411485D01*
X7897436Y-53418585D01*
X8007205Y-53549403D01*
X8049935Y-53591247D01*
X8092094Y-53633702D01*
X8099236Y-53639526D01*
X8232322Y-53746531D01*
X8282392Y-53779296D01*
X8331970Y-53812737D01*
X8340102Y-53817060D01*
X8340106Y-53817063D01*
X8340110Y-53817065D01*
X8491444Y-53896180D01*
X8546869Y-53918573D01*
X8602053Y-53941771D01*
X8610875Y-53944434D01*
X8774697Y-53992649D01*
X8833437Y-54003854D01*
X8892050Y-54015886D01*
X8901221Y-54016784D01*
X8901226Y-54016785D01*
X8901232Y-54016785D01*
X9071289Y-54032263D01*
X9131109Y-54031845D01*
X9190929Y-54032263D01*
X9200101Y-54031363D01*
X9369935Y-54013512D01*
X9428505Y-54001489D01*
X9487288Y-53990276D01*
X9496110Y-53987612D01*
X9659243Y-53937114D01*
X9714361Y-53913944D01*
X9769850Y-53891526D01*
X9777986Y-53887199D01*
X9928204Y-53805977D01*
X9977813Y-53772516D01*
X10027854Y-53739770D01*
X10034995Y-53733946D01*
X10166575Y-53625092D01*
X10208694Y-53582677D01*
X10251463Y-53540796D01*
X10257336Y-53533696D01*
X10365268Y-53401359D01*
X10398350Y-53351566D01*
X10432168Y-53302177D01*
X10436551Y-53294070D01*
X10516723Y-53143289D01*
X10539517Y-53087985D01*
X10563084Y-53033001D01*
X10565809Y-53024198D01*
X10615167Y-52860715D01*
X10626781Y-52802059D01*
X10639223Y-52743524D01*
X10640186Y-52734359D01*
X10656850Y-52564404D01*
X10656850Y-52564402D01*
X10660000Y-52532419D01*
X10660000Y-52450656D01*
X16342753Y-52450656D01*
X16343171Y-52510472D01*
X16342753Y-52570288D01*
X16343652Y-52579460D01*
X16374252Y-52870605D01*
X16386283Y-52929217D01*
X16397489Y-52987963D01*
X16400153Y-52996784D01*
X16486721Y-53276440D01*
X16509899Y-53331578D01*
X16532311Y-53387050D01*
X16536638Y-53395186D01*
X16675877Y-53652702D01*
X16709304Y-53702259D01*
X16742080Y-53752347D01*
X16747905Y-53759488D01*
X16934510Y-53985056D01*
X16976965Y-54027215D01*
X17018809Y-54069945D01*
X17025909Y-54075819D01*
X17252773Y-54260845D01*
X17302566Y-54293927D01*
X17351955Y-54327745D01*
X17360061Y-54332127D01*
X17618542Y-54469564D01*
X17673836Y-54492355D01*
X17728829Y-54515925D01*
X17737632Y-54518650D01*
X18017887Y-54603264D01*
X18076564Y-54614882D01*
X18135079Y-54627320D01*
X18144242Y-54628283D01*
X18144244Y-54628283D01*
X18435596Y-54656850D01*
X18435598Y-54656850D01*
X18467581Y-54660000D01*
X44532419Y-54660000D01*
X44565884Y-54656704D01*
X44585349Y-54656704D01*
X44594514Y-54655741D01*
X44885438Y-54623108D01*
X44943941Y-54610672D01*
X45002629Y-54599052D01*
X45011432Y-54596327D01*
X45290476Y-54507809D01*
X45345412Y-54484263D01*
X45400764Y-54461449D01*
X45408870Y-54457065D01*
X45665408Y-54316032D01*
X45714753Y-54282245D01*
X45764591Y-54249133D01*
X45771691Y-54243259D01*
X45995949Y-54055084D01*
X46037793Y-54012354D01*
X46080248Y-53970195D01*
X46086072Y-53963053D01*
X46269509Y-53734903D01*
X46302251Y-53684869D01*
X46335714Y-53635258D01*
X46340040Y-53627122D01*
X46475670Y-53367687D01*
X46498082Y-53312215D01*
X46521260Y-53257077D01*
X46523923Y-53248255D01*
X46606578Y-52967417D01*
X46617785Y-52908669D01*
X46629816Y-52850059D01*
X46630715Y-52840888D01*
X46657247Y-52549344D01*
X46656829Y-52489528D01*
X46657247Y-52429712D01*
X46656348Y-52420541D01*
X46625748Y-52129395D01*
X46613710Y-52070753D01*
X46602510Y-52012037D01*
X46599847Y-52003216D01*
X46513279Y-51723560D01*
X46490101Y-51668422D01*
X46467689Y-51612950D01*
X46463362Y-51604814D01*
X46324123Y-51347298D01*
X46290701Y-51297749D01*
X46257920Y-51247653D01*
X46252095Y-51240512D01*
X46065490Y-51014945D01*
X46023054Y-50972804D01*
X45981191Y-50930055D01*
X45974091Y-50924181D01*
X45747227Y-50739155D01*
X45697408Y-50706055D01*
X45648045Y-50672256D01*
X45639939Y-50667873D01*
X45381458Y-50530436D01*
X45326164Y-50507645D01*
X45271171Y-50484075D01*
X45262368Y-50481350D01*
X44982114Y-50396736D01*
X44923429Y-50385116D01*
X44864921Y-50372680D01*
X44855758Y-50371717D01*
X44855756Y-50371717D01*
X44564404Y-50343150D01*
X44564402Y-50343150D01*
X44532419Y-50340000D01*
X18467581Y-50340000D01*
X18434116Y-50343296D01*
X18414651Y-50343296D01*
X18405486Y-50344259D01*
X18114561Y-50376892D01*
X18056044Y-50389331D01*
X17997371Y-50400948D01*
X17988568Y-50403673D01*
X17709523Y-50492191D01*
X17654588Y-50515737D01*
X17599235Y-50538551D01*
X17591129Y-50542935D01*
X17334592Y-50683968D01*
X17285247Y-50717755D01*
X17235409Y-50750867D01*
X17228309Y-50756741D01*
X17004051Y-50944916D01*
X16962207Y-50987646D01*
X16919751Y-51029806D01*
X16913927Y-51036947D01*
X16730491Y-51265097D01*
X16697744Y-51315139D01*
X16664286Y-51364742D01*
X16659960Y-51372879D01*
X16524330Y-51632313D01*
X16501918Y-51687785D01*
X16478740Y-51742923D01*
X16476077Y-51751745D01*
X16393422Y-52032583D01*
X16382224Y-52091284D01*
X16370184Y-52149940D01*
X16369285Y-52159112D01*
X16342753Y-52450656D01*
X10660000Y-52450656D01*
X10660000Y-34467581D01*
X10658334Y-34450656D01*
X16342753Y-34450656D01*
X16343171Y-34510472D01*
X16342753Y-34570288D01*
X16343652Y-34579460D01*
X16374252Y-34870605D01*
X16386283Y-34929217D01*
X16397489Y-34987963D01*
X16400153Y-34996784D01*
X16486721Y-35276440D01*
X16509899Y-35331578D01*
X16532311Y-35387050D01*
X16536638Y-35395186D01*
X16675877Y-35652702D01*
X16709304Y-35702259D01*
X16742080Y-35752347D01*
X16747905Y-35759488D01*
X16934510Y-35985056D01*
X16976965Y-36027215D01*
X17018809Y-36069945D01*
X17025909Y-36075819D01*
X17252773Y-36260845D01*
X17302566Y-36293927D01*
X17351955Y-36327745D01*
X17360061Y-36332127D01*
X17618542Y-36469564D01*
X17673836Y-36492355D01*
X17728829Y-36515925D01*
X17737632Y-36518650D01*
X18017887Y-36603264D01*
X18076564Y-36614882D01*
X18135079Y-36627320D01*
X18144242Y-36628283D01*
X18144244Y-36628283D01*
X18435596Y-36656850D01*
X18435598Y-36656850D01*
X18467581Y-36660000D01*
X44532419Y-36660000D01*
X44565884Y-36656704D01*
X44585349Y-36656704D01*
X44594514Y-36655741D01*
X44885438Y-36623108D01*
X44943941Y-36610672D01*
X45002629Y-36599052D01*
X45011432Y-36596327D01*
X45290476Y-36507809D01*
X45345412Y-36484263D01*
X45400764Y-36461449D01*
X45408870Y-36457065D01*
X45665408Y-36316032D01*
X45714753Y-36282245D01*
X45764591Y-36249133D01*
X45771691Y-36243259D01*
X45995949Y-36055084D01*
X46037793Y-36012354D01*
X46080248Y-35970195D01*
X46086072Y-35963053D01*
X46269509Y-35734903D01*
X46302251Y-35684869D01*
X46335714Y-35635258D01*
X46340040Y-35627122D01*
X46475670Y-35367687D01*
X46498082Y-35312215D01*
X46521260Y-35257077D01*
X46523923Y-35248255D01*
X46606578Y-34967417D01*
X46617785Y-34908669D01*
X46629816Y-34850059D01*
X46630715Y-34840888D01*
X46657247Y-34549344D01*
X46656829Y-34489528D01*
X46656982Y-34467582D01*
X52340000Y-34467582D01*
X52340001Y-52532419D01*
X52343235Y-52565255D01*
X52343235Y-52576623D01*
X52344198Y-52585788D01*
X52363234Y-52755494D01*
X52375667Y-52813983D01*
X52387290Y-52872686D01*
X52390016Y-52881489D01*
X52441652Y-53044265D01*
X52465204Y-53099215D01*
X52488011Y-53154550D01*
X52492394Y-53162656D01*
X52574663Y-53312303D01*
X52608458Y-53361658D01*
X52641562Y-53411485D01*
X52647436Y-53418585D01*
X52757205Y-53549403D01*
X52799935Y-53591247D01*
X52842094Y-53633702D01*
X52849236Y-53639526D01*
X52982322Y-53746531D01*
X53032392Y-53779296D01*
X53081970Y-53812737D01*
X53090102Y-53817060D01*
X53090106Y-53817063D01*
X53090110Y-53817065D01*
X53241444Y-53896180D01*
X53296869Y-53918573D01*
X53352053Y-53941771D01*
X53360875Y-53944434D01*
X53524697Y-53992649D01*
X53583437Y-54003854D01*
X53642050Y-54015886D01*
X53651221Y-54016784D01*
X53651226Y-54016785D01*
X53651232Y-54016785D01*
X53821289Y-54032263D01*
X53881109Y-54031845D01*
X53940929Y-54032263D01*
X53950101Y-54031363D01*
X54119935Y-54013512D01*
X54178505Y-54001489D01*
X54237288Y-53990276D01*
X54246110Y-53987612D01*
X54409243Y-53937114D01*
X54464361Y-53913944D01*
X54519850Y-53891526D01*
X54527986Y-53887199D01*
X54678204Y-53805977D01*
X54727813Y-53772516D01*
X54777854Y-53739770D01*
X54784995Y-53733946D01*
X54916575Y-53625092D01*
X54958694Y-53582677D01*
X55001463Y-53540796D01*
X55007336Y-53533696D01*
X55115268Y-53401359D01*
X55148350Y-53351566D01*
X55182168Y-53302177D01*
X55186551Y-53294070D01*
X55266723Y-53143289D01*
X55289517Y-53087985D01*
X55313084Y-53033001D01*
X55315809Y-53024198D01*
X55365167Y-52860715D01*
X55376781Y-52802059D01*
X55389223Y-52743524D01*
X55390186Y-52734359D01*
X55406850Y-52564404D01*
X55406850Y-52564402D01*
X55410000Y-52532419D01*
X55410000Y-44467582D01*
X56340000Y-44467582D01*
X56340002Y-55532419D01*
X56342750Y-55560319D01*
X56342729Y-55563308D01*
X56343628Y-55572479D01*
X56348707Y-55620799D01*
X56349552Y-55629383D01*
X56349639Y-55629669D01*
X56353828Y-55669527D01*
X56365864Y-55728162D01*
X56377066Y-55786886D01*
X56379730Y-55795708D01*
X56408586Y-55888926D01*
X56431751Y-55944032D01*
X56454174Y-55999533D01*
X56458501Y-56007669D01*
X56504914Y-56093508D01*
X56538355Y-56143086D01*
X56571120Y-56193156D01*
X56576944Y-56200297D01*
X56639146Y-56275486D01*
X56681581Y-56317625D01*
X56723444Y-56360375D01*
X56730545Y-56366248D01*
X56806165Y-56427923D01*
X56855992Y-56461028D01*
X56905348Y-56494823D01*
X56913454Y-56499206D01*
X56999614Y-56545018D01*
X57054923Y-56567815D01*
X57109898Y-56591377D01*
X57118701Y-56594102D01*
X57212119Y-56622307D01*
X57270826Y-56633932D01*
X57329316Y-56646364D01*
X57338470Y-56647326D01*
X57338476Y-56647327D01*
X57338481Y-56647327D01*
X57433368Y-56656630D01*
X57467581Y-56660000D01*
X61732419Y-56660000D01*
X61760338Y-56657250D01*
X61763308Y-56657271D01*
X61772479Y-56656372D01*
X61820497Y-56651325D01*
X61829383Y-56650450D01*
X61829679Y-56650360D01*
X61869527Y-56646172D01*
X61928152Y-56634138D01*
X61986884Y-56622935D01*
X61995706Y-56620271D01*
X62088925Y-56591415D01*
X62144075Y-56568232D01*
X62199537Y-56545824D01*
X62207666Y-56541501D01*
X62207670Y-56541499D01*
X62207673Y-56541497D01*
X62293511Y-56495085D01*
X62343098Y-56461637D01*
X62393156Y-56428880D01*
X62400297Y-56423056D01*
X62475486Y-56360854D01*
X62517639Y-56318405D01*
X62560371Y-56276560D01*
X62566245Y-56269459D01*
X62627921Y-56193839D01*
X62661052Y-56143974D01*
X62694825Y-56094649D01*
X62699208Y-56086543D01*
X62745020Y-56000382D01*
X62767809Y-55945090D01*
X62791378Y-55890101D01*
X62794103Y-55881298D01*
X62822308Y-55787880D01*
X62827656Y-55760873D01*
X63028395Y-56245502D01*
X63431674Y-56849050D01*
X63944950Y-57362326D01*
X64548498Y-57765605D01*
X65219125Y-58043387D01*
X65931059Y-58185000D01*
X66656941Y-58185000D01*
X67368875Y-58043387D01*
X68039502Y-57765605D01*
X68643050Y-57362326D01*
X69156326Y-56849050D01*
X69559605Y-56245502D01*
X69837387Y-55574875D01*
X69979000Y-54862941D01*
X69979000Y-54137059D01*
X69837387Y-53425125D01*
X69559605Y-52754498D01*
X69156326Y-52150950D01*
X68643050Y-51637674D01*
X68039502Y-51234395D01*
X67368875Y-50956613D01*
X66656941Y-50815000D01*
X65931059Y-50815000D01*
X65219125Y-50956613D01*
X64548498Y-51234395D01*
X63944950Y-51637674D01*
X63431674Y-52150950D01*
X63028395Y-52754498D01*
X62860000Y-53161042D01*
X62859998Y-44467580D01*
X62857250Y-44439680D01*
X62857271Y-44436692D01*
X62856372Y-44427521D01*
X62851294Y-44379208D01*
X62850448Y-44370616D01*
X62850361Y-44370329D01*
X62846172Y-44330472D01*
X62834137Y-44271843D01*
X62822934Y-44213113D01*
X62820271Y-44204292D01*
X62820270Y-44204290D01*
X62791414Y-44111073D01*
X62768235Y-44055934D01*
X62745825Y-44000466D01*
X62741499Y-43992330D01*
X62695086Y-43906491D01*
X62661645Y-43856913D01*
X62628880Y-43806843D01*
X62623056Y-43799702D01*
X62560854Y-43724513D01*
X62518419Y-43682374D01*
X62476556Y-43639624D01*
X62469455Y-43633750D01*
X62393834Y-43572076D01*
X62344026Y-43538983D01*
X62294652Y-43505176D01*
X62286546Y-43500793D01*
X62200386Y-43454981D01*
X62145077Y-43432184D01*
X62090102Y-43408622D01*
X62081299Y-43405897D01*
X61987881Y-43377692D01*
X61929174Y-43366067D01*
X61870684Y-43353635D01*
X61861530Y-43352673D01*
X61861524Y-43352672D01*
X61861519Y-43352672D01*
X61764402Y-43343150D01*
X61732419Y-43340000D01*
X57467581Y-43340000D01*
X57439671Y-43342749D01*
X57436693Y-43342728D01*
X57427522Y-43343627D01*
X57379360Y-43348689D01*
X57370617Y-43349550D01*
X57370325Y-43349638D01*
X57330473Y-43353827D01*
X57271854Y-43365860D01*
X57213116Y-43377064D01*
X57204294Y-43379728D01*
X57111075Y-43408584D01*
X57055937Y-43431762D01*
X57000463Y-43454175D01*
X56992334Y-43458498D01*
X56992330Y-43458500D01*
X56992327Y-43458502D01*
X56906489Y-43504915D01*
X56856913Y-43538355D01*
X56806844Y-43571119D01*
X56799703Y-43576943D01*
X56724514Y-43639145D01*
X56682361Y-43681594D01*
X56639629Y-43723439D01*
X56633755Y-43730540D01*
X56572079Y-43806161D01*
X56538988Y-43855966D01*
X56505174Y-43905350D01*
X56500792Y-43913456D01*
X56454980Y-43999617D01*
X56432191Y-44054909D01*
X56408622Y-44109898D01*
X56405897Y-44118701D01*
X56377692Y-44212119D01*
X56366067Y-44270826D01*
X56353635Y-44329316D01*
X56352673Y-44338470D01*
X56352672Y-44338476D01*
X56352672Y-44338481D01*
X56343150Y-44435598D01*
X56340000Y-44467582D01*
X55410000Y-44467582D01*
X55410000Y-39137059D01*
X62609000Y-39137059D01*
X62609000Y-39862941D01*
X62750613Y-40574875D01*
X63028395Y-41245502D01*
X63431674Y-41849050D01*
X63944950Y-42362326D01*
X64548498Y-42765605D01*
X65219125Y-43043387D01*
X65931059Y-43185000D01*
X66656941Y-43185000D01*
X67368875Y-43043387D01*
X68039502Y-42765605D01*
X68643050Y-42362326D01*
X69156326Y-41849050D01*
X69559605Y-41245502D01*
X69837387Y-40574875D01*
X69979000Y-39862941D01*
X69979000Y-39137059D01*
X69837387Y-38425125D01*
X69559605Y-37754498D01*
X69156326Y-37150950D01*
X68643050Y-36637674D01*
X68039502Y-36234395D01*
X67368875Y-35956613D01*
X66656941Y-35815000D01*
X65931059Y-35815000D01*
X65219125Y-35956613D01*
X64548498Y-36234395D01*
X63944950Y-36637674D01*
X63431674Y-37150950D01*
X63028395Y-37754498D01*
X62750613Y-38425125D01*
X62609000Y-39137059D01*
X55410000Y-39137059D01*
X55410000Y-34467581D01*
X55406765Y-34434735D01*
X55406765Y-34423376D01*
X55405802Y-34414212D01*
X55386766Y-34244506D01*
X55374332Y-34186009D01*
X55362710Y-34127315D01*
X55359984Y-34118512D01*
X55308348Y-33955735D01*
X55284796Y-33900785D01*
X55261989Y-33845450D01*
X55257606Y-33837344D01*
X55175337Y-33687697D01*
X55141549Y-33638350D01*
X55108439Y-33588516D01*
X55102564Y-33581415D01*
X54992795Y-33450597D01*
X54950065Y-33408753D01*
X54907905Y-33366297D01*
X54900764Y-33360473D01*
X54767677Y-33253469D01*
X54717625Y-33220716D01*
X54668030Y-33187263D01*
X54659898Y-33182940D01*
X54659894Y-33182937D01*
X54659890Y-33182935D01*
X54508556Y-33103820D01*
X54453098Y-33081414D01*
X54397947Y-33058230D01*
X54389125Y-33055566D01*
X54225303Y-33007351D01*
X54166563Y-32996146D01*
X54107950Y-32984114D01*
X54098779Y-32983216D01*
X54098774Y-32983215D01*
X54098768Y-32983215D01*
X53928711Y-32967738D01*
X53868929Y-32968155D01*
X53809071Y-32967737D01*
X53799900Y-32968637D01*
X53630065Y-32986488D01*
X53571501Y-32998510D01*
X53512712Y-33009724D01*
X53503890Y-33012388D01*
X53340757Y-33062886D01*
X53285577Y-33086081D01*
X53230150Y-33108475D01*
X53222014Y-33112801D01*
X53071796Y-33194023D01*
X53022234Y-33227454D01*
X52972146Y-33260230D01*
X52965005Y-33266054D01*
X52833425Y-33374907D01*
X52791286Y-33417341D01*
X52748537Y-33459204D01*
X52742664Y-33466304D01*
X52634732Y-33598641D01*
X52601638Y-33648452D01*
X52567832Y-33697824D01*
X52563449Y-33705930D01*
X52483277Y-33856711D01*
X52460488Y-33912003D01*
X52436916Y-33966999D01*
X52434191Y-33975802D01*
X52384833Y-34139284D01*
X52373216Y-34197955D01*
X52360777Y-34256476D01*
X52359814Y-34265641D01*
X52343150Y-34435596D01*
X52340000Y-34467582D01*
X46656982Y-34467582D01*
X46657247Y-34429712D01*
X46656348Y-34420541D01*
X46625748Y-34129395D01*
X46613710Y-34070753D01*
X46602510Y-34012037D01*
X46599847Y-34003216D01*
X46513279Y-33723560D01*
X46490101Y-33668422D01*
X46467689Y-33612950D01*
X46463362Y-33604814D01*
X46324123Y-33347298D01*
X46290701Y-33297749D01*
X46257920Y-33247653D01*
X46252095Y-33240512D01*
X46065490Y-33014945D01*
X46023054Y-32972804D01*
X45981191Y-32930055D01*
X45974091Y-32924181D01*
X45747227Y-32739155D01*
X45697408Y-32706055D01*
X45648045Y-32672256D01*
X45639939Y-32667873D01*
X45381458Y-32530436D01*
X45326164Y-32507645D01*
X45271171Y-32484075D01*
X45262368Y-32481350D01*
X44982114Y-32396736D01*
X44923429Y-32385116D01*
X44864921Y-32372680D01*
X44855758Y-32371717D01*
X44855756Y-32371717D01*
X44564404Y-32343150D01*
X44564402Y-32343150D01*
X44532419Y-32340000D01*
X18467581Y-32340000D01*
X18434116Y-32343296D01*
X18414651Y-32343296D01*
X18405486Y-32344259D01*
X18114561Y-32376892D01*
X18056044Y-32389331D01*
X17997371Y-32400948D01*
X17988568Y-32403673D01*
X17709523Y-32492191D01*
X17654588Y-32515737D01*
X17599235Y-32538551D01*
X17591129Y-32542935D01*
X17334592Y-32683968D01*
X17285247Y-32717755D01*
X17235409Y-32750867D01*
X17228309Y-32756741D01*
X17004051Y-32944916D01*
X16962207Y-32987646D01*
X16919751Y-33029806D01*
X16913927Y-33036947D01*
X16730491Y-33265097D01*
X16697744Y-33315139D01*
X16664286Y-33364742D01*
X16659960Y-33372879D01*
X16524330Y-33632313D01*
X16501918Y-33687785D01*
X16478740Y-33742923D01*
X16476077Y-33751745D01*
X16393422Y-34032583D01*
X16382224Y-34091284D01*
X16370184Y-34149940D01*
X16369285Y-34159112D01*
X16342753Y-34450656D01*
X10658334Y-34450656D01*
X10656765Y-34434735D01*
X10656765Y-34423376D01*
X10655802Y-34414212D01*
X10636766Y-34244506D01*
X10624332Y-34186009D01*
X10612710Y-34127315D01*
X10609984Y-34118512D01*
X10558348Y-33955735D01*
X10534796Y-33900785D01*
X10511989Y-33845450D01*
X10507606Y-33837344D01*
X10425337Y-33687697D01*
X10391549Y-33638350D01*
X10358439Y-33588516D01*
X10352564Y-33581415D01*
X10242795Y-33450597D01*
X10200065Y-33408753D01*
X10157905Y-33366297D01*
X10150764Y-33360473D01*
X10017677Y-33253469D01*
X9967625Y-33220716D01*
X9918030Y-33187263D01*
X9909898Y-33182940D01*
X9909894Y-33182937D01*
X9909890Y-33182935D01*
X9758556Y-33103820D01*
X9703098Y-33081414D01*
X9647947Y-33058230D01*
X9639125Y-33055566D01*
X9475303Y-33007351D01*
X9416563Y-32996146D01*
X9357950Y-32984114D01*
X9348779Y-32983216D01*
X9348774Y-32983215D01*
X9348768Y-32983215D01*
X9178711Y-32967738D01*
X9118929Y-32968155D01*
X9059071Y-32967737D01*
X9049900Y-32968637D01*
X8880065Y-32986488D01*
X8821501Y-32998510D01*
X8762712Y-33009724D01*
X8753890Y-33012388D01*
X8590757Y-33062886D01*
X8535577Y-33086081D01*
X8480150Y-33108475D01*
X8472014Y-33112801D01*
X8321796Y-33194023D01*
X8272234Y-33227454D01*
X8222146Y-33260230D01*
X8215005Y-33266054D01*
X8083425Y-33374907D01*
X8041286Y-33417341D01*
X7998537Y-33459204D01*
X7992664Y-33466304D01*
X7884732Y-33598641D01*
X7851638Y-33648452D01*
X7817832Y-33697824D01*
X7813449Y-33705930D01*
X7733277Y-33856711D01*
X7710488Y-33912003D01*
X7686916Y-33966999D01*
X7684191Y-33975802D01*
X7634833Y-34139284D01*
X7623216Y-34197955D01*
X7610777Y-34256476D01*
X7609814Y-34265641D01*
X7593150Y-34435596D01*
X7590000Y-34467582D01*
X660000Y-34467582D01*
X660000Y-31394061D01*
X11411000Y-31394061D01*
X11411000Y-31597939D01*
X11450774Y-31797898D01*
X11528795Y-31986256D01*
X11642063Y-32155774D01*
X11786226Y-32299937D01*
X11955744Y-32413205D01*
X12144102Y-32491226D01*
X12344061Y-32531000D01*
X12547939Y-32531000D01*
X12747898Y-32491226D01*
X12936256Y-32413205D01*
X13105774Y-32299937D01*
X13249937Y-32155774D01*
X13363205Y-31986256D01*
X13441226Y-31797898D01*
X13451151Y-31748000D01*
X23076678Y-31748000D01*
X23114000Y-31751676D01*
X23151322Y-31748000D01*
X23151333Y-31748000D01*
X23262986Y-31737003D01*
X23406247Y-31693546D01*
X23538276Y-31622974D01*
X23654001Y-31528001D01*
X23677804Y-31498998D01*
X24169802Y-31007000D01*
X24231939Y-31007000D01*
X24431898Y-30967226D01*
X24620256Y-30889205D01*
X24789774Y-30775937D01*
X24933937Y-30631774D01*
X25047205Y-30462256D01*
X25125226Y-30273898D01*
X25165000Y-30073939D01*
X25165000Y-29870061D01*
X25125226Y-29670102D01*
X25047205Y-29481744D01*
X24933937Y-29312226D01*
X24789774Y-29168063D01*
X24620256Y-29054795D01*
X24431898Y-28976774D01*
X24231939Y-28937000D01*
X24028061Y-28937000D01*
X23828102Y-28976774D01*
X23639744Y-29054795D01*
X23470226Y-29168063D01*
X23326063Y-29312226D01*
X23212795Y-29481744D01*
X23134774Y-29670102D01*
X23095000Y-29870061D01*
X23095000Y-29932198D01*
X22799199Y-30228000D01*
X12991322Y-30228000D01*
X12953999Y-30224324D01*
X12916676Y-30228000D01*
X12916667Y-30228000D01*
X12805014Y-30238997D01*
X12661753Y-30282454D01*
X12529724Y-30353026D01*
X12413999Y-30447999D01*
X12403329Y-30461000D01*
X12344061Y-30461000D01*
X12144102Y-30500774D01*
X11955744Y-30578795D01*
X11786226Y-30692063D01*
X11642063Y-30836226D01*
X11528795Y-31005744D01*
X11450774Y-31194102D01*
X11411000Y-31394061D01*
X660000Y-31394061D01*
X660000Y-30392294D01*
X681767Y-30444075D01*
X704175Y-30499537D01*
X708502Y-30507673D01*
X754914Y-30593511D01*
X788362Y-30643098D01*
X821119Y-30693156D01*
X826943Y-30700297D01*
X889145Y-30775486D01*
X931594Y-30817639D01*
X973439Y-30860371D01*
X980540Y-30866245D01*
X1056160Y-30927921D01*
X1106025Y-30961052D01*
X1155350Y-30994825D01*
X1163445Y-30999202D01*
X1163448Y-30999204D01*
X1163451Y-30999205D01*
X1163456Y-30999208D01*
X1249617Y-31045020D01*
X1304909Y-31067809D01*
X1359898Y-31091378D01*
X1368701Y-31094103D01*
X1462119Y-31122308D01*
X1520826Y-31133933D01*
X1579316Y-31146365D01*
X1588470Y-31147327D01*
X1588476Y-31147328D01*
X1588481Y-31147328D01*
X1685598Y-31156850D01*
X1717581Y-31160000D01*
X10032419Y-31160000D01*
X10060329Y-31157251D01*
X10063308Y-31157272D01*
X10072479Y-31156373D01*
X10120648Y-31151310D01*
X10129383Y-31150450D01*
X10129674Y-31150362D01*
X10169527Y-31146173D01*
X10228152Y-31134139D01*
X10286884Y-31122936D01*
X10295706Y-31120272D01*
X10388925Y-31091416D01*
X10444075Y-31068233D01*
X10499537Y-31045825D01*
X10507666Y-31041502D01*
X10507670Y-31041500D01*
X10507673Y-31041498D01*
X10593511Y-30995086D01*
X10643098Y-30961638D01*
X10693156Y-30928881D01*
X10700297Y-30923057D01*
X10775486Y-30860855D01*
X10817639Y-30818406D01*
X10860371Y-30776561D01*
X10866245Y-30769460D01*
X10927921Y-30693840D01*
X10961052Y-30643975D01*
X10994825Y-30594650D01*
X10999208Y-30586544D01*
X11045020Y-30500383D01*
X11067809Y-30445091D01*
X11091378Y-30390102D01*
X11094103Y-30381299D01*
X11122308Y-30287881D01*
X11133933Y-30229174D01*
X11146365Y-30170684D01*
X11147327Y-30161530D01*
X11147328Y-30161524D01*
X11147328Y-30161519D01*
X11147477Y-30160000D01*
X21532419Y-30160000D01*
X21560329Y-30157251D01*
X21563308Y-30157272D01*
X21572479Y-30156373D01*
X21620648Y-30151310D01*
X21629383Y-30150450D01*
X21629674Y-30150362D01*
X21669527Y-30146173D01*
X21728152Y-30134139D01*
X21786884Y-30122936D01*
X21795706Y-30120272D01*
X21888925Y-30091416D01*
X21944075Y-30068233D01*
X21999537Y-30045825D01*
X22007666Y-30041502D01*
X22007670Y-30041500D01*
X22007673Y-30041498D01*
X22093511Y-29995086D01*
X22143098Y-29961638D01*
X22193156Y-29928881D01*
X22200297Y-29923057D01*
X22275486Y-29860855D01*
X22317639Y-29818406D01*
X22360371Y-29776561D01*
X22366245Y-29769460D01*
X22427921Y-29693840D01*
X22461052Y-29643975D01*
X22494825Y-29594650D01*
X22499208Y-29586544D01*
X22545020Y-29500383D01*
X22567809Y-29445091D01*
X22591378Y-29390102D01*
X22594103Y-29381299D01*
X22622308Y-29287881D01*
X22633933Y-29229174D01*
X22646365Y-29170684D01*
X22647327Y-29161530D01*
X22647328Y-29161524D01*
X22647328Y-29161519D01*
X22656850Y-29064402D01*
X22660000Y-29032419D01*
X22660000Y-19467581D01*
X22657251Y-19439671D01*
X22657272Y-19436693D01*
X22656373Y-19427522D01*
X22651311Y-19379360D01*
X22650450Y-19370617D01*
X22650362Y-19370325D01*
X22646173Y-19330473D01*
X22634140Y-19271854D01*
X22622936Y-19213116D01*
X22620272Y-19204294D01*
X22591416Y-19111075D01*
X22568238Y-19055937D01*
X22545825Y-19000463D01*
X22541498Y-18992327D01*
X22495085Y-18906489D01*
X22461645Y-18856913D01*
X22428881Y-18806844D01*
X22423057Y-18799703D01*
X22360855Y-18724514D01*
X22318406Y-18682361D01*
X22276561Y-18639629D01*
X22269460Y-18633755D01*
X22193839Y-18572079D01*
X22144034Y-18538988D01*
X22094650Y-18505174D01*
X22086544Y-18500792D01*
X22000383Y-18454980D01*
X21945091Y-18432191D01*
X21890102Y-18408622D01*
X21881299Y-18405897D01*
X21787881Y-18377692D01*
X21729174Y-18366067D01*
X21670684Y-18353635D01*
X21661530Y-18352673D01*
X21661524Y-18352672D01*
X21661519Y-18352672D01*
X21564402Y-18343150D01*
X21532419Y-18340000D01*
X1717581Y-18340000D01*
X1689671Y-18342749D01*
X1686693Y-18342728D01*
X1677522Y-18343627D01*
X1629360Y-18348689D01*
X1620617Y-18349550D01*
X1620325Y-18349638D01*
X1580473Y-18353827D01*
X1521854Y-18365860D01*
X1463116Y-18377064D01*
X1454294Y-18379728D01*
X1361075Y-18408584D01*
X1305937Y-18431762D01*
X1250463Y-18454175D01*
X1242334Y-18458498D01*
X1242330Y-18458500D01*
X1242327Y-18458502D01*
X1156489Y-18504915D01*
X1106913Y-18538355D01*
X1056844Y-18571119D01*
X1049703Y-18576943D01*
X974514Y-18639145D01*
X932361Y-18681594D01*
X889629Y-18723439D01*
X883755Y-18730540D01*
X822079Y-18806161D01*
X788988Y-18855966D01*
X755174Y-18905350D01*
X750792Y-18913456D01*
X704980Y-18999617D01*
X682191Y-19054909D01*
X660000Y-19106683D01*
X660000Y-16916061D01*
X27413000Y-16916061D01*
X27413000Y-17119939D01*
X27452774Y-17319898D01*
X27530795Y-17508256D01*
X27644063Y-17677774D01*
X27788226Y-17821937D01*
X27957744Y-17935205D01*
X28146102Y-18013226D01*
X28346061Y-18053000D01*
X28549939Y-18053000D01*
X28749898Y-18013226D01*
X28938256Y-17935205D01*
X29107774Y-17821937D01*
X29251937Y-17677774D01*
X29365205Y-17508256D01*
X29443226Y-17319898D01*
X29483000Y-17119939D01*
X29483000Y-17057801D01*
X30032802Y-16508000D01*
X41005987Y-16508000D01*
X40992795Y-16527744D01*
X40914774Y-16716102D01*
X40904849Y-16766000D01*
X37121323Y-16766000D01*
X37084000Y-16762324D01*
X37046677Y-16766000D01*
X37046667Y-16766000D01*
X36935014Y-16776997D01*
X36791753Y-16820454D01*
X36659723Y-16891026D01*
X36616803Y-16926250D01*
X36543999Y-16985999D01*
X36520201Y-17014997D01*
X33996199Y-19539000D01*
X33934061Y-19539000D01*
X33734102Y-19578774D01*
X33545744Y-19656795D01*
X33376226Y-19770063D01*
X33232063Y-19914226D01*
X33118795Y-20083744D01*
X33040774Y-20272102D01*
X33001000Y-20472061D01*
X33001000Y-20675939D01*
X33040774Y-20875898D01*
X33118795Y-21064256D01*
X33232063Y-21233774D01*
X33376226Y-21377937D01*
X33545744Y-21491205D01*
X33734102Y-21569226D01*
X33934061Y-21609000D01*
X34137939Y-21609000D01*
X34337898Y-21569226D01*
X34526256Y-21491205D01*
X34695774Y-21377937D01*
X34839937Y-21233774D01*
X34953205Y-21064256D01*
X35031226Y-20875898D01*
X35071000Y-20675939D01*
X35071000Y-20613801D01*
X35217219Y-20467582D01*
X40340000Y-20467582D01*
X40340001Y-30032419D01*
X40342749Y-30060319D01*
X40342728Y-30063308D01*
X40343627Y-30072479D01*
X40348706Y-30120799D01*
X40349551Y-30129383D01*
X40349638Y-30129669D01*
X40353827Y-30169527D01*
X40365861Y-30228152D01*
X40377064Y-30286884D01*
X40379728Y-30295706D01*
X40408584Y-30388925D01*
X40431767Y-30444075D01*
X40454175Y-30499537D01*
X40458502Y-30507673D01*
X40504914Y-30593511D01*
X40538362Y-30643098D01*
X40571119Y-30693156D01*
X40576943Y-30700297D01*
X40639145Y-30775486D01*
X40681594Y-30817639D01*
X40723439Y-30860371D01*
X40730540Y-30866245D01*
X40806160Y-30927921D01*
X40856025Y-30961052D01*
X40905350Y-30994825D01*
X40913445Y-30999202D01*
X40913448Y-30999204D01*
X40913451Y-30999205D01*
X40913456Y-30999208D01*
X40999617Y-31045020D01*
X41054909Y-31067809D01*
X41109898Y-31091378D01*
X41118701Y-31094103D01*
X41212119Y-31122308D01*
X41270826Y-31133933D01*
X41329316Y-31146365D01*
X41338470Y-31147327D01*
X41338476Y-31147328D01*
X41338481Y-31147328D01*
X41435598Y-31156850D01*
X41467581Y-31160000D01*
X61532419Y-31160000D01*
X61560329Y-31157251D01*
X61563308Y-31157272D01*
X61572479Y-31156373D01*
X61620648Y-31151310D01*
X61629383Y-31150450D01*
X61629674Y-31150362D01*
X61669527Y-31146173D01*
X61728152Y-31134139D01*
X61786884Y-31122936D01*
X61795706Y-31120272D01*
X61888925Y-31091416D01*
X61944075Y-31068233D01*
X61999537Y-31045825D01*
X62007666Y-31041502D01*
X62007670Y-31041500D01*
X62007673Y-31041498D01*
X62093511Y-30995086D01*
X62143098Y-30961638D01*
X62193156Y-30928881D01*
X62200297Y-30923057D01*
X62275486Y-30860855D01*
X62317639Y-30818406D01*
X62360371Y-30776561D01*
X62366245Y-30769460D01*
X62427921Y-30693840D01*
X62461052Y-30643975D01*
X62494825Y-30594650D01*
X62499208Y-30586544D01*
X62545020Y-30500383D01*
X62567809Y-30445091D01*
X62591378Y-30390102D01*
X62594103Y-30381299D01*
X62622308Y-30287881D01*
X62633933Y-30229174D01*
X62646365Y-30170684D01*
X62647327Y-30161530D01*
X62647328Y-30161524D01*
X62647328Y-30161519D01*
X62656850Y-30064402D01*
X62660000Y-30032419D01*
X62660000Y-25820758D01*
X62917622Y-26442712D01*
X63334580Y-27066733D01*
X63865267Y-27597420D01*
X64489288Y-28014378D01*
X65182664Y-28301584D01*
X65918748Y-28448000D01*
X66669252Y-28448000D01*
X67405336Y-28301584D01*
X68098712Y-28014378D01*
X68722733Y-27597420D01*
X69253420Y-27066733D01*
X69670378Y-26442712D01*
X69957584Y-25749336D01*
X70104000Y-25013252D01*
X70104000Y-24262748D01*
X69957584Y-23526664D01*
X69670378Y-22833288D01*
X69253420Y-22209267D01*
X68722733Y-21678580D01*
X68098712Y-21261622D01*
X67405336Y-20974416D01*
X66669252Y-20828000D01*
X65918748Y-20828000D01*
X65182664Y-20974416D01*
X64489288Y-21261622D01*
X63865267Y-21678580D01*
X63334580Y-22209267D01*
X62917622Y-22833288D01*
X62660000Y-23455242D01*
X62660000Y-19467581D01*
X62657251Y-19439671D01*
X62657272Y-19436693D01*
X62656373Y-19427522D01*
X62651311Y-19379360D01*
X62650450Y-19370617D01*
X62650362Y-19370325D01*
X62646173Y-19330473D01*
X62634140Y-19271854D01*
X62622936Y-19213116D01*
X62620272Y-19204294D01*
X62591416Y-19111075D01*
X62568238Y-19055937D01*
X62545825Y-19000463D01*
X62541498Y-18992327D01*
X62495085Y-18906489D01*
X62461645Y-18856913D01*
X62428881Y-18806844D01*
X62423057Y-18799703D01*
X62360855Y-18724514D01*
X62318406Y-18682361D01*
X62276561Y-18639629D01*
X62269460Y-18633755D01*
X62193839Y-18572079D01*
X62144034Y-18538988D01*
X62094650Y-18505174D01*
X62086544Y-18500792D01*
X62000383Y-18454980D01*
X61945091Y-18432191D01*
X61890102Y-18408622D01*
X61881299Y-18405897D01*
X61787881Y-18377692D01*
X61729174Y-18366067D01*
X61670684Y-18353635D01*
X61661530Y-18352673D01*
X61661524Y-18352672D01*
X61661519Y-18352672D01*
X61564402Y-18343150D01*
X61532419Y-18340000D01*
X53467581Y-18340000D01*
X53439671Y-18342749D01*
X53436693Y-18342728D01*
X53427522Y-18343627D01*
X53379360Y-18348689D01*
X53370617Y-18349550D01*
X53370325Y-18349638D01*
X53330473Y-18353827D01*
X53271854Y-18365860D01*
X53213116Y-18377064D01*
X53204294Y-18379728D01*
X53111075Y-18408584D01*
X53055937Y-18431762D01*
X53000463Y-18454175D01*
X52992334Y-18458498D01*
X52992330Y-18458500D01*
X52992327Y-18458502D01*
X52906489Y-18504915D01*
X52856913Y-18538355D01*
X52806844Y-18571119D01*
X52799703Y-18576943D01*
X52724514Y-18639145D01*
X52682361Y-18681594D01*
X52639629Y-18723439D01*
X52633755Y-18730540D01*
X52572079Y-18806161D01*
X52538988Y-18855966D01*
X52505174Y-18905350D01*
X52500792Y-18913456D01*
X52454980Y-18999617D01*
X52432191Y-19054909D01*
X52408622Y-19109898D01*
X52405897Y-19118701D01*
X52377692Y-19212119D01*
X52366067Y-19270826D01*
X52353635Y-19329316D01*
X52352673Y-19338470D01*
X52352672Y-19338476D01*
X52352672Y-19338481D01*
X52352523Y-19340000D01*
X41467581Y-19340000D01*
X41439671Y-19342749D01*
X41436693Y-19342728D01*
X41427522Y-19343627D01*
X41379360Y-19348689D01*
X41370617Y-19349550D01*
X41370325Y-19349638D01*
X41330473Y-19353827D01*
X41271854Y-19365860D01*
X41213116Y-19377064D01*
X41204294Y-19379728D01*
X41111075Y-19408584D01*
X41055937Y-19431762D01*
X41000463Y-19454175D01*
X40992334Y-19458498D01*
X40992330Y-19458500D01*
X40992327Y-19458502D01*
X40906489Y-19504915D01*
X40856913Y-19538355D01*
X40806844Y-19571119D01*
X40799703Y-19576943D01*
X40724514Y-19639145D01*
X40682361Y-19681594D01*
X40639629Y-19723439D01*
X40633755Y-19730540D01*
X40572079Y-19806161D01*
X40538988Y-19855966D01*
X40505174Y-19905350D01*
X40500792Y-19913456D01*
X40454980Y-19999617D01*
X40432191Y-20054909D01*
X40408622Y-20109898D01*
X40405897Y-20118701D01*
X40377692Y-20212119D01*
X40366067Y-20270826D01*
X40353635Y-20329316D01*
X40352673Y-20338470D01*
X40352672Y-20338476D01*
X40352672Y-20338481D01*
X40343150Y-20435598D01*
X40340000Y-20467582D01*
X35217219Y-20467582D01*
X37398802Y-18286000D01*
X41364678Y-18286000D01*
X41402000Y-18289676D01*
X41439322Y-18286000D01*
X41439333Y-18286000D01*
X41550986Y-18275003D01*
X41694247Y-18231546D01*
X41826276Y-18160974D01*
X41942001Y-18066001D01*
X41952671Y-18053000D01*
X42011939Y-18053000D01*
X42211898Y-18013226D01*
X42400256Y-17935205D01*
X42569774Y-17821937D01*
X42713937Y-17677774D01*
X42827205Y-17508256D01*
X42905226Y-17319898D01*
X42935030Y-17170061D01*
X50781000Y-17170061D01*
X50781000Y-17373939D01*
X50820774Y-17573898D01*
X50898795Y-17762256D01*
X51012063Y-17931774D01*
X51156226Y-18075937D01*
X51325744Y-18189205D01*
X51514102Y-18267226D01*
X51714061Y-18307000D01*
X51917939Y-18307000D01*
X52117898Y-18267226D01*
X52306256Y-18189205D01*
X52475774Y-18075937D01*
X52619937Y-17931774D01*
X52733205Y-17762256D01*
X52811226Y-17573898D01*
X52851000Y-17373939D01*
X52851000Y-17311801D01*
X54613004Y-15549798D01*
X54642001Y-15526001D01*
X54736974Y-15410276D01*
X54807546Y-15278247D01*
X54851003Y-15134986D01*
X54862000Y-15023333D01*
X54862000Y-15023324D01*
X54865676Y-14986001D01*
X54862000Y-14948678D01*
X54862000Y-10982801D01*
X57034802Y-8810000D01*
X63738594Y-8810000D01*
X63816525Y-8926632D01*
X64023368Y-9133475D01*
X64197760Y-9250000D01*
X64023368Y-9366525D01*
X63816525Y-9573368D01*
X63654010Y-9816589D01*
X63648455Y-9830000D01*
X57265323Y-9830000D01*
X57228000Y-9826324D01*
X57190677Y-9830000D01*
X57190667Y-9830000D01*
X57079014Y-9840997D01*
X56935753Y-9884454D01*
X56930990Y-9887000D01*
X56794061Y-9887000D01*
X56594102Y-9926774D01*
X56405744Y-10004795D01*
X56236226Y-10118063D01*
X56092063Y-10262226D01*
X55978795Y-10431744D01*
X55900774Y-10620102D01*
X55861000Y-10820061D01*
X55861000Y-11023939D01*
X55900774Y-11223898D01*
X55978795Y-11412256D01*
X56092063Y-11581774D01*
X56236226Y-11725937D01*
X56405744Y-11839205D01*
X56594102Y-11917226D01*
X56794061Y-11957000D01*
X56997939Y-11957000D01*
X57197898Y-11917226D01*
X57386256Y-11839205D01*
X57555774Y-11725937D01*
X57699937Y-11581774D01*
X57813205Y-11412256D01*
X57838992Y-11350000D01*
X63738594Y-11350000D01*
X63816525Y-11466632D01*
X64023368Y-11673475D01*
X64197760Y-11790000D01*
X64023368Y-11906525D01*
X63816525Y-12113368D01*
X63654010Y-12356589D01*
X63648455Y-12370000D01*
X57011321Y-12370000D01*
X56973998Y-12366324D01*
X56936675Y-12370000D01*
X56936665Y-12370000D01*
X56825012Y-12380997D01*
X56681751Y-12424454D01*
X56676988Y-12427000D01*
X56540059Y-12427000D01*
X56340100Y-12466774D01*
X56151742Y-12544795D01*
X55982224Y-12658063D01*
X55838061Y-12802226D01*
X55724793Y-12971744D01*
X55646772Y-13160102D01*
X55606998Y-13360061D01*
X55606998Y-13563939D01*
X55646772Y-13763898D01*
X55724793Y-13952256D01*
X55838061Y-14121774D01*
X55982224Y-14265937D01*
X56151742Y-14379205D01*
X56340100Y-14457226D01*
X56540059Y-14497000D01*
X56743937Y-14497000D01*
X56943896Y-14457226D01*
X57132254Y-14379205D01*
X57301772Y-14265937D01*
X57445935Y-14121774D01*
X57559203Y-13952256D01*
X57584990Y-13890000D01*
X63738594Y-13890000D01*
X63816525Y-14006632D01*
X64023368Y-14213475D01*
X64197760Y-14330000D01*
X64023368Y-14446525D01*
X63816525Y-14653368D01*
X63654010Y-14896589D01*
X63616146Y-14988000D01*
X57599711Y-14988000D01*
X57555774Y-14944063D01*
X57386256Y-14830795D01*
X57197898Y-14752774D01*
X56997939Y-14713000D01*
X56794061Y-14713000D01*
X56594102Y-14752774D01*
X56405744Y-14830795D01*
X56236226Y-14944063D01*
X56092063Y-15088226D01*
X55978795Y-15257744D01*
X55900774Y-15446102D01*
X55861000Y-15646061D01*
X55861000Y-15849939D01*
X55900774Y-16049898D01*
X55978795Y-16238256D01*
X56092063Y-16407774D01*
X56236226Y-16551937D01*
X56405744Y-16665205D01*
X56594102Y-16743226D01*
X56794061Y-16783000D01*
X56997939Y-16783000D01*
X57197898Y-16743226D01*
X57386256Y-16665205D01*
X57555774Y-16551937D01*
X57599711Y-16508000D01*
X63790712Y-16508000D01*
X63816525Y-16546632D01*
X64023368Y-16753475D01*
X64266589Y-16915990D01*
X64536842Y-17027932D01*
X64823740Y-17085000D01*
X65116260Y-17085000D01*
X65403158Y-17027932D01*
X65673411Y-16915990D01*
X65916632Y-16753475D01*
X66048487Y-16621620D01*
X66070498Y-16694180D01*
X66129463Y-16804494D01*
X66208815Y-16901185D01*
X66305506Y-16980537D01*
X66415820Y-17039502D01*
X66535518Y-17075812D01*
X66660000Y-17088072D01*
X67224250Y-17085000D01*
X67383000Y-16926250D01*
X67383000Y-15727000D01*
X67637000Y-15727000D01*
X67637000Y-16926250D01*
X67795750Y-17085000D01*
X68360000Y-17088072D01*
X68484482Y-17075812D01*
X68604180Y-17039502D01*
X68714494Y-16980537D01*
X68811185Y-16901185D01*
X68890537Y-16804494D01*
X68949502Y-16694180D01*
X68985812Y-16574482D01*
X68998072Y-16450000D01*
X68995000Y-15885750D01*
X68836250Y-15727000D01*
X67637000Y-15727000D01*
X67383000Y-15727000D01*
X67363000Y-15727000D01*
X67363000Y-15473000D01*
X67383000Y-15473000D01*
X67383000Y-13187000D01*
X67637000Y-13187000D01*
X67637000Y-15473000D01*
X68836250Y-15473000D01*
X68995000Y-15314250D01*
X68998072Y-14750000D01*
X68985812Y-14625518D01*
X68949502Y-14505820D01*
X68890537Y-14395506D01*
X68811185Y-14298815D01*
X68714494Y-14219463D01*
X68604180Y-14160498D01*
X68523534Y-14136034D01*
X68607588Y-14060269D01*
X68781641Y-13826920D01*
X68906825Y-13564099D01*
X68951476Y-13416890D01*
X68830155Y-13187000D01*
X67637000Y-13187000D01*
X67383000Y-13187000D01*
X67363000Y-13187000D01*
X67363000Y-12933000D01*
X67383000Y-12933000D01*
X67383000Y-10647000D01*
X67637000Y-10647000D01*
X67637000Y-12933000D01*
X68830155Y-12933000D01*
X68951476Y-12703110D01*
X68906825Y-12555901D01*
X68781641Y-12293080D01*
X68607588Y-12059731D01*
X68391355Y-11864822D01*
X68265745Y-11790000D01*
X68391355Y-11715178D01*
X68607588Y-11520269D01*
X68781641Y-11286920D01*
X68906825Y-11024099D01*
X68951476Y-10876890D01*
X68830155Y-10647000D01*
X67637000Y-10647000D01*
X67383000Y-10647000D01*
X67363000Y-10647000D01*
X67363000Y-10393000D01*
X67383000Y-10393000D01*
X67383000Y-8107000D01*
X67637000Y-8107000D01*
X67637000Y-10393000D01*
X68830155Y-10393000D01*
X68951476Y-10163110D01*
X68906825Y-10015901D01*
X68781641Y-9753080D01*
X68607588Y-9519731D01*
X68391355Y-9324822D01*
X68265745Y-9250000D01*
X68391355Y-9175178D01*
X68607588Y-8980269D01*
X68781641Y-8746920D01*
X68906825Y-8484099D01*
X68951476Y-8336890D01*
X68830155Y-8107000D01*
X67637000Y-8107000D01*
X67383000Y-8107000D01*
X67363000Y-8107000D01*
X67363000Y-7853000D01*
X67383000Y-7853000D01*
X67383000Y-6659186D01*
X67637000Y-6659186D01*
X67637000Y-7853000D01*
X68830155Y-7853000D01*
X68951476Y-7623110D01*
X68906825Y-7475901D01*
X68781641Y-7213080D01*
X68607588Y-6979731D01*
X68391355Y-6784822D01*
X68141252Y-6635843D01*
X67866891Y-6538519D01*
X67637000Y-6659186D01*
X67383000Y-6659186D01*
X67153109Y-6538519D01*
X66878748Y-6635843D01*
X66628645Y-6784822D01*
X66412412Y-6979731D01*
X66241100Y-7209406D01*
X66123475Y-7033368D01*
X65916632Y-6826525D01*
X65673411Y-6664010D01*
X65403158Y-6552068D01*
X65116260Y-6495000D01*
X64823740Y-6495000D01*
X64536842Y-6552068D01*
X64266589Y-6664010D01*
X64023368Y-6826525D01*
X63816525Y-7033368D01*
X63654010Y-7276589D01*
X63648455Y-7290000D01*
X56757322Y-7290000D01*
X56719999Y-7286324D01*
X56682676Y-7290000D01*
X56682667Y-7290000D01*
X56571014Y-7300997D01*
X56427753Y-7344454D01*
X56295723Y-7415026D01*
X56212083Y-7483668D01*
X56179999Y-7509999D01*
X56156201Y-7538997D01*
X53590998Y-10104201D01*
X53562000Y-10127999D01*
X53538202Y-10156997D01*
X53538201Y-10156998D01*
X53467026Y-10243724D01*
X53396454Y-10375754D01*
X53352998Y-10519015D01*
X53338324Y-10668000D01*
X53342001Y-10705332D01*
X53342000Y-14671198D01*
X51776199Y-16237000D01*
X51714061Y-16237000D01*
X51514102Y-16276774D01*
X51325744Y-16354795D01*
X51156226Y-16468063D01*
X51012063Y-16612226D01*
X50898795Y-16781744D01*
X50820774Y-16970102D01*
X50781000Y-17170061D01*
X42935030Y-17170061D01*
X42945000Y-17119939D01*
X42945000Y-16916061D01*
X42905226Y-16716102D01*
X42827205Y-16527744D01*
X42814013Y-16508000D01*
X49588289Y-16508000D01*
X49632226Y-16551937D01*
X49801744Y-16665205D01*
X49990102Y-16743226D01*
X50190061Y-16783000D01*
X50393939Y-16783000D01*
X50593898Y-16743226D01*
X50782256Y-16665205D01*
X50951774Y-16551937D01*
X51095937Y-16407774D01*
X51209205Y-16238256D01*
X51287226Y-16049898D01*
X51327000Y-15849939D01*
X51327000Y-15646061D01*
X51287226Y-15446102D01*
X51209205Y-15257744D01*
X51095937Y-15088226D01*
X50951774Y-14944063D01*
X50782256Y-14830795D01*
X50593898Y-14752774D01*
X50393939Y-14713000D01*
X50190061Y-14713000D01*
X49990102Y-14752774D01*
X49801744Y-14830795D01*
X49632226Y-14944063D01*
X49588289Y-14988000D01*
X29755322Y-14988000D01*
X29717999Y-14984324D01*
X29680676Y-14988000D01*
X29680667Y-14988000D01*
X29569014Y-14998997D01*
X29425753Y-15042454D01*
X29293724Y-15113026D01*
X29177999Y-15207999D01*
X29154201Y-15236997D01*
X28408199Y-15983000D01*
X28346061Y-15983000D01*
X28146102Y-16022774D01*
X27957744Y-16100795D01*
X27788226Y-16214063D01*
X27644063Y-16358226D01*
X27530795Y-16527744D01*
X27452774Y-16716102D01*
X27413000Y-16916061D01*
X660000Y-16916061D01*
X660000Y-2951353D01*
X4742755Y-2951353D01*
X4743173Y-3011171D01*
X4742755Y-3070988D01*
X4743655Y-3080160D01*
X4776296Y-3390715D01*
X4788320Y-3449291D01*
X4799532Y-3508070D01*
X4802196Y-3516892D01*
X4894535Y-3815192D01*
X4917715Y-3870335D01*
X4940124Y-3925800D01*
X4944451Y-3933937D01*
X5092972Y-4208621D01*
X5126417Y-4258205D01*
X5159177Y-4308268D01*
X5165001Y-4315409D01*
X5364047Y-4556013D01*
X5406482Y-4598154D01*
X5448346Y-4640903D01*
X5455446Y-4646777D01*
X5697435Y-4844138D01*
X5747259Y-4877241D01*
X5796615Y-4911036D01*
X5804721Y-4915419D01*
X6080435Y-5062019D01*
X6135704Y-5084799D01*
X6190724Y-5108381D01*
X6199527Y-5111105D01*
X6498465Y-5201359D01*
X6557138Y-5212976D01*
X6615655Y-5225415D01*
X6624820Y-5226378D01*
X6935594Y-5256850D01*
X6935598Y-5256850D01*
X6967581Y-5260000D01*
X8032419Y-5260000D01*
X8065986Y-5256694D01*
X8086744Y-5256694D01*
X8095909Y-5255731D01*
X8406228Y-5220923D01*
X8464731Y-5208487D01*
X8523419Y-5196867D01*
X8532222Y-5194142D01*
X8829870Y-5099723D01*
X8884792Y-5076183D01*
X8940159Y-5053363D01*
X8948265Y-5048979D01*
X9221904Y-4898544D01*
X9271217Y-4864779D01*
X9321088Y-4831645D01*
X9328188Y-4825770D01*
X9567397Y-4625049D01*
X9609241Y-4582320D01*
X9651694Y-4540162D01*
X9657519Y-4533020D01*
X9853185Y-4289660D01*
X9885938Y-4239608D01*
X9919391Y-4190013D01*
X9923714Y-4181881D01*
X9923717Y-4181877D01*
X9923719Y-4181873D01*
X10068388Y-3905146D01*
X10090785Y-3849711D01*
X10113978Y-3794539D01*
X10116641Y-3785717D01*
X10204807Y-3486156D01*
X10216007Y-3427440D01*
X10228045Y-3368798D01*
X10228944Y-3359627D01*
X10257245Y-3048647D01*
X10256827Y-2988830D01*
X10257245Y-2929012D01*
X10256345Y-2919841D01*
X10223704Y-2609285D01*
X10211680Y-2550709D01*
X10200468Y-2491930D01*
X10197804Y-2483108D01*
X10105465Y-2184808D01*
X10082280Y-2129653D01*
X10059876Y-2074200D01*
X10055549Y-2066064D01*
X10055549Y-2066063D01*
X10055546Y-2066059D01*
X9907028Y-1791379D01*
X9873583Y-1741795D01*
X9840823Y-1691732D01*
X9834999Y-1684591D01*
X9635954Y-1443987D01*
X9593535Y-1401863D01*
X9551655Y-1359097D01*
X9544554Y-1353223D01*
X9302565Y-1155862D01*
X9252741Y-1122759D01*
X9203385Y-1088964D01*
X9195279Y-1084581D01*
X8919566Y-937981D01*
X8864269Y-915189D01*
X8809275Y-891619D01*
X8800472Y-888895D01*
X8501535Y-798641D01*
X8442862Y-787024D01*
X8384345Y-774585D01*
X8375180Y-773622D01*
X8064405Y-743150D01*
X8064402Y-743150D01*
X8032419Y-740000D01*
X6967581Y-740000D01*
X6934014Y-743306D01*
X6913256Y-743306D01*
X6904091Y-744269D01*
X6593771Y-779077D01*
X6535298Y-791506D01*
X6476581Y-803132D01*
X6467778Y-805858D01*
X6170130Y-900277D01*
X6115147Y-923843D01*
X6059841Y-946638D01*
X6051735Y-951021D01*
X5778095Y-1101456D01*
X5728748Y-1135245D01*
X5678913Y-1168355D01*
X5671812Y-1174229D01*
X5432603Y-1374951D01*
X5390759Y-1417681D01*
X5348305Y-1459839D01*
X5342481Y-1466980D01*
X5146814Y-1710340D01*
X5114055Y-1760400D01*
X5080609Y-1809986D01*
X5076283Y-1818123D01*
X4931612Y-2094854D01*
X4909215Y-2150289D01*
X4886022Y-2205461D01*
X4883359Y-2214283D01*
X4795193Y-2513844D01*
X4783993Y-2572560D01*
X4771955Y-2631202D01*
X4771056Y-2640373D01*
X4742755Y-2951353D01*
X660000Y-2951353D01*
X660000Y-660000D01*
X13843000Y-660000D01*
X13843000Y-12192000D01*
%TA.AperFunction,Conductor*%
D16*
G36*
X13843000Y-12192000D02*
G01*
X13845440Y-12216776D01*
X13852667Y-12240601D01*
X13864403Y-12262557D01*
X13880197Y-12281803D01*
X13899443Y-12297597D01*
X13921399Y-12309333D01*
X13945224Y-12316560D01*
X13970000Y-12319000D01*
X49530000Y-12319000D01*
X49554776Y-12316560D01*
X49578601Y-12309333D01*
X49600557Y-12297597D01*
X49619803Y-12281803D01*
X49635597Y-12262557D01*
X49647333Y-12240601D01*
X49654560Y-12216776D01*
X49657000Y-12192000D01*
X49657000Y-2951353D01*
X60542755Y-2951353D01*
X60543173Y-3011171D01*
X60542755Y-3070988D01*
X60543655Y-3080160D01*
X60576296Y-3390715D01*
X60588320Y-3449291D01*
X60599532Y-3508070D01*
X60602196Y-3516892D01*
X60694535Y-3815192D01*
X60717715Y-3870335D01*
X60740124Y-3925800D01*
X60744451Y-3933937D01*
X60892972Y-4208621D01*
X60926417Y-4258205D01*
X60959177Y-4308268D01*
X60965001Y-4315409D01*
X61164047Y-4556013D01*
X61206482Y-4598154D01*
X61248346Y-4640903D01*
X61255446Y-4646777D01*
X61497435Y-4844138D01*
X61547259Y-4877241D01*
X61596615Y-4911036D01*
X61604721Y-4915419D01*
X61880435Y-5062019D01*
X61935704Y-5084799D01*
X61990724Y-5108381D01*
X61999527Y-5111105D01*
X62298465Y-5201359D01*
X62357138Y-5212976D01*
X62415655Y-5225415D01*
X62424820Y-5226378D01*
X62735594Y-5256850D01*
X62735598Y-5256850D01*
X62767581Y-5260000D01*
X63832419Y-5260000D01*
X63865986Y-5256694D01*
X63886744Y-5256694D01*
X63895909Y-5255731D01*
X64206228Y-5220923D01*
X64264731Y-5208487D01*
X64323419Y-5196867D01*
X64332222Y-5194142D01*
X64629870Y-5099723D01*
X64684792Y-5076183D01*
X64740159Y-5053363D01*
X64748265Y-5048979D01*
X65021904Y-4898544D01*
X65071217Y-4864779D01*
X65121088Y-4831645D01*
X65128188Y-4825770D01*
X65367397Y-4625049D01*
X65409241Y-4582320D01*
X65451694Y-4540162D01*
X65457519Y-4533020D01*
X65653185Y-4289660D01*
X65685938Y-4239608D01*
X65719391Y-4190013D01*
X65723714Y-4181881D01*
X65723717Y-4181877D01*
X65723719Y-4181873D01*
X65868388Y-3905146D01*
X65890785Y-3849711D01*
X65913978Y-3794539D01*
X65916641Y-3785717D01*
X66004807Y-3486156D01*
X66016007Y-3427440D01*
X66028045Y-3368798D01*
X66028944Y-3359627D01*
X66057245Y-3048647D01*
X66056827Y-2988829D01*
X66057245Y-2929012D01*
X66056345Y-2919841D01*
X66023704Y-2609285D01*
X66011680Y-2550709D01*
X66000468Y-2491930D01*
X65997804Y-2483108D01*
X65905465Y-2184808D01*
X65882280Y-2129653D01*
X65859876Y-2074200D01*
X65855549Y-2066064D01*
X65855549Y-2066063D01*
X65855546Y-2066059D01*
X65707028Y-1791379D01*
X65673583Y-1741795D01*
X65640823Y-1691732D01*
X65634999Y-1684591D01*
X65435954Y-1443987D01*
X65393535Y-1401863D01*
X65351655Y-1359097D01*
X65344554Y-1353223D01*
X65102565Y-1155862D01*
X65052741Y-1122759D01*
X65003385Y-1088964D01*
X64995279Y-1084581D01*
X64719566Y-937981D01*
X64664269Y-915189D01*
X64609275Y-891619D01*
X64600472Y-888895D01*
X64301535Y-798641D01*
X64242862Y-787024D01*
X64184345Y-774585D01*
X64175180Y-773622D01*
X63864405Y-743150D01*
X63864402Y-743150D01*
X63832419Y-740000D01*
X62767581Y-740000D01*
X62734014Y-743306D01*
X62713256Y-743306D01*
X62704091Y-744269D01*
X62393771Y-779077D01*
X62335298Y-791506D01*
X62276581Y-803132D01*
X62267778Y-805858D01*
X61970130Y-900277D01*
X61915147Y-923843D01*
X61859841Y-946638D01*
X61851735Y-951021D01*
X61578095Y-1101456D01*
X61528748Y-1135245D01*
X61478913Y-1168355D01*
X61471812Y-1174229D01*
X61232603Y-1374951D01*
X61190759Y-1417681D01*
X61148305Y-1459839D01*
X61142481Y-1466980D01*
X60946814Y-1710340D01*
X60914055Y-1760400D01*
X60880609Y-1809986D01*
X60876283Y-1818123D01*
X60731612Y-2094854D01*
X60709215Y-2150289D01*
X60686022Y-2205461D01*
X60683359Y-2214283D01*
X60595193Y-2513844D01*
X60583993Y-2572560D01*
X60571955Y-2631202D01*
X60571056Y-2640373D01*
X60542755Y-2951353D01*
X49657000Y-2951353D01*
X49657000Y-660000D01*
X70140000Y-660000D01*
X70140001Y-127840000D01*
X660000Y-127840000D01*
X660000Y-125451353D01*
X4742755Y-125451353D01*
X4743173Y-125511171D01*
X4742755Y-125570988D01*
X4743655Y-125580160D01*
X4776296Y-125890715D01*
X4788320Y-125949291D01*
X4799532Y-126008070D01*
X4802196Y-126016892D01*
X4894535Y-126315192D01*
X4917715Y-126370335D01*
X4940124Y-126425800D01*
X4944451Y-126433937D01*
X5092972Y-126708621D01*
X5126417Y-126758205D01*
X5159177Y-126808268D01*
X5165001Y-126815409D01*
X5364047Y-127056013D01*
X5406482Y-127098154D01*
X5448346Y-127140903D01*
X5455446Y-127146777D01*
X5697435Y-127344138D01*
X5747259Y-127377241D01*
X5796615Y-127411036D01*
X5804721Y-127415419D01*
X6080435Y-127562019D01*
X6135704Y-127584799D01*
X6190724Y-127608381D01*
X6199527Y-127611105D01*
X6498465Y-127701359D01*
X6557138Y-127712976D01*
X6615655Y-127725415D01*
X6624820Y-127726378D01*
X6935594Y-127756850D01*
X6935598Y-127756850D01*
X6967581Y-127760000D01*
X8032419Y-127760000D01*
X8065986Y-127756694D01*
X8086744Y-127756694D01*
X8095909Y-127755731D01*
X8406228Y-127720923D01*
X8464731Y-127708487D01*
X8523419Y-127696867D01*
X8532222Y-127694142D01*
X8829870Y-127599723D01*
X8884792Y-127576183D01*
X8940159Y-127553363D01*
X8948265Y-127548979D01*
X9221904Y-127398544D01*
X9271217Y-127364779D01*
X9321088Y-127331645D01*
X9328188Y-127325770D01*
X9567397Y-127125049D01*
X9609241Y-127082320D01*
X9651694Y-127040162D01*
X9657519Y-127033020D01*
X9853185Y-126789660D01*
X9885938Y-126739608D01*
X9919391Y-126690013D01*
X9923714Y-126681881D01*
X9923717Y-126681877D01*
X9923719Y-126681873D01*
X10068388Y-126405146D01*
X10090785Y-126349711D01*
X10113978Y-126294539D01*
X10116641Y-126285717D01*
X10204807Y-125986156D01*
X10216007Y-125927440D01*
X10228045Y-125868798D01*
X10228944Y-125859627D01*
X10257245Y-125548647D01*
X10256827Y-125488830D01*
X10257088Y-125451353D01*
X60542755Y-125451353D01*
X60543173Y-125511171D01*
X60542755Y-125570988D01*
X60543655Y-125580160D01*
X60576296Y-125890715D01*
X60588320Y-125949291D01*
X60599532Y-126008070D01*
X60602196Y-126016892D01*
X60694535Y-126315192D01*
X60717715Y-126370335D01*
X60740124Y-126425800D01*
X60744451Y-126433937D01*
X60892972Y-126708621D01*
X60926417Y-126758205D01*
X60959177Y-126808268D01*
X60965001Y-126815409D01*
X61164047Y-127056013D01*
X61206482Y-127098154D01*
X61248346Y-127140903D01*
X61255446Y-127146777D01*
X61497435Y-127344138D01*
X61547259Y-127377241D01*
X61596615Y-127411036D01*
X61604721Y-127415419D01*
X61880435Y-127562019D01*
X61935704Y-127584799D01*
X61990724Y-127608381D01*
X61999527Y-127611105D01*
X62298465Y-127701359D01*
X62357138Y-127712976D01*
X62415655Y-127725415D01*
X62424820Y-127726378D01*
X62735594Y-127756850D01*
X62735598Y-127756850D01*
X62767581Y-127760000D01*
X63832419Y-127760000D01*
X63865986Y-127756694D01*
X63886744Y-127756694D01*
X63895909Y-127755731D01*
X64206228Y-127720923D01*
X64264731Y-127708487D01*
X64323419Y-127696867D01*
X64332222Y-127694142D01*
X64629870Y-127599723D01*
X64684792Y-127576183D01*
X64740159Y-127553363D01*
X64748265Y-127548979D01*
X65021904Y-127398544D01*
X65071217Y-127364779D01*
X65121088Y-127331645D01*
X65128188Y-127325770D01*
X65367397Y-127125049D01*
X65409241Y-127082320D01*
X65451694Y-127040162D01*
X65457519Y-127033020D01*
X65653185Y-126789660D01*
X65685938Y-126739608D01*
X65719391Y-126690013D01*
X65723714Y-126681881D01*
X65723717Y-126681877D01*
X65723719Y-126681873D01*
X65868388Y-126405146D01*
X65890785Y-126349711D01*
X65913978Y-126294539D01*
X65916641Y-126285717D01*
X66004807Y-125986156D01*
X66016007Y-125927440D01*
X66028045Y-125868798D01*
X66028944Y-125859627D01*
X66057245Y-125548647D01*
X66056827Y-125488829D01*
X66057245Y-125429012D01*
X66056345Y-125419841D01*
X66023704Y-125109285D01*
X66011680Y-125050709D01*
X66000468Y-124991930D01*
X65997804Y-124983108D01*
X65905465Y-124684808D01*
X65882280Y-124629653D01*
X65859876Y-124574200D01*
X65855549Y-124566064D01*
X65855549Y-124566063D01*
X65855546Y-124566059D01*
X65707028Y-124291379D01*
X65673583Y-124241795D01*
X65640823Y-124191732D01*
X65634999Y-124184591D01*
X65435954Y-123943987D01*
X65393535Y-123901863D01*
X65351655Y-123859097D01*
X65344554Y-123853223D01*
X65102565Y-123655862D01*
X65052741Y-123622759D01*
X65003385Y-123588964D01*
X64995279Y-123584581D01*
X64719566Y-123437981D01*
X64664269Y-123415189D01*
X64609275Y-123391619D01*
X64600472Y-123388895D01*
X64301535Y-123298641D01*
X64242862Y-123287024D01*
X64184345Y-123274585D01*
X64175180Y-123273622D01*
X63864405Y-123243150D01*
X63864402Y-123243150D01*
X63832419Y-123240000D01*
X62767581Y-123240000D01*
X62734014Y-123243306D01*
X62713256Y-123243306D01*
X62704091Y-123244269D01*
X62393771Y-123279077D01*
X62335298Y-123291506D01*
X62276581Y-123303132D01*
X62267778Y-123305858D01*
X61970130Y-123400277D01*
X61915147Y-123423843D01*
X61859841Y-123446638D01*
X61851735Y-123451021D01*
X61578095Y-123601456D01*
X61528748Y-123635245D01*
X61478913Y-123668355D01*
X61471812Y-123674229D01*
X61232603Y-123874951D01*
X61190759Y-123917681D01*
X61148305Y-123959839D01*
X61142481Y-123966980D01*
X60946814Y-124210340D01*
X60914055Y-124260400D01*
X60880609Y-124309986D01*
X60876283Y-124318123D01*
X60731612Y-124594854D01*
X60709215Y-124650289D01*
X60686022Y-124705461D01*
X60683359Y-124714283D01*
X60595193Y-125013844D01*
X60583993Y-125072560D01*
X60571955Y-125131202D01*
X60571056Y-125140373D01*
X60542755Y-125451353D01*
X10257088Y-125451353D01*
X10257245Y-125429012D01*
X10256345Y-125419841D01*
X10223704Y-125109285D01*
X10211680Y-125050709D01*
X10200468Y-124991930D01*
X10197804Y-124983108D01*
X10105465Y-124684808D01*
X10082280Y-124629653D01*
X10059876Y-124574200D01*
X10055549Y-124566064D01*
X10055549Y-124566063D01*
X10055546Y-124566059D01*
X9907028Y-124291379D01*
X9873583Y-124241795D01*
X9840823Y-124191732D01*
X9834999Y-124184591D01*
X9635954Y-123943987D01*
X9593535Y-123901863D01*
X9551655Y-123859097D01*
X9544554Y-123853223D01*
X9302565Y-123655862D01*
X9252741Y-123622759D01*
X9203385Y-123588964D01*
X9195279Y-123584581D01*
X8919566Y-123437981D01*
X8864269Y-123415189D01*
X8809275Y-123391619D01*
X8800472Y-123388895D01*
X8501535Y-123298641D01*
X8442862Y-123287024D01*
X8384345Y-123274585D01*
X8375180Y-123273622D01*
X8064405Y-123243150D01*
X8064402Y-123243150D01*
X8032419Y-123240000D01*
X6967581Y-123240000D01*
X6934014Y-123243306D01*
X6913256Y-123243306D01*
X6904091Y-123244269D01*
X6593771Y-123279077D01*
X6535298Y-123291506D01*
X6476581Y-123303132D01*
X6467778Y-123305858D01*
X6170130Y-123400277D01*
X6115147Y-123423843D01*
X6059841Y-123446638D01*
X6051735Y-123451021D01*
X5778095Y-123601456D01*
X5728748Y-123635245D01*
X5678913Y-123668355D01*
X5671812Y-123674229D01*
X5432603Y-123874951D01*
X5390759Y-123917681D01*
X5348305Y-123959839D01*
X5342481Y-123966980D01*
X5146814Y-124210340D01*
X5114055Y-124260400D01*
X5080609Y-124309986D01*
X5076283Y-124318123D01*
X4931612Y-124594854D01*
X4909215Y-124650289D01*
X4886022Y-124705461D01*
X4883359Y-124714283D01*
X4795193Y-125013844D01*
X4783993Y-125072560D01*
X4771955Y-125131202D01*
X4771056Y-125140373D01*
X4742755Y-125451353D01*
X660000Y-125451353D01*
X660000Y-113137740D01*
X63285000Y-113137740D01*
X63285000Y-113430260D01*
X63342068Y-113717158D01*
X63454010Y-113987411D01*
X63616525Y-114230632D01*
X63823368Y-114437475D01*
X64066589Y-114599990D01*
X64336842Y-114711932D01*
X64623740Y-114769000D01*
X64916260Y-114769000D01*
X65203158Y-114711932D01*
X65473411Y-114599990D01*
X65716632Y-114437475D01*
X65923475Y-114230632D01*
X66040000Y-114056240D01*
X66156525Y-114230632D01*
X66363368Y-114437475D01*
X66606589Y-114599990D01*
X66876842Y-114711932D01*
X67163740Y-114769000D01*
X67456260Y-114769000D01*
X67743158Y-114711932D01*
X68013411Y-114599990D01*
X68256632Y-114437475D01*
X68463475Y-114230632D01*
X68625990Y-113987411D01*
X68737932Y-113717158D01*
X68795000Y-113430260D01*
X68795000Y-113137740D01*
X68737932Y-112850842D01*
X68625990Y-112580589D01*
X68463475Y-112337368D01*
X68256632Y-112130525D01*
X68083271Y-112014689D01*
X68158792Y-111772397D01*
X67310000Y-110923605D01*
X66461208Y-111772397D01*
X66536729Y-112014689D01*
X66363368Y-112130525D01*
X66156525Y-112337368D01*
X66040000Y-112511760D01*
X65923475Y-112337368D01*
X65716632Y-112130525D01*
X65543271Y-112014689D01*
X65618792Y-111772397D01*
X64770000Y-110923605D01*
X63921208Y-111772397D01*
X63996729Y-112014689D01*
X63823368Y-112130525D01*
X63616525Y-112337368D01*
X63454010Y-112580589D01*
X63342068Y-112850842D01*
X63285000Y-113137740D01*
X660000Y-113137740D01*
X660000Y-110812531D01*
X63279389Y-110812531D01*
X63321401Y-111102019D01*
X63419081Y-111377747D01*
X63492528Y-111515157D01*
X63741603Y-111592792D01*
X64590395Y-110744000D01*
X64949605Y-110744000D01*
X65798397Y-111592792D01*
X66040000Y-111517486D01*
X66281603Y-111592792D01*
X67130395Y-110744000D01*
X67489605Y-110744000D01*
X68338397Y-111592792D01*
X68587472Y-111515157D01*
X68713371Y-111251117D01*
X68785339Y-110967589D01*
X68800611Y-110675469D01*
X68758599Y-110385981D01*
X68660919Y-110110253D01*
X68587472Y-109972843D01*
X68338397Y-109895208D01*
X67489605Y-110744000D01*
X67130395Y-110744000D01*
X66281603Y-109895208D01*
X66040000Y-109970514D01*
X65798397Y-109895208D01*
X64949605Y-110744000D01*
X64590395Y-110744000D01*
X63741603Y-109895208D01*
X63492528Y-109972843D01*
X63366629Y-110236883D01*
X63294661Y-110520411D01*
X63279389Y-110812531D01*
X660000Y-110812531D01*
X660000Y-109232397D01*
X63921208Y-109232397D01*
X63996514Y-109474000D01*
X63921208Y-109715603D01*
X64770000Y-110564395D01*
X65618792Y-109715603D01*
X65543486Y-109474000D01*
X65618792Y-109232397D01*
X66461208Y-109232397D01*
X66536514Y-109474000D01*
X66461208Y-109715603D01*
X67310000Y-110564395D01*
X68158792Y-109715603D01*
X68083486Y-109474000D01*
X68158792Y-109232397D01*
X67310000Y-108383605D01*
X66461208Y-109232397D01*
X65618792Y-109232397D01*
X64770000Y-108383605D01*
X63921208Y-109232397D01*
X660000Y-109232397D01*
X660000Y-108272531D01*
X63279389Y-108272531D01*
X63321401Y-108562019D01*
X63419081Y-108837747D01*
X63492528Y-108975157D01*
X63741603Y-109052792D01*
X64590395Y-108204000D01*
X64949605Y-108204000D01*
X65798397Y-109052792D01*
X66040000Y-108977486D01*
X66281603Y-109052792D01*
X67130395Y-108204000D01*
X67489605Y-108204000D01*
X68338397Y-109052792D01*
X68587472Y-108975157D01*
X68713371Y-108711117D01*
X68785339Y-108427589D01*
X68800611Y-108135469D01*
X68758599Y-107845981D01*
X68660919Y-107570253D01*
X68587472Y-107432843D01*
X68338397Y-107355208D01*
X67489605Y-108204000D01*
X67130395Y-108204000D01*
X66281603Y-107355208D01*
X66040000Y-107430514D01*
X65798397Y-107355208D01*
X64949605Y-108204000D01*
X64590395Y-108204000D01*
X63741603Y-107355208D01*
X63492528Y-107432843D01*
X63366629Y-107696883D01*
X63294661Y-107980411D01*
X63279389Y-108272531D01*
X660000Y-108272531D01*
X660000Y-106692397D01*
X63921208Y-106692397D01*
X63996514Y-106934000D01*
X63921208Y-107175603D01*
X64770000Y-108024395D01*
X65618792Y-107175603D01*
X65543486Y-106934000D01*
X65618792Y-106692397D01*
X66461208Y-106692397D01*
X66536514Y-106934000D01*
X66461208Y-107175603D01*
X67310000Y-108024395D01*
X68158792Y-107175603D01*
X68083486Y-106934000D01*
X68158792Y-106692397D01*
X67310000Y-105843605D01*
X66461208Y-106692397D01*
X65618792Y-106692397D01*
X64770000Y-105843605D01*
X63921208Y-106692397D01*
X660000Y-106692397D01*
X660000Y-105732531D01*
X63279389Y-105732531D01*
X63321401Y-106022019D01*
X63419081Y-106297747D01*
X63492528Y-106435157D01*
X63741603Y-106512792D01*
X64590395Y-105664000D01*
X64949605Y-105664000D01*
X65798397Y-106512792D01*
X66040000Y-106437486D01*
X66281603Y-106512792D01*
X67130395Y-105664000D01*
X67489605Y-105664000D01*
X68338397Y-106512792D01*
X68587472Y-106435157D01*
X68713371Y-106171117D01*
X68785339Y-105887589D01*
X68800611Y-105595469D01*
X68758599Y-105305981D01*
X68660919Y-105030253D01*
X68587472Y-104892843D01*
X68338397Y-104815208D01*
X67489605Y-105664000D01*
X67130395Y-105664000D01*
X66281603Y-104815208D01*
X66040000Y-104890514D01*
X65798397Y-104815208D01*
X64949605Y-105664000D01*
X64590395Y-105664000D01*
X63741603Y-104815208D01*
X63492528Y-104892843D01*
X63366629Y-105156883D01*
X63294661Y-105440411D01*
X63279389Y-105732531D01*
X660000Y-105732531D01*
X660000Y-102977740D01*
X63285000Y-102977740D01*
X63285000Y-103270260D01*
X63342068Y-103557158D01*
X63454010Y-103827411D01*
X63616525Y-104070632D01*
X63823368Y-104277475D01*
X63996729Y-104393311D01*
X63921208Y-104635603D01*
X64770000Y-105484395D01*
X65618792Y-104635603D01*
X65543271Y-104393311D01*
X65716632Y-104277475D01*
X65903715Y-104090392D01*
X65971595Y-104217386D01*
X66082038Y-104351962D01*
X66216614Y-104462405D01*
X66370150Y-104544472D01*
X66479293Y-104577580D01*
X66461208Y-104635603D01*
X67310000Y-105484395D01*
X68158792Y-104635603D01*
X68140707Y-104577580D01*
X68249850Y-104544472D01*
X68403386Y-104462405D01*
X68537962Y-104351962D01*
X68648405Y-104217386D01*
X68730472Y-104063850D01*
X68781008Y-103897254D01*
X68798072Y-103724000D01*
X68798072Y-102524000D01*
X68781008Y-102350746D01*
X68730472Y-102184150D01*
X68648405Y-102030614D01*
X68537962Y-101896038D01*
X68403386Y-101785595D01*
X68249850Y-101703528D01*
X68083254Y-101652992D01*
X67910000Y-101635928D01*
X66710000Y-101635928D01*
X66536746Y-101652992D01*
X66370150Y-101703528D01*
X66216614Y-101785595D01*
X66082038Y-101896038D01*
X65971595Y-102030614D01*
X65903715Y-102157608D01*
X65716632Y-101970525D01*
X65473411Y-101808010D01*
X65203158Y-101696068D01*
X64916260Y-101639000D01*
X64623740Y-101639000D01*
X64336842Y-101696068D01*
X64066589Y-101808010D01*
X63823368Y-101970525D01*
X63616525Y-102177368D01*
X63454010Y-102420589D01*
X63342068Y-102690842D01*
X63285000Y-102977740D01*
X660000Y-102977740D01*
X660000Y-84137059D01*
X62609000Y-84137059D01*
X62609000Y-84862941D01*
X62750613Y-85574875D01*
X63028395Y-86245502D01*
X63431674Y-86849050D01*
X63944950Y-87362326D01*
X64548498Y-87765605D01*
X65219125Y-88043387D01*
X65931059Y-88185000D01*
X66656941Y-88185000D01*
X67368875Y-88043387D01*
X68039502Y-87765605D01*
X68643050Y-87362326D01*
X69156326Y-86849050D01*
X69559605Y-86245502D01*
X69837387Y-85574875D01*
X69979000Y-84862941D01*
X69979000Y-84137059D01*
X69837387Y-83425125D01*
X69559605Y-82754498D01*
X69156326Y-82150950D01*
X68643050Y-81637674D01*
X68039502Y-81234395D01*
X67368875Y-80956613D01*
X66656941Y-80815000D01*
X65931059Y-80815000D01*
X65219125Y-80956613D01*
X64548498Y-81234395D01*
X63944950Y-81637674D01*
X63431674Y-82150950D01*
X63028395Y-82754498D01*
X62750613Y-83425125D01*
X62609000Y-84137059D01*
X660000Y-84137059D01*
X660000Y-62467582D01*
X33840000Y-62467582D01*
X33840001Y-66532419D01*
X33842749Y-66560319D01*
X33842728Y-66563308D01*
X33843627Y-66572479D01*
X33848706Y-66620799D01*
X33849551Y-66629383D01*
X33849638Y-66629669D01*
X33853827Y-66669527D01*
X33865861Y-66728152D01*
X33877064Y-66786884D01*
X33879728Y-66795706D01*
X33908584Y-66888925D01*
X33931767Y-66944075D01*
X33954175Y-66999537D01*
X33958502Y-67007673D01*
X34004914Y-67093511D01*
X34038362Y-67143098D01*
X34071119Y-67193156D01*
X34076943Y-67200297D01*
X34139145Y-67275486D01*
X34181594Y-67317639D01*
X34223439Y-67360371D01*
X34230540Y-67366245D01*
X34306160Y-67427921D01*
X34356025Y-67461052D01*
X34405350Y-67494825D01*
X34413445Y-67499202D01*
X34413448Y-67499204D01*
X34413451Y-67499205D01*
X34413456Y-67499208D01*
X34499617Y-67545020D01*
X34554909Y-67567809D01*
X34609898Y-67591378D01*
X34618701Y-67594103D01*
X34712119Y-67622308D01*
X34770826Y-67633933D01*
X34829316Y-67646365D01*
X34838470Y-67647327D01*
X34838476Y-67647328D01*
X34838481Y-67647328D01*
X34935598Y-67656850D01*
X34967581Y-67660000D01*
X37840001Y-67660000D01*
X37840000Y-72032418D01*
X37842783Y-72060673D01*
X37842740Y-72066801D01*
X37843640Y-72075972D01*
X37864041Y-72270069D01*
X37876068Y-72328658D01*
X37887277Y-72387423D01*
X37889941Y-72396245D01*
X37947653Y-72582683D01*
X37970838Y-72637838D01*
X37993242Y-72693291D01*
X37997568Y-72701427D01*
X38090393Y-72873104D01*
X38123846Y-72922699D01*
X38156600Y-72972753D01*
X38162424Y-72979894D01*
X38286828Y-73130272D01*
X38329263Y-73172411D01*
X38371126Y-73215161D01*
X38378227Y-73221034D01*
X38529469Y-73344384D01*
X38579277Y-73377477D01*
X38628651Y-73411284D01*
X38636757Y-73415667D01*
X38809080Y-73507292D01*
X38864392Y-73530090D01*
X38919366Y-73553652D01*
X38928169Y-73556377D01*
X39115006Y-73612786D01*
X39173686Y-73624405D01*
X39232196Y-73636842D01*
X39241361Y-73637805D01*
X39435594Y-73656850D01*
X39435598Y-73656850D01*
X39467581Y-73660000D01*
X57032419Y-73660000D01*
X57060674Y-73657217D01*
X57066801Y-73657260D01*
X57075972Y-73656360D01*
X57270069Y-73635959D01*
X57328658Y-73623932D01*
X57387423Y-73612723D01*
X57396245Y-73610059D01*
X57582683Y-73552347D01*
X57637838Y-73529162D01*
X57693291Y-73506758D01*
X57701427Y-73502432D01*
X57873104Y-73409607D01*
X57922699Y-73376154D01*
X57972753Y-73343400D01*
X57979894Y-73337576D01*
X58130272Y-73213172D01*
X58172411Y-73170737D01*
X58215161Y-73128874D01*
X58221034Y-73121773D01*
X58344384Y-72970531D01*
X58377477Y-72920723D01*
X58411284Y-72871349D01*
X58415667Y-72863243D01*
X58507292Y-72690920D01*
X58530090Y-72635608D01*
X58553652Y-72580634D01*
X58556377Y-72571831D01*
X58612786Y-72384994D01*
X58624405Y-72326314D01*
X58636842Y-72267804D01*
X58637805Y-72258639D01*
X58656850Y-72064406D01*
X58656850Y-72064402D01*
X58660000Y-72032419D01*
X58660000Y-69137059D01*
X62609000Y-69137059D01*
X62609000Y-69862941D01*
X62750613Y-70574875D01*
X63028395Y-71245502D01*
X63431674Y-71849050D01*
X63944950Y-72362326D01*
X64548498Y-72765605D01*
X65219125Y-73043387D01*
X65931059Y-73185000D01*
X66656941Y-73185000D01*
X67368875Y-73043387D01*
X68039502Y-72765605D01*
X68643050Y-72362326D01*
X69156326Y-71849050D01*
X69559605Y-71245502D01*
X69837387Y-70574875D01*
X69979000Y-69862941D01*
X69979000Y-69137059D01*
X69837387Y-68425125D01*
X69559605Y-67754498D01*
X69156326Y-67150950D01*
X68643050Y-66637674D01*
X68039502Y-66234395D01*
X67368875Y-65956613D01*
X66656941Y-65815000D01*
X65931059Y-65815000D01*
X65219125Y-65956613D01*
X64548498Y-66234395D01*
X63944950Y-66637674D01*
X63431674Y-67150950D01*
X63028395Y-67754498D01*
X62750613Y-68425125D01*
X62609000Y-69137059D01*
X58660000Y-69137059D01*
X58660000Y-67660000D01*
X61032419Y-67660000D01*
X61060329Y-67657251D01*
X61063308Y-67657272D01*
X61072479Y-67656373D01*
X61120648Y-67651310D01*
X61129383Y-67650450D01*
X61129674Y-67650362D01*
X61169527Y-67646173D01*
X61228152Y-67634139D01*
X61286884Y-67622936D01*
X61295706Y-67620272D01*
X61388925Y-67591416D01*
X61444075Y-67568233D01*
X61499537Y-67545825D01*
X61507666Y-67541502D01*
X61507670Y-67541500D01*
X61507673Y-67541498D01*
X61593511Y-67495086D01*
X61643098Y-67461638D01*
X61693156Y-67428881D01*
X61700297Y-67423057D01*
X61775486Y-67360855D01*
X61817639Y-67318406D01*
X61860371Y-67276561D01*
X61866245Y-67269460D01*
X61927921Y-67193840D01*
X61961052Y-67143975D01*
X61994825Y-67094650D01*
X61999208Y-67086544D01*
X62045020Y-67000383D01*
X62067809Y-66945091D01*
X62091378Y-66890102D01*
X62094103Y-66881299D01*
X62122308Y-66787881D01*
X62133933Y-66729174D01*
X62146365Y-66670684D01*
X62147327Y-66661530D01*
X62147328Y-66661524D01*
X62147328Y-66661519D01*
X62156850Y-66564402D01*
X62160000Y-66532419D01*
X62160000Y-62467581D01*
X62157251Y-62439671D01*
X62157272Y-62436693D01*
X62156373Y-62427522D01*
X62151311Y-62379360D01*
X62150450Y-62370617D01*
X62150362Y-62370325D01*
X62146173Y-62330473D01*
X62134140Y-62271854D01*
X62122936Y-62213116D01*
X62120272Y-62204294D01*
X62091416Y-62111075D01*
X62068238Y-62055937D01*
X62045825Y-62000463D01*
X62041498Y-61992327D01*
X61995085Y-61906489D01*
X61961645Y-61856913D01*
X61928881Y-61806844D01*
X61923057Y-61799703D01*
X61860855Y-61724514D01*
X61818406Y-61682361D01*
X61776561Y-61639629D01*
X61769460Y-61633755D01*
X61693839Y-61572079D01*
X61644034Y-61538988D01*
X61594650Y-61505174D01*
X61586544Y-61500792D01*
X61500383Y-61454980D01*
X61445091Y-61432191D01*
X61390102Y-61408622D01*
X61381299Y-61405897D01*
X61287881Y-61377692D01*
X61229174Y-61366067D01*
X61170684Y-61353635D01*
X61161530Y-61352673D01*
X61161524Y-61352672D01*
X61161519Y-61352672D01*
X61064402Y-61343150D01*
X61032419Y-61340000D01*
X34967581Y-61340000D01*
X34939671Y-61342749D01*
X34936693Y-61342728D01*
X34927522Y-61343627D01*
X34879360Y-61348689D01*
X34870617Y-61349550D01*
X34870325Y-61349638D01*
X34830473Y-61353827D01*
X34771854Y-61365860D01*
X34713116Y-61377064D01*
X34704294Y-61379728D01*
X34611075Y-61408584D01*
X34555937Y-61431762D01*
X34500463Y-61454175D01*
X34492334Y-61458498D01*
X34492330Y-61458500D01*
X34492327Y-61458502D01*
X34406489Y-61504915D01*
X34356913Y-61538355D01*
X34306844Y-61571119D01*
X34299703Y-61576943D01*
X34224514Y-61639145D01*
X34182361Y-61681594D01*
X34139629Y-61723439D01*
X34133755Y-61730540D01*
X34072079Y-61806161D01*
X34038988Y-61855966D01*
X34005174Y-61905350D01*
X34000792Y-61913456D01*
X33954980Y-61999617D01*
X33932191Y-62054909D01*
X33908622Y-62109898D01*
X33905897Y-62118701D01*
X33877692Y-62212119D01*
X33866067Y-62270826D01*
X33853635Y-62329316D01*
X33852673Y-62338470D01*
X33852672Y-62338476D01*
X33852672Y-62338481D01*
X33843150Y-62435598D01*
X33840000Y-62467582D01*
X660000Y-62467582D01*
X660000Y-56660000D01*
X5032419Y-56660000D01*
X5060329Y-56657251D01*
X5063308Y-56657272D01*
X5072479Y-56656373D01*
X5120648Y-56651310D01*
X5129383Y-56650450D01*
X5129674Y-56650362D01*
X5169527Y-56646173D01*
X5228152Y-56634139D01*
X5286884Y-56622936D01*
X5295706Y-56620272D01*
X5388925Y-56591416D01*
X5444075Y-56568233D01*
X5499537Y-56545825D01*
X5507666Y-56541502D01*
X5507670Y-56541500D01*
X5507673Y-56541498D01*
X5593511Y-56495086D01*
X5643098Y-56461638D01*
X5693156Y-56428881D01*
X5700297Y-56423057D01*
X5775486Y-56360855D01*
X5817639Y-56318406D01*
X5860371Y-56276561D01*
X5866245Y-56269460D01*
X5927921Y-56193840D01*
X5961052Y-56143975D01*
X5994825Y-56094650D01*
X5999208Y-56086544D01*
X6045020Y-56000383D01*
X6067809Y-55945091D01*
X6091378Y-55890102D01*
X6094103Y-55881299D01*
X6122308Y-55787881D01*
X6133933Y-55729174D01*
X6146365Y-55670684D01*
X6147327Y-55661530D01*
X6147328Y-55661524D01*
X6147328Y-55661518D01*
X6156850Y-55564402D01*
X6156850Y-55564401D01*
X6160000Y-55532419D01*
X6160000Y-44467581D01*
X6157251Y-44439671D01*
X6157272Y-44436693D01*
X6156373Y-44427522D01*
X6151311Y-44379360D01*
X6150450Y-44370617D01*
X6150362Y-44370325D01*
X6146173Y-44330473D01*
X6134140Y-44271854D01*
X6122936Y-44213116D01*
X6120272Y-44204294D01*
X6091416Y-44111075D01*
X6068238Y-44055937D01*
X6045825Y-44000463D01*
X6041498Y-43992327D01*
X5995085Y-43906489D01*
X5961645Y-43856913D01*
X5928881Y-43806844D01*
X5923057Y-43799703D01*
X5860855Y-43724514D01*
X5818406Y-43682361D01*
X5776561Y-43639629D01*
X5769460Y-43633755D01*
X5693839Y-43572079D01*
X5644034Y-43538988D01*
X5594650Y-43505174D01*
X5586544Y-43500792D01*
X5500383Y-43454980D01*
X5445091Y-43432191D01*
X5390102Y-43408622D01*
X5381299Y-43405897D01*
X5287881Y-43377692D01*
X5229174Y-43366067D01*
X5170684Y-43353635D01*
X5161530Y-43352673D01*
X5161524Y-43352672D01*
X5161519Y-43352672D01*
X5064402Y-43343150D01*
X5032419Y-43340000D01*
X660000Y-43340000D01*
X660000Y-34467582D01*
X7590000Y-34467582D01*
X7590001Y-52532419D01*
X7593235Y-52565255D01*
X7593235Y-52576623D01*
X7594198Y-52585788D01*
X7613234Y-52755494D01*
X7625667Y-52813983D01*
X7637290Y-52872686D01*
X7640016Y-52881489D01*
X7691652Y-53044265D01*
X7715204Y-53099215D01*
X7738011Y-53154550D01*
X7742394Y-53162656D01*
X7824663Y-53312303D01*
X7858458Y-53361658D01*
X7891562Y-53411485D01*
X7897436Y-53418585D01*
X8007205Y-53549403D01*
X8049935Y-53591247D01*
X8092094Y-53633702D01*
X8099236Y-53639526D01*
X8232322Y-53746531D01*
X8282392Y-53779296D01*
X8331970Y-53812737D01*
X8340102Y-53817060D01*
X8340106Y-53817063D01*
X8340110Y-53817065D01*
X8491444Y-53896180D01*
X8546869Y-53918573D01*
X8602053Y-53941771D01*
X8610875Y-53944434D01*
X8774697Y-53992649D01*
X8833437Y-54003854D01*
X8892050Y-54015886D01*
X8901221Y-54016784D01*
X8901226Y-54016785D01*
X8901232Y-54016785D01*
X9071289Y-54032263D01*
X9131109Y-54031845D01*
X9190929Y-54032263D01*
X9200101Y-54031363D01*
X9369935Y-54013512D01*
X9428505Y-54001489D01*
X9487288Y-53990276D01*
X9496110Y-53987612D01*
X9659243Y-53937114D01*
X9714361Y-53913944D01*
X9769850Y-53891526D01*
X9777986Y-53887199D01*
X9928204Y-53805977D01*
X9977813Y-53772516D01*
X10027854Y-53739770D01*
X10034995Y-53733946D01*
X10166575Y-53625092D01*
X10208694Y-53582677D01*
X10251463Y-53540796D01*
X10257336Y-53533696D01*
X10365268Y-53401359D01*
X10398350Y-53351566D01*
X10432168Y-53302177D01*
X10436551Y-53294070D01*
X10516723Y-53143289D01*
X10539517Y-53087985D01*
X10563084Y-53033001D01*
X10565809Y-53024198D01*
X10615167Y-52860715D01*
X10626781Y-52802059D01*
X10639223Y-52743524D01*
X10640186Y-52734359D01*
X10656850Y-52564404D01*
X10656850Y-52564402D01*
X10660000Y-52532419D01*
X10660000Y-52450656D01*
X16342753Y-52450656D01*
X16343171Y-52510472D01*
X16342753Y-52570288D01*
X16343652Y-52579460D01*
X16374252Y-52870605D01*
X16386283Y-52929217D01*
X16397489Y-52987963D01*
X16400153Y-52996784D01*
X16486721Y-53276440D01*
X16509899Y-53331578D01*
X16532311Y-53387050D01*
X16536638Y-53395186D01*
X16675877Y-53652702D01*
X16709304Y-53702259D01*
X16742080Y-53752347D01*
X16747905Y-53759488D01*
X16934510Y-53985056D01*
X16976965Y-54027215D01*
X17018809Y-54069945D01*
X17025909Y-54075819D01*
X17252773Y-54260845D01*
X17302566Y-54293927D01*
X17351955Y-54327745D01*
X17360061Y-54332127D01*
X17618542Y-54469564D01*
X17673836Y-54492355D01*
X17728829Y-54515925D01*
X17737632Y-54518650D01*
X18017887Y-54603264D01*
X18076564Y-54614882D01*
X18135079Y-54627320D01*
X18144242Y-54628283D01*
X18144244Y-54628283D01*
X18435596Y-54656850D01*
X18435598Y-54656850D01*
X18467581Y-54660000D01*
X44532419Y-54660000D01*
X44565884Y-54656704D01*
X44585349Y-54656704D01*
X44594514Y-54655741D01*
X44885438Y-54623108D01*
X44943941Y-54610672D01*
X45002629Y-54599052D01*
X45011432Y-54596327D01*
X45290476Y-54507809D01*
X45345412Y-54484263D01*
X45400764Y-54461449D01*
X45408870Y-54457065D01*
X45665408Y-54316032D01*
X45714753Y-54282245D01*
X45764591Y-54249133D01*
X45771691Y-54243259D01*
X45995949Y-54055084D01*
X46037793Y-54012354D01*
X46080248Y-53970195D01*
X46086072Y-53963053D01*
X46269509Y-53734903D01*
X46302251Y-53684869D01*
X46335714Y-53635258D01*
X46340040Y-53627122D01*
X46475670Y-53367687D01*
X46498082Y-53312215D01*
X46521260Y-53257077D01*
X46523923Y-53248255D01*
X46606578Y-52967417D01*
X46617785Y-52908669D01*
X46629816Y-52850059D01*
X46630715Y-52840888D01*
X46657247Y-52549344D01*
X46656829Y-52489528D01*
X46657247Y-52429712D01*
X46656348Y-52420541D01*
X46625748Y-52129395D01*
X46613710Y-52070753D01*
X46602510Y-52012037D01*
X46599847Y-52003216D01*
X46513279Y-51723560D01*
X46490101Y-51668422D01*
X46467689Y-51612950D01*
X46463362Y-51604814D01*
X46324123Y-51347298D01*
X46290701Y-51297749D01*
X46257920Y-51247653D01*
X46252095Y-51240512D01*
X46065490Y-51014945D01*
X46023054Y-50972804D01*
X45981191Y-50930055D01*
X45974091Y-50924181D01*
X45747227Y-50739155D01*
X45697408Y-50706055D01*
X45648045Y-50672256D01*
X45639939Y-50667873D01*
X45381458Y-50530436D01*
X45326164Y-50507645D01*
X45271171Y-50484075D01*
X45262368Y-50481350D01*
X44982114Y-50396736D01*
X44923429Y-50385116D01*
X44864921Y-50372680D01*
X44855758Y-50371717D01*
X44855756Y-50371717D01*
X44564404Y-50343150D01*
X44564402Y-50343150D01*
X44532419Y-50340000D01*
X18467581Y-50340000D01*
X18434116Y-50343296D01*
X18414651Y-50343296D01*
X18405486Y-50344259D01*
X18114561Y-50376892D01*
X18056044Y-50389331D01*
X17997371Y-50400948D01*
X17988568Y-50403673D01*
X17709523Y-50492191D01*
X17654588Y-50515737D01*
X17599235Y-50538551D01*
X17591129Y-50542935D01*
X17334592Y-50683968D01*
X17285247Y-50717755D01*
X17235409Y-50750867D01*
X17228309Y-50756741D01*
X17004051Y-50944916D01*
X16962207Y-50987646D01*
X16919751Y-51029806D01*
X16913927Y-51036947D01*
X16730491Y-51265097D01*
X16697744Y-51315139D01*
X16664286Y-51364742D01*
X16659960Y-51372879D01*
X16524330Y-51632313D01*
X16501918Y-51687785D01*
X16478740Y-51742923D01*
X16476077Y-51751745D01*
X16393422Y-52032583D01*
X16382224Y-52091284D01*
X16370184Y-52149940D01*
X16369285Y-52159112D01*
X16342753Y-52450656D01*
X10660000Y-52450656D01*
X10660000Y-34467581D01*
X10658334Y-34450656D01*
X16342753Y-34450656D01*
X16343171Y-34510472D01*
X16342753Y-34570288D01*
X16343652Y-34579460D01*
X16374252Y-34870605D01*
X16386283Y-34929217D01*
X16397489Y-34987963D01*
X16400153Y-34996784D01*
X16486721Y-35276440D01*
X16509899Y-35331578D01*
X16532311Y-35387050D01*
X16536638Y-35395186D01*
X16675877Y-35652702D01*
X16709304Y-35702259D01*
X16742080Y-35752347D01*
X16747905Y-35759488D01*
X16934510Y-35985056D01*
X16976965Y-36027215D01*
X17018809Y-36069945D01*
X17025909Y-36075819D01*
X17252773Y-36260845D01*
X17302566Y-36293927D01*
X17351955Y-36327745D01*
X17360061Y-36332127D01*
X17618542Y-36469564D01*
X17673836Y-36492355D01*
X17728829Y-36515925D01*
X17737632Y-36518650D01*
X18017887Y-36603264D01*
X18076564Y-36614882D01*
X18135079Y-36627320D01*
X18144242Y-36628283D01*
X18144244Y-36628283D01*
X18435596Y-36656850D01*
X18435598Y-36656850D01*
X18467581Y-36660000D01*
X44532419Y-36660000D01*
X44565884Y-36656704D01*
X44585349Y-36656704D01*
X44594514Y-36655741D01*
X44885438Y-36623108D01*
X44943941Y-36610672D01*
X45002629Y-36599052D01*
X45011432Y-36596327D01*
X45290476Y-36507809D01*
X45345412Y-36484263D01*
X45400764Y-36461449D01*
X45408870Y-36457065D01*
X45665408Y-36316032D01*
X45714753Y-36282245D01*
X45764591Y-36249133D01*
X45771691Y-36243259D01*
X45995949Y-36055084D01*
X46037793Y-36012354D01*
X46080248Y-35970195D01*
X46086072Y-35963053D01*
X46269509Y-35734903D01*
X46302251Y-35684869D01*
X46335714Y-35635258D01*
X46340040Y-35627122D01*
X46475670Y-35367687D01*
X46498082Y-35312215D01*
X46521260Y-35257077D01*
X46523923Y-35248255D01*
X46606578Y-34967417D01*
X46617785Y-34908669D01*
X46629816Y-34850059D01*
X46630715Y-34840888D01*
X46657247Y-34549344D01*
X46656829Y-34489528D01*
X46656982Y-34467582D01*
X52340000Y-34467582D01*
X52340001Y-52532419D01*
X52343235Y-52565255D01*
X52343235Y-52576623D01*
X52344198Y-52585788D01*
X52363234Y-52755494D01*
X52375667Y-52813983D01*
X52387290Y-52872686D01*
X52390016Y-52881489D01*
X52441652Y-53044265D01*
X52465204Y-53099215D01*
X52488011Y-53154550D01*
X52492394Y-53162656D01*
X52574663Y-53312303D01*
X52608458Y-53361658D01*
X52641562Y-53411485D01*
X52647436Y-53418585D01*
X52757205Y-53549403D01*
X52799935Y-53591247D01*
X52842094Y-53633702D01*
X52849236Y-53639526D01*
X52982322Y-53746531D01*
X53032392Y-53779296D01*
X53081970Y-53812737D01*
X53090102Y-53817060D01*
X53090106Y-53817063D01*
X53090110Y-53817065D01*
X53241444Y-53896180D01*
X53296869Y-53918573D01*
X53352053Y-53941771D01*
X53360875Y-53944434D01*
X53524697Y-53992649D01*
X53583437Y-54003854D01*
X53642050Y-54015886D01*
X53651221Y-54016784D01*
X53651226Y-54016785D01*
X53651232Y-54016785D01*
X53821289Y-54032263D01*
X53881109Y-54031845D01*
X53940929Y-54032263D01*
X53950101Y-54031363D01*
X54119935Y-54013512D01*
X54178505Y-54001489D01*
X54237288Y-53990276D01*
X54246110Y-53987612D01*
X54409243Y-53937114D01*
X54464361Y-53913944D01*
X54519850Y-53891526D01*
X54527986Y-53887199D01*
X54678204Y-53805977D01*
X54727813Y-53772516D01*
X54777854Y-53739770D01*
X54784995Y-53733946D01*
X54916575Y-53625092D01*
X54958694Y-53582677D01*
X55001463Y-53540796D01*
X55007336Y-53533696D01*
X55115268Y-53401359D01*
X55148350Y-53351566D01*
X55182168Y-53302177D01*
X55186551Y-53294070D01*
X55266723Y-53143289D01*
X55289517Y-53087985D01*
X55313084Y-53033001D01*
X55315809Y-53024198D01*
X55365167Y-52860715D01*
X55376781Y-52802059D01*
X55389223Y-52743524D01*
X55390186Y-52734359D01*
X55406850Y-52564404D01*
X55406850Y-52564402D01*
X55410000Y-52532419D01*
X55410000Y-44467582D01*
X56340000Y-44467582D01*
X56340002Y-55532419D01*
X56342750Y-55560319D01*
X56342729Y-55563308D01*
X56343628Y-55572479D01*
X56348707Y-55620799D01*
X56349552Y-55629383D01*
X56349639Y-55629669D01*
X56353828Y-55669527D01*
X56365864Y-55728162D01*
X56377066Y-55786886D01*
X56379730Y-55795708D01*
X56408586Y-55888926D01*
X56431751Y-55944032D01*
X56454174Y-55999533D01*
X56458501Y-56007669D01*
X56504914Y-56093508D01*
X56538355Y-56143086D01*
X56571120Y-56193156D01*
X56576944Y-56200297D01*
X56639146Y-56275486D01*
X56681581Y-56317625D01*
X56723444Y-56360375D01*
X56730545Y-56366248D01*
X56806165Y-56427923D01*
X56855992Y-56461028D01*
X56905348Y-56494823D01*
X56913454Y-56499206D01*
X56999614Y-56545018D01*
X57054923Y-56567815D01*
X57109898Y-56591377D01*
X57118701Y-56594102D01*
X57212119Y-56622307D01*
X57270826Y-56633932D01*
X57329316Y-56646364D01*
X57338470Y-56647326D01*
X57338476Y-56647327D01*
X57338481Y-56647327D01*
X57433368Y-56656630D01*
X57467581Y-56660000D01*
X61732419Y-56660000D01*
X61760338Y-56657250D01*
X61763308Y-56657271D01*
X61772479Y-56656372D01*
X61820497Y-56651325D01*
X61829383Y-56650450D01*
X61829679Y-56650360D01*
X61869527Y-56646172D01*
X61928152Y-56634138D01*
X61986884Y-56622935D01*
X61995706Y-56620271D01*
X62088925Y-56591415D01*
X62144075Y-56568232D01*
X62199537Y-56545824D01*
X62207666Y-56541501D01*
X62207670Y-56541499D01*
X62207673Y-56541497D01*
X62293511Y-56495085D01*
X62343098Y-56461637D01*
X62393156Y-56428880D01*
X62400297Y-56423056D01*
X62475486Y-56360854D01*
X62517639Y-56318405D01*
X62560371Y-56276560D01*
X62566245Y-56269459D01*
X62627921Y-56193839D01*
X62661052Y-56143974D01*
X62694825Y-56094649D01*
X62699208Y-56086543D01*
X62745020Y-56000382D01*
X62767809Y-55945090D01*
X62791378Y-55890101D01*
X62794103Y-55881298D01*
X62822308Y-55787880D01*
X62827656Y-55760873D01*
X63028395Y-56245502D01*
X63431674Y-56849050D01*
X63944950Y-57362326D01*
X64548498Y-57765605D01*
X65219125Y-58043387D01*
X65931059Y-58185000D01*
X66656941Y-58185000D01*
X67368875Y-58043387D01*
X68039502Y-57765605D01*
X68643050Y-57362326D01*
X69156326Y-56849050D01*
X69559605Y-56245502D01*
X69837387Y-55574875D01*
X69979000Y-54862941D01*
X69979000Y-54137059D01*
X69837387Y-53425125D01*
X69559605Y-52754498D01*
X69156326Y-52150950D01*
X68643050Y-51637674D01*
X68039502Y-51234395D01*
X67368875Y-50956613D01*
X66656941Y-50815000D01*
X65931059Y-50815000D01*
X65219125Y-50956613D01*
X64548498Y-51234395D01*
X63944950Y-51637674D01*
X63431674Y-52150950D01*
X63028395Y-52754498D01*
X62860000Y-53161042D01*
X62859998Y-44467580D01*
X62857250Y-44439680D01*
X62857271Y-44436692D01*
X62856372Y-44427521D01*
X62851294Y-44379208D01*
X62850448Y-44370616D01*
X62850361Y-44370329D01*
X62846172Y-44330472D01*
X62834137Y-44271843D01*
X62822934Y-44213113D01*
X62820271Y-44204292D01*
X62820270Y-44204290D01*
X62791414Y-44111073D01*
X62768235Y-44055934D01*
X62745825Y-44000466D01*
X62741499Y-43992330D01*
X62695086Y-43906491D01*
X62661645Y-43856913D01*
X62628880Y-43806843D01*
X62623056Y-43799702D01*
X62560854Y-43724513D01*
X62518419Y-43682374D01*
X62476556Y-43639624D01*
X62469455Y-43633750D01*
X62393834Y-43572076D01*
X62344026Y-43538983D01*
X62294652Y-43505176D01*
X62286546Y-43500793D01*
X62200386Y-43454981D01*
X62145077Y-43432184D01*
X62090102Y-43408622D01*
X62081299Y-43405897D01*
X61987881Y-43377692D01*
X61929174Y-43366067D01*
X61870684Y-43353635D01*
X61861530Y-43352673D01*
X61861524Y-43352672D01*
X61861519Y-43352672D01*
X61764402Y-43343150D01*
X61732419Y-43340000D01*
X57467581Y-43340000D01*
X57439671Y-43342749D01*
X57436693Y-43342728D01*
X57427522Y-43343627D01*
X57379360Y-43348689D01*
X57370617Y-43349550D01*
X57370325Y-43349638D01*
X57330473Y-43353827D01*
X57271854Y-43365860D01*
X57213116Y-43377064D01*
X57204294Y-43379728D01*
X57111075Y-43408584D01*
X57055937Y-43431762D01*
X57000463Y-43454175D01*
X56992334Y-43458498D01*
X56992330Y-43458500D01*
X56992327Y-43458502D01*
X56906489Y-43504915D01*
X56856913Y-43538355D01*
X56806844Y-43571119D01*
X56799703Y-43576943D01*
X56724514Y-43639145D01*
X56682361Y-43681594D01*
X56639629Y-43723439D01*
X56633755Y-43730540D01*
X56572079Y-43806161D01*
X56538988Y-43855966D01*
X56505174Y-43905350D01*
X56500792Y-43913456D01*
X56454980Y-43999617D01*
X56432191Y-44054909D01*
X56408622Y-44109898D01*
X56405897Y-44118701D01*
X56377692Y-44212119D01*
X56366067Y-44270826D01*
X56353635Y-44329316D01*
X56352673Y-44338470D01*
X56352672Y-44338476D01*
X56352672Y-44338481D01*
X56343150Y-44435598D01*
X56340000Y-44467582D01*
X55410000Y-44467582D01*
X55410000Y-39137059D01*
X62609000Y-39137059D01*
X62609000Y-39862941D01*
X62750613Y-40574875D01*
X63028395Y-41245502D01*
X63431674Y-41849050D01*
X63944950Y-42362326D01*
X64548498Y-42765605D01*
X65219125Y-43043387D01*
X65931059Y-43185000D01*
X66656941Y-43185000D01*
X67368875Y-43043387D01*
X68039502Y-42765605D01*
X68643050Y-42362326D01*
X69156326Y-41849050D01*
X69559605Y-41245502D01*
X69837387Y-40574875D01*
X69979000Y-39862941D01*
X69979000Y-39137059D01*
X69837387Y-38425125D01*
X69559605Y-37754498D01*
X69156326Y-37150950D01*
X68643050Y-36637674D01*
X68039502Y-36234395D01*
X67368875Y-35956613D01*
X66656941Y-35815000D01*
X65931059Y-35815000D01*
X65219125Y-35956613D01*
X64548498Y-36234395D01*
X63944950Y-36637674D01*
X63431674Y-37150950D01*
X63028395Y-37754498D01*
X62750613Y-38425125D01*
X62609000Y-39137059D01*
X55410000Y-39137059D01*
X55410000Y-34467581D01*
X55406765Y-34434735D01*
X55406765Y-34423376D01*
X55405802Y-34414212D01*
X55386766Y-34244506D01*
X55374332Y-34186009D01*
X55362710Y-34127315D01*
X55359984Y-34118512D01*
X55308348Y-33955735D01*
X55284796Y-33900785D01*
X55261989Y-33845450D01*
X55257606Y-33837344D01*
X55175337Y-33687697D01*
X55141549Y-33638350D01*
X55108439Y-33588516D01*
X55102564Y-33581415D01*
X54992795Y-33450597D01*
X54950065Y-33408753D01*
X54907905Y-33366297D01*
X54900764Y-33360473D01*
X54767677Y-33253469D01*
X54717625Y-33220716D01*
X54668030Y-33187263D01*
X54659898Y-33182940D01*
X54659894Y-33182937D01*
X54659890Y-33182935D01*
X54508556Y-33103820D01*
X54453098Y-33081414D01*
X54397947Y-33058230D01*
X54389125Y-33055566D01*
X54225303Y-33007351D01*
X54166563Y-32996146D01*
X54107950Y-32984114D01*
X54098779Y-32983216D01*
X54098774Y-32983215D01*
X54098768Y-32983215D01*
X53928711Y-32967738D01*
X53868929Y-32968155D01*
X53809071Y-32967737D01*
X53799900Y-32968637D01*
X53630065Y-32986488D01*
X53571501Y-32998510D01*
X53512712Y-33009724D01*
X53503890Y-33012388D01*
X53340757Y-33062886D01*
X53285577Y-33086081D01*
X53230150Y-33108475D01*
X53222014Y-33112801D01*
X53071796Y-33194023D01*
X53022234Y-33227454D01*
X52972146Y-33260230D01*
X52965005Y-33266054D01*
X52833425Y-33374907D01*
X52791286Y-33417341D01*
X52748537Y-33459204D01*
X52742664Y-33466304D01*
X52634732Y-33598641D01*
X52601638Y-33648452D01*
X52567832Y-33697824D01*
X52563449Y-33705930D01*
X52483277Y-33856711D01*
X52460488Y-33912003D01*
X52436916Y-33966999D01*
X52434191Y-33975802D01*
X52384833Y-34139284D01*
X52373216Y-34197955D01*
X52360777Y-34256476D01*
X52359814Y-34265641D01*
X52343150Y-34435596D01*
X52340000Y-34467582D01*
X46656982Y-34467582D01*
X46657247Y-34429712D01*
X46656348Y-34420541D01*
X46625748Y-34129395D01*
X46613710Y-34070753D01*
X46602510Y-34012037D01*
X46599847Y-34003216D01*
X46513279Y-33723560D01*
X46490101Y-33668422D01*
X46467689Y-33612950D01*
X46463362Y-33604814D01*
X46324123Y-33347298D01*
X46290701Y-33297749D01*
X46257920Y-33247653D01*
X46252095Y-33240512D01*
X46065490Y-33014945D01*
X46023054Y-32972804D01*
X45981191Y-32930055D01*
X45974091Y-32924181D01*
X45747227Y-32739155D01*
X45697408Y-32706055D01*
X45648045Y-32672256D01*
X45639939Y-32667873D01*
X45381458Y-32530436D01*
X45326164Y-32507645D01*
X45271171Y-32484075D01*
X45262368Y-32481350D01*
X44982114Y-32396736D01*
X44923429Y-32385116D01*
X44864921Y-32372680D01*
X44855758Y-32371717D01*
X44855756Y-32371717D01*
X44564404Y-32343150D01*
X44564402Y-32343150D01*
X44532419Y-32340000D01*
X18467581Y-32340000D01*
X18434116Y-32343296D01*
X18414651Y-32343296D01*
X18405486Y-32344259D01*
X18114561Y-32376892D01*
X18056044Y-32389331D01*
X17997371Y-32400948D01*
X17988568Y-32403673D01*
X17709523Y-32492191D01*
X17654588Y-32515737D01*
X17599235Y-32538551D01*
X17591129Y-32542935D01*
X17334592Y-32683968D01*
X17285247Y-32717755D01*
X17235409Y-32750867D01*
X17228309Y-32756741D01*
X17004051Y-32944916D01*
X16962207Y-32987646D01*
X16919751Y-33029806D01*
X16913927Y-33036947D01*
X16730491Y-33265097D01*
X16697744Y-33315139D01*
X16664286Y-33364742D01*
X16659960Y-33372879D01*
X16524330Y-33632313D01*
X16501918Y-33687785D01*
X16478740Y-33742923D01*
X16476077Y-33751745D01*
X16393422Y-34032583D01*
X16382224Y-34091284D01*
X16370184Y-34149940D01*
X16369285Y-34159112D01*
X16342753Y-34450656D01*
X10658334Y-34450656D01*
X10656765Y-34434735D01*
X10656765Y-34423376D01*
X10655802Y-34414212D01*
X10636766Y-34244506D01*
X10624332Y-34186009D01*
X10612710Y-34127315D01*
X10609984Y-34118512D01*
X10558348Y-33955735D01*
X10534796Y-33900785D01*
X10511989Y-33845450D01*
X10507606Y-33837344D01*
X10425337Y-33687697D01*
X10391549Y-33638350D01*
X10358439Y-33588516D01*
X10352564Y-33581415D01*
X10242795Y-33450597D01*
X10200065Y-33408753D01*
X10157905Y-33366297D01*
X10150764Y-33360473D01*
X10017677Y-33253469D01*
X9967625Y-33220716D01*
X9918030Y-33187263D01*
X9909898Y-33182940D01*
X9909894Y-33182937D01*
X9909890Y-33182935D01*
X9758556Y-33103820D01*
X9703098Y-33081414D01*
X9647947Y-33058230D01*
X9639125Y-33055566D01*
X9475303Y-33007351D01*
X9416563Y-32996146D01*
X9357950Y-32984114D01*
X9348779Y-32983216D01*
X9348774Y-32983215D01*
X9348768Y-32983215D01*
X9178711Y-32967738D01*
X9118929Y-32968155D01*
X9059071Y-32967737D01*
X9049900Y-32968637D01*
X8880065Y-32986488D01*
X8821501Y-32998510D01*
X8762712Y-33009724D01*
X8753890Y-33012388D01*
X8590757Y-33062886D01*
X8535577Y-33086081D01*
X8480150Y-33108475D01*
X8472014Y-33112801D01*
X8321796Y-33194023D01*
X8272234Y-33227454D01*
X8222146Y-33260230D01*
X8215005Y-33266054D01*
X8083425Y-33374907D01*
X8041286Y-33417341D01*
X7998537Y-33459204D01*
X7992664Y-33466304D01*
X7884732Y-33598641D01*
X7851638Y-33648452D01*
X7817832Y-33697824D01*
X7813449Y-33705930D01*
X7733277Y-33856711D01*
X7710488Y-33912003D01*
X7686916Y-33966999D01*
X7684191Y-33975802D01*
X7634833Y-34139284D01*
X7623216Y-34197955D01*
X7610777Y-34256476D01*
X7609814Y-34265641D01*
X7593150Y-34435596D01*
X7590000Y-34467582D01*
X660000Y-34467582D01*
X660000Y-31394061D01*
X11411000Y-31394061D01*
X11411000Y-31597939D01*
X11450774Y-31797898D01*
X11528795Y-31986256D01*
X11642063Y-32155774D01*
X11786226Y-32299937D01*
X11955744Y-32413205D01*
X12144102Y-32491226D01*
X12344061Y-32531000D01*
X12547939Y-32531000D01*
X12747898Y-32491226D01*
X12936256Y-32413205D01*
X13105774Y-32299937D01*
X13249937Y-32155774D01*
X13363205Y-31986256D01*
X13441226Y-31797898D01*
X13451151Y-31748000D01*
X23076678Y-31748000D01*
X23114000Y-31751676D01*
X23151322Y-31748000D01*
X23151333Y-31748000D01*
X23262986Y-31737003D01*
X23406247Y-31693546D01*
X23538276Y-31622974D01*
X23654001Y-31528001D01*
X23677804Y-31498998D01*
X24169802Y-31007000D01*
X24231939Y-31007000D01*
X24431898Y-30967226D01*
X24620256Y-30889205D01*
X24789774Y-30775937D01*
X24933937Y-30631774D01*
X25047205Y-30462256D01*
X25125226Y-30273898D01*
X25165000Y-30073939D01*
X25165000Y-29870061D01*
X25125226Y-29670102D01*
X25047205Y-29481744D01*
X24933937Y-29312226D01*
X24789774Y-29168063D01*
X24620256Y-29054795D01*
X24431898Y-28976774D01*
X24231939Y-28937000D01*
X24028061Y-28937000D01*
X23828102Y-28976774D01*
X23639744Y-29054795D01*
X23470226Y-29168063D01*
X23326063Y-29312226D01*
X23212795Y-29481744D01*
X23134774Y-29670102D01*
X23095000Y-29870061D01*
X23095000Y-29932198D01*
X22799199Y-30228000D01*
X12991322Y-30228000D01*
X12953999Y-30224324D01*
X12916676Y-30228000D01*
X12916667Y-30228000D01*
X12805014Y-30238997D01*
X12661753Y-30282454D01*
X12529724Y-30353026D01*
X12413999Y-30447999D01*
X12403329Y-30461000D01*
X12344061Y-30461000D01*
X12144102Y-30500774D01*
X11955744Y-30578795D01*
X11786226Y-30692063D01*
X11642063Y-30836226D01*
X11528795Y-31005744D01*
X11450774Y-31194102D01*
X11411000Y-31394061D01*
X660000Y-31394061D01*
X660000Y-30392294D01*
X681767Y-30444075D01*
X704175Y-30499537D01*
X708502Y-30507673D01*
X754914Y-30593511D01*
X788362Y-30643098D01*
X821119Y-30693156D01*
X826943Y-30700297D01*
X889145Y-30775486D01*
X931594Y-30817639D01*
X973439Y-30860371D01*
X980540Y-30866245D01*
X1056160Y-30927921D01*
X1106025Y-30961052D01*
X1155350Y-30994825D01*
X1163445Y-30999202D01*
X1163448Y-30999204D01*
X1163451Y-30999205D01*
X1163456Y-30999208D01*
X1249617Y-31045020D01*
X1304909Y-31067809D01*
X1359898Y-31091378D01*
X1368701Y-31094103D01*
X1462119Y-31122308D01*
X1520826Y-31133933D01*
X1579316Y-31146365D01*
X1588470Y-31147327D01*
X1588476Y-31147328D01*
X1588481Y-31147328D01*
X1685598Y-31156850D01*
X1717581Y-31160000D01*
X10032419Y-31160000D01*
X10060329Y-31157251D01*
X10063308Y-31157272D01*
X10072479Y-31156373D01*
X10120648Y-31151310D01*
X10129383Y-31150450D01*
X10129674Y-31150362D01*
X10169527Y-31146173D01*
X10228152Y-31134139D01*
X10286884Y-31122936D01*
X10295706Y-31120272D01*
X10388925Y-31091416D01*
X10444075Y-31068233D01*
X10499537Y-31045825D01*
X10507666Y-31041502D01*
X10507670Y-31041500D01*
X10507673Y-31041498D01*
X10593511Y-30995086D01*
X10643098Y-30961638D01*
X10693156Y-30928881D01*
X10700297Y-30923057D01*
X10775486Y-30860855D01*
X10817639Y-30818406D01*
X10860371Y-30776561D01*
X10866245Y-30769460D01*
X10927921Y-30693840D01*
X10961052Y-30643975D01*
X10994825Y-30594650D01*
X10999208Y-30586544D01*
X11045020Y-30500383D01*
X11067809Y-30445091D01*
X11091378Y-30390102D01*
X11094103Y-30381299D01*
X11122308Y-30287881D01*
X11133933Y-30229174D01*
X11146365Y-30170684D01*
X11147327Y-30161530D01*
X11147328Y-30161524D01*
X11147328Y-30161519D01*
X11147477Y-30160000D01*
X21532419Y-30160000D01*
X21560329Y-30157251D01*
X21563308Y-30157272D01*
X21572479Y-30156373D01*
X21620648Y-30151310D01*
X21629383Y-30150450D01*
X21629674Y-30150362D01*
X21669527Y-30146173D01*
X21728152Y-30134139D01*
X21786884Y-30122936D01*
X21795706Y-30120272D01*
X21888925Y-30091416D01*
X21944075Y-30068233D01*
X21999537Y-30045825D01*
X22007666Y-30041502D01*
X22007670Y-30041500D01*
X22007673Y-30041498D01*
X22093511Y-29995086D01*
X22143098Y-29961638D01*
X22193156Y-29928881D01*
X22200297Y-29923057D01*
X22275486Y-29860855D01*
X22317639Y-29818406D01*
X22360371Y-29776561D01*
X22366245Y-29769460D01*
X22427921Y-29693840D01*
X22461052Y-29643975D01*
X22494825Y-29594650D01*
X22499208Y-29586544D01*
X22545020Y-29500383D01*
X22567809Y-29445091D01*
X22591378Y-29390102D01*
X22594103Y-29381299D01*
X22622308Y-29287881D01*
X22633933Y-29229174D01*
X22646365Y-29170684D01*
X22647327Y-29161530D01*
X22647328Y-29161524D01*
X22647328Y-29161519D01*
X22656850Y-29064402D01*
X22660000Y-29032419D01*
X22660000Y-19467581D01*
X22657251Y-19439671D01*
X22657272Y-19436693D01*
X22656373Y-19427522D01*
X22651311Y-19379360D01*
X22650450Y-19370617D01*
X22650362Y-19370325D01*
X22646173Y-19330473D01*
X22634140Y-19271854D01*
X22622936Y-19213116D01*
X22620272Y-19204294D01*
X22591416Y-19111075D01*
X22568238Y-19055937D01*
X22545825Y-19000463D01*
X22541498Y-18992327D01*
X22495085Y-18906489D01*
X22461645Y-18856913D01*
X22428881Y-18806844D01*
X22423057Y-18799703D01*
X22360855Y-18724514D01*
X22318406Y-18682361D01*
X22276561Y-18639629D01*
X22269460Y-18633755D01*
X22193839Y-18572079D01*
X22144034Y-18538988D01*
X22094650Y-18505174D01*
X22086544Y-18500792D01*
X22000383Y-18454980D01*
X21945091Y-18432191D01*
X21890102Y-18408622D01*
X21881299Y-18405897D01*
X21787881Y-18377692D01*
X21729174Y-18366067D01*
X21670684Y-18353635D01*
X21661530Y-18352673D01*
X21661524Y-18352672D01*
X21661519Y-18352672D01*
X21564402Y-18343150D01*
X21532419Y-18340000D01*
X1717581Y-18340000D01*
X1689671Y-18342749D01*
X1686693Y-18342728D01*
X1677522Y-18343627D01*
X1629360Y-18348689D01*
X1620617Y-18349550D01*
X1620325Y-18349638D01*
X1580473Y-18353827D01*
X1521854Y-18365860D01*
X1463116Y-18377064D01*
X1454294Y-18379728D01*
X1361075Y-18408584D01*
X1305937Y-18431762D01*
X1250463Y-18454175D01*
X1242334Y-18458498D01*
X1242330Y-18458500D01*
X1242327Y-18458502D01*
X1156489Y-18504915D01*
X1106913Y-18538355D01*
X1056844Y-18571119D01*
X1049703Y-18576943D01*
X974514Y-18639145D01*
X932361Y-18681594D01*
X889629Y-18723439D01*
X883755Y-18730540D01*
X822079Y-18806161D01*
X788988Y-18855966D01*
X755174Y-18905350D01*
X750792Y-18913456D01*
X704980Y-18999617D01*
X682191Y-19054909D01*
X660000Y-19106683D01*
X660000Y-16916061D01*
X27413000Y-16916061D01*
X27413000Y-17119939D01*
X27452774Y-17319898D01*
X27530795Y-17508256D01*
X27644063Y-17677774D01*
X27788226Y-17821937D01*
X27957744Y-17935205D01*
X28146102Y-18013226D01*
X28346061Y-18053000D01*
X28549939Y-18053000D01*
X28749898Y-18013226D01*
X28938256Y-17935205D01*
X29107774Y-17821937D01*
X29251937Y-17677774D01*
X29365205Y-17508256D01*
X29443226Y-17319898D01*
X29483000Y-17119939D01*
X29483000Y-17057801D01*
X30032802Y-16508000D01*
X41005987Y-16508000D01*
X40992795Y-16527744D01*
X40914774Y-16716102D01*
X40904849Y-16766000D01*
X37121323Y-16766000D01*
X37084000Y-16762324D01*
X37046677Y-16766000D01*
X37046667Y-16766000D01*
X36935014Y-16776997D01*
X36791753Y-16820454D01*
X36659723Y-16891026D01*
X36616803Y-16926250D01*
X36543999Y-16985999D01*
X36520201Y-17014997D01*
X33996199Y-19539000D01*
X33934061Y-19539000D01*
X33734102Y-19578774D01*
X33545744Y-19656795D01*
X33376226Y-19770063D01*
X33232063Y-19914226D01*
X33118795Y-20083744D01*
X33040774Y-20272102D01*
X33001000Y-20472061D01*
X33001000Y-20675939D01*
X33040774Y-20875898D01*
X33118795Y-21064256D01*
X33232063Y-21233774D01*
X33376226Y-21377937D01*
X33545744Y-21491205D01*
X33734102Y-21569226D01*
X33934061Y-21609000D01*
X34137939Y-21609000D01*
X34337898Y-21569226D01*
X34526256Y-21491205D01*
X34695774Y-21377937D01*
X34839937Y-21233774D01*
X34953205Y-21064256D01*
X35031226Y-20875898D01*
X35071000Y-20675939D01*
X35071000Y-20613801D01*
X35217219Y-20467582D01*
X40340000Y-20467582D01*
X40340001Y-30032419D01*
X40342749Y-30060319D01*
X40342728Y-30063308D01*
X40343627Y-30072479D01*
X40348706Y-30120799D01*
X40349551Y-30129383D01*
X40349638Y-30129669D01*
X40353827Y-30169527D01*
X40365861Y-30228152D01*
X40377064Y-30286884D01*
X40379728Y-30295706D01*
X40408584Y-30388925D01*
X40431767Y-30444075D01*
X40454175Y-30499537D01*
X40458502Y-30507673D01*
X40504914Y-30593511D01*
X40538362Y-30643098D01*
X40571119Y-30693156D01*
X40576943Y-30700297D01*
X40639145Y-30775486D01*
X40681594Y-30817639D01*
X40723439Y-30860371D01*
X40730540Y-30866245D01*
X40806160Y-30927921D01*
X40856025Y-30961052D01*
X40905350Y-30994825D01*
X40913445Y-30999202D01*
X40913448Y-30999204D01*
X40913451Y-30999205D01*
X40913456Y-30999208D01*
X40999617Y-31045020D01*
X41054909Y-31067809D01*
X41109898Y-31091378D01*
X41118701Y-31094103D01*
X41212119Y-31122308D01*
X41270826Y-31133933D01*
X41329316Y-31146365D01*
X41338470Y-31147327D01*
X41338476Y-31147328D01*
X41338481Y-31147328D01*
X41435598Y-31156850D01*
X41467581Y-31160000D01*
X61532419Y-31160000D01*
X61560329Y-31157251D01*
X61563308Y-31157272D01*
X61572479Y-31156373D01*
X61620648Y-31151310D01*
X61629383Y-31150450D01*
X61629674Y-31150362D01*
X61669527Y-31146173D01*
X61728152Y-31134139D01*
X61786884Y-31122936D01*
X61795706Y-31120272D01*
X61888925Y-31091416D01*
X61944075Y-31068233D01*
X61999537Y-31045825D01*
X62007666Y-31041502D01*
X62007670Y-31041500D01*
X62007673Y-31041498D01*
X62093511Y-30995086D01*
X62143098Y-30961638D01*
X62193156Y-30928881D01*
X62200297Y-30923057D01*
X62275486Y-30860855D01*
X62317639Y-30818406D01*
X62360371Y-30776561D01*
X62366245Y-30769460D01*
X62427921Y-30693840D01*
X62461052Y-30643975D01*
X62494825Y-30594650D01*
X62499208Y-30586544D01*
X62545020Y-30500383D01*
X62567809Y-30445091D01*
X62591378Y-30390102D01*
X62594103Y-30381299D01*
X62622308Y-30287881D01*
X62633933Y-30229174D01*
X62646365Y-30170684D01*
X62647327Y-30161530D01*
X62647328Y-30161524D01*
X62647328Y-30161519D01*
X62656850Y-30064402D01*
X62660000Y-30032419D01*
X62660000Y-25820758D01*
X62917622Y-26442712D01*
X63334580Y-27066733D01*
X63865267Y-27597420D01*
X64489288Y-28014378D01*
X65182664Y-28301584D01*
X65918748Y-28448000D01*
X66669252Y-28448000D01*
X67405336Y-28301584D01*
X68098712Y-28014378D01*
X68722733Y-27597420D01*
X69253420Y-27066733D01*
X69670378Y-26442712D01*
X69957584Y-25749336D01*
X70104000Y-25013252D01*
X70104000Y-24262748D01*
X69957584Y-23526664D01*
X69670378Y-22833288D01*
X69253420Y-22209267D01*
X68722733Y-21678580D01*
X68098712Y-21261622D01*
X67405336Y-20974416D01*
X66669252Y-20828000D01*
X65918748Y-20828000D01*
X65182664Y-20974416D01*
X64489288Y-21261622D01*
X63865267Y-21678580D01*
X63334580Y-22209267D01*
X62917622Y-22833288D01*
X62660000Y-23455242D01*
X62660000Y-19467581D01*
X62657251Y-19439671D01*
X62657272Y-19436693D01*
X62656373Y-19427522D01*
X62651311Y-19379360D01*
X62650450Y-19370617D01*
X62650362Y-19370325D01*
X62646173Y-19330473D01*
X62634140Y-19271854D01*
X62622936Y-19213116D01*
X62620272Y-19204294D01*
X62591416Y-19111075D01*
X62568238Y-19055937D01*
X62545825Y-19000463D01*
X62541498Y-18992327D01*
X62495085Y-18906489D01*
X62461645Y-18856913D01*
X62428881Y-18806844D01*
X62423057Y-18799703D01*
X62360855Y-18724514D01*
X62318406Y-18682361D01*
X62276561Y-18639629D01*
X62269460Y-18633755D01*
X62193839Y-18572079D01*
X62144034Y-18538988D01*
X62094650Y-18505174D01*
X62086544Y-18500792D01*
X62000383Y-18454980D01*
X61945091Y-18432191D01*
X61890102Y-18408622D01*
X61881299Y-18405897D01*
X61787881Y-18377692D01*
X61729174Y-18366067D01*
X61670684Y-18353635D01*
X61661530Y-18352673D01*
X61661524Y-18352672D01*
X61661519Y-18352672D01*
X61564402Y-18343150D01*
X61532419Y-18340000D01*
X53467581Y-18340000D01*
X53439671Y-18342749D01*
X53436693Y-18342728D01*
X53427522Y-18343627D01*
X53379360Y-18348689D01*
X53370617Y-18349550D01*
X53370325Y-18349638D01*
X53330473Y-18353827D01*
X53271854Y-18365860D01*
X53213116Y-18377064D01*
X53204294Y-18379728D01*
X53111075Y-18408584D01*
X53055937Y-18431762D01*
X53000463Y-18454175D01*
X52992334Y-18458498D01*
X52992330Y-18458500D01*
X52992327Y-18458502D01*
X52906489Y-18504915D01*
X52856913Y-18538355D01*
X52806844Y-18571119D01*
X52799703Y-18576943D01*
X52724514Y-18639145D01*
X52682361Y-18681594D01*
X52639629Y-18723439D01*
X52633755Y-18730540D01*
X52572079Y-18806161D01*
X52538988Y-18855966D01*
X52505174Y-18905350D01*
X52500792Y-18913456D01*
X52454980Y-18999617D01*
X52432191Y-19054909D01*
X52408622Y-19109898D01*
X52405897Y-19118701D01*
X52377692Y-19212119D01*
X52366067Y-19270826D01*
X52353635Y-19329316D01*
X52352673Y-19338470D01*
X52352672Y-19338476D01*
X52352672Y-19338481D01*
X52352523Y-19340000D01*
X41467581Y-19340000D01*
X41439671Y-19342749D01*
X41436693Y-19342728D01*
X41427522Y-19343627D01*
X41379360Y-19348689D01*
X41370617Y-19349550D01*
X41370325Y-19349638D01*
X41330473Y-19353827D01*
X41271854Y-19365860D01*
X41213116Y-19377064D01*
X41204294Y-19379728D01*
X41111075Y-19408584D01*
X41055937Y-19431762D01*
X41000463Y-19454175D01*
X40992334Y-19458498D01*
X40992330Y-19458500D01*
X40992327Y-19458502D01*
X40906489Y-19504915D01*
X40856913Y-19538355D01*
X40806844Y-19571119D01*
X40799703Y-19576943D01*
X40724514Y-19639145D01*
X40682361Y-19681594D01*
X40639629Y-19723439D01*
X40633755Y-19730540D01*
X40572079Y-19806161D01*
X40538988Y-19855966D01*
X40505174Y-19905350D01*
X40500792Y-19913456D01*
X40454980Y-19999617D01*
X40432191Y-20054909D01*
X40408622Y-20109898D01*
X40405897Y-20118701D01*
X40377692Y-20212119D01*
X40366067Y-20270826D01*
X40353635Y-20329316D01*
X40352673Y-20338470D01*
X40352672Y-20338476D01*
X40352672Y-20338481D01*
X40343150Y-20435598D01*
X40340000Y-20467582D01*
X35217219Y-20467582D01*
X37398802Y-18286000D01*
X41364678Y-18286000D01*
X41402000Y-18289676D01*
X41439322Y-18286000D01*
X41439333Y-18286000D01*
X41550986Y-18275003D01*
X41694247Y-18231546D01*
X41826276Y-18160974D01*
X41942001Y-18066001D01*
X41952671Y-18053000D01*
X42011939Y-18053000D01*
X42211898Y-18013226D01*
X42400256Y-17935205D01*
X42569774Y-17821937D01*
X42713937Y-17677774D01*
X42827205Y-17508256D01*
X42905226Y-17319898D01*
X42935030Y-17170061D01*
X50781000Y-17170061D01*
X50781000Y-17373939D01*
X50820774Y-17573898D01*
X50898795Y-17762256D01*
X51012063Y-17931774D01*
X51156226Y-18075937D01*
X51325744Y-18189205D01*
X51514102Y-18267226D01*
X51714061Y-18307000D01*
X51917939Y-18307000D01*
X52117898Y-18267226D01*
X52306256Y-18189205D01*
X52475774Y-18075937D01*
X52619937Y-17931774D01*
X52733205Y-17762256D01*
X52811226Y-17573898D01*
X52851000Y-17373939D01*
X52851000Y-17311801D01*
X54613004Y-15549798D01*
X54642001Y-15526001D01*
X54736974Y-15410276D01*
X54807546Y-15278247D01*
X54851003Y-15134986D01*
X54862000Y-15023333D01*
X54862000Y-15023324D01*
X54865676Y-14986001D01*
X54862000Y-14948678D01*
X54862000Y-10982801D01*
X57034802Y-8810000D01*
X63738594Y-8810000D01*
X63816525Y-8926632D01*
X64023368Y-9133475D01*
X64197760Y-9250000D01*
X64023368Y-9366525D01*
X63816525Y-9573368D01*
X63654010Y-9816589D01*
X63648455Y-9830000D01*
X57265323Y-9830000D01*
X57228000Y-9826324D01*
X57190677Y-9830000D01*
X57190667Y-9830000D01*
X57079014Y-9840997D01*
X56935753Y-9884454D01*
X56930990Y-9887000D01*
X56794061Y-9887000D01*
X56594102Y-9926774D01*
X56405744Y-10004795D01*
X56236226Y-10118063D01*
X56092063Y-10262226D01*
X55978795Y-10431744D01*
X55900774Y-10620102D01*
X55861000Y-10820061D01*
X55861000Y-11023939D01*
X55900774Y-11223898D01*
X55978795Y-11412256D01*
X56092063Y-11581774D01*
X56236226Y-11725937D01*
X56405744Y-11839205D01*
X56594102Y-11917226D01*
X56794061Y-11957000D01*
X56997939Y-11957000D01*
X57197898Y-11917226D01*
X57386256Y-11839205D01*
X57555774Y-11725937D01*
X57699937Y-11581774D01*
X57813205Y-11412256D01*
X57838992Y-11350000D01*
X63738594Y-11350000D01*
X63816525Y-11466632D01*
X64023368Y-11673475D01*
X64197760Y-11790000D01*
X64023368Y-11906525D01*
X63816525Y-12113368D01*
X63654010Y-12356589D01*
X63648455Y-12370000D01*
X57011321Y-12370000D01*
X56973998Y-12366324D01*
X56936675Y-12370000D01*
X56936665Y-12370000D01*
X56825012Y-12380997D01*
X56681751Y-12424454D01*
X56676988Y-12427000D01*
X56540059Y-12427000D01*
X56340100Y-12466774D01*
X56151742Y-12544795D01*
X55982224Y-12658063D01*
X55838061Y-12802226D01*
X55724793Y-12971744D01*
X55646772Y-13160102D01*
X55606998Y-13360061D01*
X55606998Y-13563939D01*
X55646772Y-13763898D01*
X55724793Y-13952256D01*
X55838061Y-14121774D01*
X55982224Y-14265937D01*
X56151742Y-14379205D01*
X56340100Y-14457226D01*
X56540059Y-14497000D01*
X56743937Y-14497000D01*
X56943896Y-14457226D01*
X57132254Y-14379205D01*
X57301772Y-14265937D01*
X57445935Y-14121774D01*
X57559203Y-13952256D01*
X57584990Y-13890000D01*
X63738594Y-13890000D01*
X63816525Y-14006632D01*
X64023368Y-14213475D01*
X64197760Y-14330000D01*
X64023368Y-14446525D01*
X63816525Y-14653368D01*
X63654010Y-14896589D01*
X63616146Y-14988000D01*
X57599711Y-14988000D01*
X57555774Y-14944063D01*
X57386256Y-14830795D01*
X57197898Y-14752774D01*
X56997939Y-14713000D01*
X56794061Y-14713000D01*
X56594102Y-14752774D01*
X56405744Y-14830795D01*
X56236226Y-14944063D01*
X56092063Y-15088226D01*
X55978795Y-15257744D01*
X55900774Y-15446102D01*
X55861000Y-15646061D01*
X55861000Y-15849939D01*
X55900774Y-16049898D01*
X55978795Y-16238256D01*
X56092063Y-16407774D01*
X56236226Y-16551937D01*
X56405744Y-16665205D01*
X56594102Y-16743226D01*
X56794061Y-16783000D01*
X56997939Y-16783000D01*
X57197898Y-16743226D01*
X57386256Y-16665205D01*
X57555774Y-16551937D01*
X57599711Y-16508000D01*
X63790712Y-16508000D01*
X63816525Y-16546632D01*
X64023368Y-16753475D01*
X64266589Y-16915990D01*
X64536842Y-17027932D01*
X64823740Y-17085000D01*
X65116260Y-17085000D01*
X65403158Y-17027932D01*
X65673411Y-16915990D01*
X65916632Y-16753475D01*
X66048487Y-16621620D01*
X66070498Y-16694180D01*
X66129463Y-16804494D01*
X66208815Y-16901185D01*
X66305506Y-16980537D01*
X66415820Y-17039502D01*
X66535518Y-17075812D01*
X66660000Y-17088072D01*
X67224250Y-17085000D01*
X67383000Y-16926250D01*
X67383000Y-15727000D01*
X67637000Y-15727000D01*
X67637000Y-16926250D01*
X67795750Y-17085000D01*
X68360000Y-17088072D01*
X68484482Y-17075812D01*
X68604180Y-17039502D01*
X68714494Y-16980537D01*
X68811185Y-16901185D01*
X68890537Y-16804494D01*
X68949502Y-16694180D01*
X68985812Y-16574482D01*
X68998072Y-16450000D01*
X68995000Y-15885750D01*
X68836250Y-15727000D01*
X67637000Y-15727000D01*
X67383000Y-15727000D01*
X67363000Y-15727000D01*
X67363000Y-15473000D01*
X67383000Y-15473000D01*
X67383000Y-13187000D01*
X67637000Y-13187000D01*
X67637000Y-15473000D01*
X68836250Y-15473000D01*
X68995000Y-15314250D01*
X68998072Y-14750000D01*
X68985812Y-14625518D01*
X68949502Y-14505820D01*
X68890537Y-14395506D01*
X68811185Y-14298815D01*
X68714494Y-14219463D01*
X68604180Y-14160498D01*
X68523534Y-14136034D01*
X68607588Y-14060269D01*
X68781641Y-13826920D01*
X68906825Y-13564099D01*
X68951476Y-13416890D01*
X68830155Y-13187000D01*
X67637000Y-13187000D01*
X67383000Y-13187000D01*
X67363000Y-13187000D01*
X67363000Y-12933000D01*
X67383000Y-12933000D01*
X67383000Y-10647000D01*
X67637000Y-10647000D01*
X67637000Y-12933000D01*
X68830155Y-12933000D01*
X68951476Y-12703110D01*
X68906825Y-12555901D01*
X68781641Y-12293080D01*
X68607588Y-12059731D01*
X68391355Y-11864822D01*
X68265745Y-11790000D01*
X68391355Y-11715178D01*
X68607588Y-11520269D01*
X68781641Y-11286920D01*
X68906825Y-11024099D01*
X68951476Y-10876890D01*
X68830155Y-10647000D01*
X67637000Y-10647000D01*
X67383000Y-10647000D01*
X67363000Y-10647000D01*
X67363000Y-10393000D01*
X67383000Y-10393000D01*
X67383000Y-8107000D01*
X67637000Y-8107000D01*
X67637000Y-10393000D01*
X68830155Y-10393000D01*
X68951476Y-10163110D01*
X68906825Y-10015901D01*
X68781641Y-9753080D01*
X68607588Y-9519731D01*
X68391355Y-9324822D01*
X68265745Y-9250000D01*
X68391355Y-9175178D01*
X68607588Y-8980269D01*
X68781641Y-8746920D01*
X68906825Y-8484099D01*
X68951476Y-8336890D01*
X68830155Y-8107000D01*
X67637000Y-8107000D01*
X67383000Y-8107000D01*
X67363000Y-8107000D01*
X67363000Y-7853000D01*
X67383000Y-7853000D01*
X67383000Y-6659186D01*
X67637000Y-6659186D01*
X67637000Y-7853000D01*
X68830155Y-7853000D01*
X68951476Y-7623110D01*
X68906825Y-7475901D01*
X68781641Y-7213080D01*
X68607588Y-6979731D01*
X68391355Y-6784822D01*
X68141252Y-6635843D01*
X67866891Y-6538519D01*
X67637000Y-6659186D01*
X67383000Y-6659186D01*
X67153109Y-6538519D01*
X66878748Y-6635843D01*
X66628645Y-6784822D01*
X66412412Y-6979731D01*
X66241100Y-7209406D01*
X66123475Y-7033368D01*
X65916632Y-6826525D01*
X65673411Y-6664010D01*
X65403158Y-6552068D01*
X65116260Y-6495000D01*
X64823740Y-6495000D01*
X64536842Y-6552068D01*
X64266589Y-6664010D01*
X64023368Y-6826525D01*
X63816525Y-7033368D01*
X63654010Y-7276589D01*
X63648455Y-7290000D01*
X56757322Y-7290000D01*
X56719999Y-7286324D01*
X56682676Y-7290000D01*
X56682667Y-7290000D01*
X56571014Y-7300997D01*
X56427753Y-7344454D01*
X56295723Y-7415026D01*
X56212083Y-7483668D01*
X56179999Y-7509999D01*
X56156201Y-7538997D01*
X53590998Y-10104201D01*
X53562000Y-10127999D01*
X53538202Y-10156997D01*
X53538201Y-10156998D01*
X53467026Y-10243724D01*
X53396454Y-10375754D01*
X53352998Y-10519015D01*
X53338324Y-10668000D01*
X53342001Y-10705332D01*
X53342000Y-14671198D01*
X51776199Y-16237000D01*
X51714061Y-16237000D01*
X51514102Y-16276774D01*
X51325744Y-16354795D01*
X51156226Y-16468063D01*
X51012063Y-16612226D01*
X50898795Y-16781744D01*
X50820774Y-16970102D01*
X50781000Y-17170061D01*
X42935030Y-17170061D01*
X42945000Y-17119939D01*
X42945000Y-16916061D01*
X42905226Y-16716102D01*
X42827205Y-16527744D01*
X42814013Y-16508000D01*
X49588289Y-16508000D01*
X49632226Y-16551937D01*
X49801744Y-16665205D01*
X49990102Y-16743226D01*
X50190061Y-16783000D01*
X50393939Y-16783000D01*
X50593898Y-16743226D01*
X50782256Y-16665205D01*
X50951774Y-16551937D01*
X51095937Y-16407774D01*
X51209205Y-16238256D01*
X51287226Y-16049898D01*
X51327000Y-15849939D01*
X51327000Y-15646061D01*
X51287226Y-15446102D01*
X51209205Y-15257744D01*
X51095937Y-15088226D01*
X50951774Y-14944063D01*
X50782256Y-14830795D01*
X50593898Y-14752774D01*
X50393939Y-14713000D01*
X50190061Y-14713000D01*
X49990102Y-14752774D01*
X49801744Y-14830795D01*
X49632226Y-14944063D01*
X49588289Y-14988000D01*
X29755322Y-14988000D01*
X29717999Y-14984324D01*
X29680676Y-14988000D01*
X29680667Y-14988000D01*
X29569014Y-14998997D01*
X29425753Y-15042454D01*
X29293724Y-15113026D01*
X29177999Y-15207999D01*
X29154201Y-15236997D01*
X28408199Y-15983000D01*
X28346061Y-15983000D01*
X28146102Y-16022774D01*
X27957744Y-16100795D01*
X27788226Y-16214063D01*
X27644063Y-16358226D01*
X27530795Y-16527744D01*
X27452774Y-16716102D01*
X27413000Y-16916061D01*
X660000Y-16916061D01*
X660000Y-2951353D01*
X4742755Y-2951353D01*
X4743173Y-3011171D01*
X4742755Y-3070988D01*
X4743655Y-3080160D01*
X4776296Y-3390715D01*
X4788320Y-3449291D01*
X4799532Y-3508070D01*
X4802196Y-3516892D01*
X4894535Y-3815192D01*
X4917715Y-3870335D01*
X4940124Y-3925800D01*
X4944451Y-3933937D01*
X5092972Y-4208621D01*
X5126417Y-4258205D01*
X5159177Y-4308268D01*
X5165001Y-4315409D01*
X5364047Y-4556013D01*
X5406482Y-4598154D01*
X5448346Y-4640903D01*
X5455446Y-4646777D01*
X5697435Y-4844138D01*
X5747259Y-4877241D01*
X5796615Y-4911036D01*
X5804721Y-4915419D01*
X6080435Y-5062019D01*
X6135704Y-5084799D01*
X6190724Y-5108381D01*
X6199527Y-5111105D01*
X6498465Y-5201359D01*
X6557138Y-5212976D01*
X6615655Y-5225415D01*
X6624820Y-5226378D01*
X6935594Y-5256850D01*
X6935598Y-5256850D01*
X6967581Y-5260000D01*
X8032419Y-5260000D01*
X8065986Y-5256694D01*
X8086744Y-5256694D01*
X8095909Y-5255731D01*
X8406228Y-5220923D01*
X8464731Y-5208487D01*
X8523419Y-5196867D01*
X8532222Y-5194142D01*
X8829870Y-5099723D01*
X8884792Y-5076183D01*
X8940159Y-5053363D01*
X8948265Y-5048979D01*
X9221904Y-4898544D01*
X9271217Y-4864779D01*
X9321088Y-4831645D01*
X9328188Y-4825770D01*
X9567397Y-4625049D01*
X9609241Y-4582320D01*
X9651694Y-4540162D01*
X9657519Y-4533020D01*
X9853185Y-4289660D01*
X9885938Y-4239608D01*
X9919391Y-4190013D01*
X9923714Y-4181881D01*
X9923717Y-4181877D01*
X9923719Y-4181873D01*
X10068388Y-3905146D01*
X10090785Y-3849711D01*
X10113978Y-3794539D01*
X10116641Y-3785717D01*
X10204807Y-3486156D01*
X10216007Y-3427440D01*
X10228045Y-3368798D01*
X10228944Y-3359627D01*
X10257245Y-3048647D01*
X10256827Y-2988830D01*
X10257245Y-2929012D01*
X10256345Y-2919841D01*
X10223704Y-2609285D01*
X10211680Y-2550709D01*
X10200468Y-2491930D01*
X10197804Y-2483108D01*
X10105465Y-2184808D01*
X10082280Y-2129653D01*
X10059876Y-2074200D01*
X10055549Y-2066064D01*
X10055549Y-2066063D01*
X10055546Y-2066059D01*
X9907028Y-1791379D01*
X9873583Y-1741795D01*
X9840823Y-1691732D01*
X9834999Y-1684591D01*
X9635954Y-1443987D01*
X9593535Y-1401863D01*
X9551655Y-1359097D01*
X9544554Y-1353223D01*
X9302565Y-1155862D01*
X9252741Y-1122759D01*
X9203385Y-1088964D01*
X9195279Y-1084581D01*
X8919566Y-937981D01*
X8864269Y-915189D01*
X8809275Y-891619D01*
X8800472Y-888895D01*
X8501535Y-798641D01*
X8442862Y-787024D01*
X8384345Y-774585D01*
X8375180Y-773622D01*
X8064405Y-743150D01*
X8064402Y-743150D01*
X8032419Y-740000D01*
X6967581Y-740000D01*
X6934014Y-743306D01*
X6913256Y-743306D01*
X6904091Y-744269D01*
X6593771Y-779077D01*
X6535298Y-791506D01*
X6476581Y-803132D01*
X6467778Y-805858D01*
X6170130Y-900277D01*
X6115147Y-923843D01*
X6059841Y-946638D01*
X6051735Y-951021D01*
X5778095Y-1101456D01*
X5728748Y-1135245D01*
X5678913Y-1168355D01*
X5671812Y-1174229D01*
X5432603Y-1374951D01*
X5390759Y-1417681D01*
X5348305Y-1459839D01*
X5342481Y-1466980D01*
X5146814Y-1710340D01*
X5114055Y-1760400D01*
X5080609Y-1809986D01*
X5076283Y-1818123D01*
X4931612Y-2094854D01*
X4909215Y-2150289D01*
X4886022Y-2205461D01*
X4883359Y-2214283D01*
X4795193Y-2513844D01*
X4783993Y-2572560D01*
X4771955Y-2631202D01*
X4771056Y-2640373D01*
X4742755Y-2951353D01*
X660000Y-2951353D01*
X660000Y-660000D01*
X13843000Y-660000D01*
X13843000Y-12192000D01*
G37*
%TD.AperFunction*%
%TD*%
M02*
